<svg enable-background="new 0 0 256 256" height="512" viewBox="0 0 256 256" width="512" xmlns="http://www.w3.org/2000/svg"><g fill="#eaa250"><path d="m247.001 131.921c6.477-3.441 6.661-8.437 6.442-10.426-.055-.496-.481-.864-.976-.864h-1.071c-.637 0-1.096-.6-.948-1.224 1.493-6.276-3.268-12.336-5.598-14.847-.515-.555-1.427-.343-1.654.382-3.775 12.075-14.044 14.422-21.423 14.436 3.395 4.498 5.833 9.64 7.281 15.094 7.634 2.537 14.307 1.433 17.261.684.74-.188.986-1.117.446-1.661-.469-.471-.345-1.263.24-1.574z"/><path d="m169.515 251.411c.037-3.478 1.26-10.405 9.869-13.757.645-.251 1.202-.682 1.571-1.272 2.513-4.015 12.285-20.475 12.285-33.653 0-8.23-6.351-12.621-11.623-18.222 0 0-4.048 2.625-10.88 5.232 3.511 3.616 6.418 7.425 6.418 12.99 0 13.156-9.738 29.581-12.272 33.632-.378.604-.948 1.044-1.609 1.302-8.587 3.355-9.808 10.273-9.845 13.748-.012 1.151.902 2.089 2.044 2.089h16.085c-1.141 0-2.055-.939-2.043-2.089z"/><path d="m80.324 253.5c-.134 0-.265-.014-.391-.04-.027-.005-.05-.017-.076-.024-.845-.21-1.475-.97-1.476-1.887 0 0 0-.002 0-.003 0-.111.005-.237.007-.355.002-.132.002-.258.008-.398.005-.129.017-.27.025-.405.009-.144.014-.282.027-.432.01-.117.028-.243.041-.363.019-.18.035-.356.061-.542.012-.088.032-.181.046-.271.035-.226.069-.452.116-.686.04-.198.093-.402.141-.603.031-.13.055-.257.09-.387.064-.236.143-.475.221-.714.032-.099.057-.198.092-.298.239-.677.539-1.355.916-2.014.037-.066.085-.128.124-.193.157-.262.317-.524.5-.778.092-.128.203-.249.303-.374.146-.185.284-.373.446-.552.107-.118.235-.226.349-.341.176-.176.343-.356.536-.523.131-.114.285-.215.424-.324.2-.156.39-.317.608-.463.149-.1.321-.184.478-.279.234-.14.458-.287.712-.414.158-.08.34-.143.506-.217.279-.125.55-.256.852-.365.203-.073.433-.127.647-.192.294-.09.576-.189.891-.264.241-.058.513-.092.767-.14.317-.06.619-.13.956-.174.277-.036.53-.144.759-.287.049-.031.103-.051.149-.086.032-.024.056-.057.086-.083.219-.188.406-.416.531-.687 2.415-5.192 12.451-29.084 4.861-52.976 0 0-7.744-1.745-15.666-7.601l-.064 1.158c-.205 3.711.076 7.44.901 11.063 5.07 22.277-3.858 43.498-6.117 48.355-.285.613-.849 1.054-1.516 1.141-9.752 1.269-10.905 9.298-10.899 13.068.002 1.08.872 1.95 1.944 1.95h22.839.001z"/><path d="m133.089 38.642c-2.715-5.081-13.42 1.561-28.4-1.159-4.246-.771-7.822-.424-10.789.45-7.553-2.758-15.713-1.828-15.713-1.828s-27.133-13.764-39.288 19.086c0 0-18.2 20.402-23.442 19.809s-11.652-.248-12.711 9.258 1.144 18.312 9.768 17.148c0 0 2.204 8.806 14.326 4.829s12.336 13.16 12.336 13.16l3.852-5.982s3.488 6.812 2.428 16.318c0 0 12.829-10.314 10.047-23.463 0 0 5.243.593 6.869 5.055 0 0 1.99-8.331-2.664-14.205 0 0 32.964 9.076 44.541-28.118.396-1.274.73-2.494 1.015-3.672 16.927-1.835 30.835-21.051 27.825-26.686z"/></g><path d="m92.437 63.075c17.866 8.744 36.138-8.373 40.219-18.785l-.338-.245c-3.542-1.156-9.404-1.571-17.465 2.799-8.674 4.703-18.656 5.566-25.053 5.535z" fill="#f98080"/><path d="m78.187 36.105s4.677-.53 10.226.407c12.642-20.635 28.38-26.115 41.837-25.92 1.531.022 2.808-1.161 2.88-2.702.062-1.324-.799-2.502-2.063-2.872-37.569-11.003-58.728 16.948-65.534 28.228 7.155.071 12.654 2.859 12.654 2.859z" fill="#7d3d1a"/><path d="m230.593 144.557c-.482-10.724-4.497-21.087-11.897-28.811-21.521-22.462-56.554-9.698-86.044-9.698-18.301 0-28.365-12.905-33.775-24.949-11.866 19.3-31.519 17.456-37.432 16.391.18 1.251.327 2.497.446 3.743 1.678 5.019.48 10.09.48 10.09-.001-.002-.002-.004-.003-.007.113 10.123-.486 21.255 1.117 36.321 3.217 30.247 32.171 36.728 32.171 36.728 7.589 23.892-2.446 47.783-4.861 52.976-.285.613-.849 1.054-1.516 1.141-9.752 1.269-10.905 9.298-10.899 13.068.002 1.08.871 1.95 1.944 1.95h22.839c6.434 0 4.289-12.963 4.289-12.963s-1.072-3.241 4.289-12.963c5.362-9.722 8.579-36.728 8.579-36.728 33.243 11.883 61.297-6.339 61.297-6.339 5.272 5.601 11.623 9.992 11.623 18.222 0 13.178-9.771 29.638-12.285 33.653-.369.59-.926 1.02-1.571 1.272-8.609 3.352-9.833 10.279-9.869 13.757-.012 1.151.902 2.089 2.044 2.089h25.97c3.405 0 2.755-7.49 2.343-10.577-.118-.879.028-1.762.424-2.555 2.066-4.139 8.823-17.606 13.318-25.757 3.85-6.981 2.724-18.419 1.783-24.313-.372-2.332.286-4.731 1.835-6.504 11.748-13.438 13.845-28.459 13.361-39.237z" fill="#eaa250"/><path d="m199.874 242.94c-.085-.642-.028-1.285.158-1.895-9.132 1.151-16.069-2.605-19.082-4.66-.38.592-.943 1.026-1.596 1.281-8.584 3.357-9.803 10.274-9.839 13.748-.012 1.15.903 2.087 2.044 2.087h25.97c3.4-.001 2.758-7.464 2.345-10.561z" fill="#52565b"/><path d="m107.529 241.076c-7.413.857-13.352-1.503-16.88-3.501-.309.484-.795.831-1.37.906-9.752 1.269-10.905 9.298-10.899 13.068.002 1.08.872 1.95 1.944 1.95h22.839c5.644.001 4.686-9.975 4.366-12.423z" fill="#52565b"/><path d="m80.324 253.5c-1.072 0-1.942-.87-1.944-1.95-.005-2.76.628-7.793 4.785-10.795-3.579-.694-6.514-1.997-8.6-3.179-.076.12-.162.23-.26.33-.004.005-.009.009-.014.013-.091.091-.186.175-.293.247-.039.027-.083.047-.124.071-.08.046-.158.094-.245.128-.138.056-.283.097-.436.117-.995.13-1.879.345-2.703.604-.185.058-.388.104-.566.168-2.838 1.025-4.632 2.779-5.767 4.711-.023.038-.051.075-.073.114-.343.601-.617 1.219-.844 1.836-.022.06-.051.119-.072.179-.334.946-.542 1.885-.674 2.764-.151 1.008-.202 1.938-.201 2.693.002 1.08.872 1.95 1.944 1.95h22.839.001-6.753z" fill="#52565b"/><path d="m169.515 251.411c.028-2.653.758-7.308 4.917-10.857-4.395-1.016-7.72-2.91-9.566-4.169-.378.591-.939 1.024-1.591 1.279-.312.122-.595.258-.888.39-.211.094-.438.182-.639.281-.302.148-.575.309-.856.467-.166.093-.347.18-.505.276-.278.168-.528.347-.785.523-.138.095-.29.185-.423.282-.24.177-.454.362-.675.546-.126.105-.266.206-.387.313-.179.159-.335.325-.501.488-.141.138-.293.273-.424.413-.128.137-.236.278-.356.416-.149.172-.306.342-.442.517-.106.136-.194.274-.293.411-.13.181-.268.361-.386.543-.102.158-.187.318-.281.476-.096.163-.201.326-.289.489-.079.148-.143.296-.215.444-.086.175-.178.35-.255.525-.05.114-.088.227-.135.34-.084.207-.172.414-.244.618-.044.123-.076.243-.116.366-.062.192-.128.385-.181.573-.055.198-.098.391-.144.585-.026.108-.057.219-.08.325-.045.211-.079.414-.113.618-.014.083-.034.171-.046.253-.027.172-.044.335-.064.5-.013.106-.031.217-.041.321-.015.149-.023.286-.033.428-.008.11-.02.226-.026.332-.006.11-.007.209-.01.314-.004.126-.011.257-.012.375-.012 1.15.902 2.088 2.044 2.088h16.085c-1.142 0-2.056-.939-2.044-2.089z" fill="#52565b"/><path d="m53.836 65.735c-1.377 0-2.495-1.114-2.5-2.492-.008-2.19.833-4.252 2.367-5.808 1.539-1.561 3.591-2.423 5.776-2.43h.027c2.175 0 4.221.849 5.764 2.393 1.544 1.545 2.397 3.603 2.404 5.792.004 1.381-1.111 2.503-2.492 2.508-.003 0-.005 0-.008 0-1.377 0-2.496-1.114-2.5-2.492-.003-.861-.337-1.669-.942-2.274-.597-.598-1.388-.927-2.227-.927-.003 0-.007 0-.011 0-.844.002-1.636.337-2.232.941-.601.609-.93 1.419-.927 2.28.005 1.38-1.11 2.503-2.491 2.508-.002.001-.005.001-.008.001z"/><path d="m181.617 187.007c-.665 0-1.328-.264-1.82-.787-4.517-4.798-8.911-11.127-7.257-21.687.214-1.364 1.501-2.295 2.856-2.083 1.364.213 2.297 1.493 2.083 2.857-1.244 7.938 1.482 12.731 5.958 17.485.946 1.005.898 2.588-.106 3.534-.483.456-1.099.681-1.714.681z"/><path d="m95.653 186.865c-1.151 0-2.188-.801-2.44-1.973l-2.682-12.422c-.292-1.35.566-2.68 1.916-2.971 1.355-.291 2.679.568 2.971 1.917l2.682 12.422c.292 1.35-.566 2.68-1.916 2.971-.178.038-.356.056-.531.056z"/><path d="m238.879 138.558c-3.116 0-6.745-.428-10.615-1.714-.8-.266-1.412-.917-1.628-1.731-1.396-5.262-3.704-10.049-6.859-14.229-.571-.756-.665-1.77-.244-2.619.422-.849 1.287-1.386 2.234-1.388 10.01-.019 16.416-4.286 19.042-12.682.37-1.185 1.35-2.091 2.557-2.364 1.206-.271 2.475.121 3.315 1.027 2.263 2.438 7.122 8.537 6.491 15.344 1.453.297 2.588 1.496 2.756 3.018.202 1.838.283 7.898-6.475 12.167.136.567.13 1.168-.03 1.748-.333 1.202-1.289 2.138-2.496 2.444-1.823.463-4.627.979-8.048.979zm6.101-3.306.005.005c-.002-.002-.004-.004-.005-.005zm3.196-1.124c-.001 0-.002 0-.002.001 0-.001.001-.001.002-.001zm-17.086-1.646c5.338 1.5 10.076 1.119 12.897.617-.023-.273-.016-.55.026-.825.165-1.088.844-2.045 1.814-2.561 3.911-2.079 4.973-4.695 5.144-6.607-.903-.109-1.725-.566-2.298-1.292-.668-.844-.909-1.931-.66-2.981.94-3.953-1.368-8.015-3.36-10.626-3.238 7.575-9.614 12.207-18.367 13.377 2.044 3.364 3.652 7.012 4.804 10.898zm15.911-.561h.01z"/><path d="m171.56 256h-16.086c-1.219 0-2.363-.478-3.222-1.345-.865-.874-1.335-2.035-1.322-3.27.036-3.497 1.224-12.061 11.435-16.051.128-.05.301-.142.399-.299 1.985-3.174 11.891-19.65 11.891-32.306 0-4.47-2.185-7.618-5.711-11.248-.585-.604-.829-1.46-.647-2.282.182-.821.765-1.496 1.55-1.795 6.51-2.485 10.373-4.97 10.411-4.995 1.016-.658 2.353-.495 3.181.384.937.995 1.937 1.978 2.903 2.929 4.621 4.543 9.399 9.242 9.399 17.006 0 13.684-9.694 30.233-12.666 34.979-.645 1.03-1.607 1.817-2.782 2.275-6.535 2.544-8.13 7.338-8.269 11.06 1.159.218 2.036 1.235 2.036 2.457 0 1.382-1.12 2.501-2.5 2.501zm-15.619-5h11.082c.123-3.709 1.577-11.831 11.454-15.676.114-.044.271-.127.358-.269 1.988-3.176 11.904-19.657 11.904-32.327 0-5.669-3.663-9.271-7.904-13.441-.542-.532-1.093-1.074-1.644-1.628-1.363.762-3.473 1.862-6.216 3.052 2.635 3.216 4.678 6.997 4.678 12.018 0 13.669-9.684 30.213-12.652 34.958-.651 1.042-1.626 1.839-2.817 2.305-6.784 2.651-8.108 7.859-8.243 11.008z"/><path d="m87.077 256h-22.839c-2.446 0-4.439-1.994-4.444-4.446-.014-8.558 4.749-14.333 12.759-15.507 2.08-4.542 10.685-25.202 5.836-46.506-.858-3.771-1.181-7.726-.959-11.755l.064-1.16c.051-.917.602-1.733 1.433-2.124s1.81-.294 2.55.252c7.363 5.444 14.66 7.157 14.733 7.173.862.197 1.561.837 1.829 1.681 7.92 24.933-2.757 50.012-4.978 54.787-.254.546-.618 1.034-1.082 1.452-.09.089-.183.172-.282.248-.139.105-.274.189-.414.264-.535.323-1.105.526-1.691.603-.176.023-.342.058-.508.092l-.654.121c-.104.017-.207.032-.303.055-.17.041-.325.092-.48.142l-.567.17c-.076.021-.153.04-.224.065-.171.062-.328.136-.486.208l-.192.087c-.092.042-.191.083-.291.123l-.123.051c-.113.057-.226.129-.34.199l-.581.338c-.093.062-.181.136-.27.207l-.514.392c-.089.077-.169.163-.252.247l-.426.416c-.062.069-.13.16-.199.25l-.363.45c-.139.191-.259.393-.379.595-.043.071-.085.136-.129.2-.25.439-.496.98-.699 1.557l-.071.237c-.084.254-.141.422-.186.589l-.119.508c-.026.107-.053.213-.073.318-.041.202-.068.389-.097.576l-.029.175c-.029.186-.039.293-.05.401l-.097 1.269h6.188c1.381 0 2.5 1.119 2.5 2.5s-1.12 2.5-2.501 2.5zm-22.275-5h11.087l.041-.877c.007-.124.015-.247.025-.377.009-.107.022-.222.036-.336l.02-.178c.018-.175.036-.349.062-.531.01-.072.026-.168.044-.265.046-.295.087-.56.142-.833.033-.169.077-.351.121-.532l.064-.273c.025-.114.052-.227.083-.342.067-.253.15-.51.234-.766l.04-.126c.029-.101.06-.201.096-.302.304-.859.675-1.675 1.104-2.424.047-.083.104-.173.164-.262.179-.297.377-.617.603-.931.088-.123.189-.247.293-.371l.174-.217c.146-.187.292-.373.454-.552.113-.125.232-.24.354-.354l.197-.194c.178-.181.357-.361.556-.532.127-.11.271-.22.419-.328l.241-.186c.198-.158.397-.313.616-.459.143-.096.304-.189.466-.279l.276-.163c.229-.141.46-.279.712-.405.153-.077.317-.147.482-.214l.292-.127c.277-.126.557-.25.859-.36.186-.067.384-.125.582-.18l.389-.117c.271-.086.543-.171.837-.241.205-.049.427-.088.648-.125l.486-.09c.177-.036.354-.07.537-.101 2.254-4.918 11.514-27.272 5.029-49.634-2.153-.64-6.464-2.144-11.289-5.052.07 2.416.366 4.783.886 7.067 5.169 22.71-3.506 43.985-6.288 49.964-.654 1.409-1.948 2.369-3.459 2.565-6.92.901-8.594 5.836-8.715 10.04zm24.139-14.996c-.001 0-.002 0-.003 0z"/><path d="m12.512 103.906c-1.122 0-2.143-.761-2.425-1.899-.332-1.339.484-2.694 1.823-3.027.099-.025 9.982-2.553 18.74-9.594 1.078-.867 2.65-.693 3.515.382.865 1.076.694 2.65-.382 3.515-9.649 7.757-20.223 10.439-20.668 10.55-.202.049-.404.073-.603.073z"/><path d="m102.603 67.961c-3.974 0-8.054-.914-12.086-3.053-1.22-.647-1.684-2.161-1.036-3.38.646-1.22 2.158-1.684 3.38-1.037 14.129 7.498 27.045-3.778 30.668-7.412 6.173-6.191 8.069-11.922 7.355-13.259-.575-1.078-3.788-.626-7.504-.103-4.847.681-11.484 1.615-19.138.226-4.725-.857-9.034-.306-12.816 1.643-1.951 1.005-3.521 2.598-4.538 4.608-.625 1.231-2.13 1.724-3.36 1.101-1.231-.624-1.725-2.128-1.101-3.36 1.496-2.955 3.816-5.304 6.71-6.794 4.784-2.463 10.165-3.175 15.999-2.117 6.864 1.247 12.788.413 17.547-.257 5.574-.783 10.39-1.462 12.611 2.698 2.604 4.875-2.438 13.341-8.226 19.146-6.147 6.165-15.003 11.35-24.465 11.35z"/><path d="m45.456 132.23c-.413 0-.827-.102-1.204-.309-.887-.488-1.393-1.462-1.28-2.468.463-4.157-.011-7.742-.633-10.354l-1.062 1.648c-.597.928-1.732 1.354-2.792 1.049-1.061-.305-1.796-1.269-1.81-2.372-.034-2.184-.788-8.336-3.826-10.501-1.313-.937-3.026-1.04-5.23-.315-4.979 1.634-9.176 1.542-12.471-.277-2.234-1.233-3.531-2.976-4.253-4.326-3.323-.04-5.503-1.431-6.807-2.705-4.519-4.415-4.337-12.748-3.827-17.322.466-4.184 1.946-7.297 4.398-9.254 3.367-2.688 7.688-2.592 11.078-2.211 2.389-.09 11.97-8.588 20.984-18.641 4.141-10.936 10.373-18.098 18.53-21.294 10.497-4.114 20.672-.228 23.382.975 2.18-.163 8.829-.42 15.354 1.761 3.509-.901 7.253-1 11.147-.292 6.864 1.247 12.787.413 17.548-.257 5.571-.784 10.389-1.462 12.61 2.698 1.295 2.424.807 5.925-1.412 10.124-4.551 8.614-14.998 17.962-26.612 19.979-.197.727-.409 1.454-.634 2.175-6.327 20.327-18.938 27.366-28.402 29.691-5.446 1.338-10.443 1.302-13.971.964 1.896 5.632.612 11.205.541 11.505-.257 1.073-1.187 1.851-2.288 1.915-1.091.052-2.114-.603-2.492-1.64-.341-.934-.949-1.62-1.62-2.122.011 12.305-10.866 21.208-11.381 21.622-.453.368-1.007.554-1.565.554zm-2.429-21.317c.041 0 .082.001.123.003.894.044 1.694.562 2.103 1.357.119.234 2.296 4.568 2.8 11.14 3.051-3.854 6.429-9.895 5.004-16.628-.166-.786.056-1.604.596-2.199.539-.594 1.319-.892 2.132-.803.153.018 2.236.273 4.423 1.499-.21-2.154-.856-4.591-2.458-6.612-.672-.848-.723-2.031-.126-2.933.597-.901 1.705-1.317 2.749-1.03 1.244.338 30.793 7.912 41.49-26.451.363-1.167.69-2.35.971-3.515.248-1.026 1.112-1.786 2.161-1.899 10.454-1.132 20.408-9.908 24.467-17.589 1.765-3.338 1.625-5.052 1.423-5.432-.576-1.079-3.785-.626-7.504-.103-4.846.682-11.484 1.616-19.138.226-3.416-.621-6.657-.489-9.637.388-.513.152-1.062.134-1.563-.05-6.88-2.513-14.5-1.702-14.575-1.692-.485.054-.977-.035-1.411-.255-.096-.048-10.136-4.98-20.023-1.081-6.861 2.707-12.173 9.034-15.788 18.806-.108.293-.271.563-.479.796-6.951 7.793-19.312 20.651-25.178 20.652-.141 0-.277-.008-.411-.022-2.428-.275-5.464-.393-7.397 1.15-1.376 1.099-2.233 3.084-2.548 5.9-.686 6.151.194 11.083 2.353 13.192 1.101 1.077 2.6 1.469 4.597 1.202 1.255-.168 2.449.635 2.759 1.871.017.055.599 2.072 2.691 3.192 2.024 1.083 4.863 1.039 8.431-.132 4.701-1.542 7.872-.306 9.702 1.003 2.593 1.853 4.049 4.856 4.866 7.658l.297-.46c.458-.72 1.251-1.149 2.098-1.149z"/><path d="m90.14 54.879c-.118 0-.235 0-.353-.001-1.381-.007-2.494-1.132-2.487-2.512.007-1.376 1.125-2.488 2.5-2.488.096 0 .228.001.343.001 6.406 0 15.573-.925 23.52-5.233 8.869-4.808 15.462-4.273 19.433-2.978 1.312.428 2.028 1.84 1.601 3.152-.429 1.312-1.84 2.032-3.153 1.601-3.035-.991-8.19-1.341-15.497 2.621-8.866 4.805-18.916 5.837-25.907 5.837z"/><path d="m88.414 39.012c-.139 0-.278-.011-.417-.035-5.144-.868-9.485-.393-9.529-.389-.485.054-.973-.032-1.406-.251-.051-.025-5.116-2.527-11.553-2.59-.897-.009-1.722-.498-2.158-1.282-.438-.783-.422-1.741.042-2.51 3.334-5.527 10.627-15.9 22.012-23.277 13.849-8.975 29.448-11.014 46.365-6.059 2.386.699 3.973 2.915 3.857 5.388-.134 2.867-2.47 5.086-5.333 5.086-.026 0-.053 0-.08-.001-16.13-.206-29.474 8.084-39.669 24.726-.459.75-1.272 1.194-2.131 1.194zm-6.848-5.557c1.545 0 3.478.079 5.596.347 10.947-17.078 25.823-25.996 43.124-25.708.183.032.338-.135.347-.32.007-.161-.104-.308-.27-.356-11.43-3.35-39.619-7.472-60.493 23.666 4.192.608 7.414 1.875 8.764 2.472.634-.047 1.65-.101 2.932-.101z"/><path d="m197.529 256h-25.97c-1.22 0-2.364-.478-3.223-1.345-.865-.874-1.335-2.035-1.322-3.27.037-3.503 1.229-12.077 11.463-16.061.114-.044.271-.127.358-.269 1.988-3.176 11.904-19.657 11.904-32.327 0-5.669-3.663-9.271-7.904-13.441-.539-.53-1.088-1.069-1.637-1.621-6.606 3.734-30.459 15.315-58.792 6.512-1.023 7.45-3.982 26.453-8.477 34.603-4.018 7.285-4.092 10.458-4.061 11.06.055.116.013.074.049.288.263 1.587 1.401 9.708-1.968 13.68-1.215 1.433-2.871 2.19-4.789 2.19h-22.837c-2.445 0-4.438-1.994-4.443-4.446-.016-8.558 4.747-14.333 12.759-15.507 2.257-4.924 11.515-27.282 5.024-49.645-6.128-1.873-29.723-10.843-32.664-38.501-1.229-11.566-1.178-20.854-1.132-29.047.015-2.589.028-5.079.001-7.51-.003-.246.03-.485.095-.712.146-.729.848-4.748-.442-8.607-.06-.18-.1-.366-.117-.555-.117-1.222-.263-2.441-.433-3.625-.114-.795.16-1.597.738-2.154.579-.558 1.392-.803 2.18-.662 5.382.97 23.808 2.736 34.858-15.239.485-.79 1.373-1.258 2.291-1.186.925.06 1.74.625 2.119 1.471 6.995 15.576 17.592 23.473 31.495 23.473 7.674 0 15.959-.905 23.971-1.78 23.208-2.533 47.204-5.155 63.878 12.249 7.593 7.926 12.064 18.732 12.589 30.428.488 10.85-1.541 26.77-13.976 40.995-1.054 1.206-1.509 2.833-1.248 4.463 1.025 6.424 2.12 18.332-2.062 25.916-4.479 8.122-11.29 21.699-13.271 25.667-.17.341-.233.724-.182 1.107.785 5.882.298 9.875-1.446 11.868-.87.993-2.068 1.54-3.376 1.54zm-25.504-5h25.224c.397-.784.733-3.336.146-7.746-.185-1.378.046-2.761.664-4.001 1.992-3.99 8.842-17.644 13.366-25.848 3.59-6.508 2.248-18.051 1.504-22.712-.496-3.102.387-6.216 2.422-8.543 11.343-12.976 13.191-27.544 12.745-37.479-.471-10.486-4.45-20.143-11.206-27.194-14.969-15.624-36.708-13.25-59.724-10.737-8.146.889-16.567 1.809-24.514 1.809-14.58 0-26.312-7.759-34.139-22.501-10.941 14.329-26.326 15.085-34.192 14.35.011.107.021.214.032.322 1.534 4.854.766 9.617.518 10.868.023 2.363.01 4.783-.004 7.295-.045 8.063-.097 17.202 1.104 28.49 2.981 28.042 29.123 34.301 30.234 34.554.865.196 1.564.837 1.833 1.682 7.92 24.933-2.757 50.012-4.978 54.787-.657 1.411-1.951 2.369-3.46 2.566-6.921.901-8.594 5.836-8.715 10.039h22.275c.514 0 .754-.163.977-.424 1.376-1.623 1.33-6.596.864-9.524-.32-1.357-.514-5.503 4.549-14.684 5.064-9.184 8.255-35.552 8.286-35.817.09-.755.52-1.429 1.166-1.83.648-.4 1.442-.484 2.158-.229 31.708 11.333 58.822-5.906 59.094-6.082 1.012-.658 2.353-.497 3.182.383.937.995 1.937 1.978 2.903 2.929 4.621 4.543 9.399 9.242 9.399 17.006 0 13.684-9.694 30.233-12.666 34.979-.645 1.03-1.607 1.817-2.782 2.275-6.508 2.535-8.115 7.301-8.265 11.017z"/><path d="m16.41 87.049c-.643 0-1.285-.247-1.774-.738-.907-.915-1.586-1.139-1.838-.961.077-.055.111-.102.111-.102l-3.549-3.522c.237-.239 1.528-1.433 3.644-1.434h.001c1.793 0 3.535.839 5.18 2.495.973.98.967 2.563-.013 3.536-.488.484-1.125.726-1.762.726z"/><path d="m197.529 256h-25.97c-1.22 0-2.365-.478-3.224-1.345-.864-.874-1.334-2.034-1.321-3.267.036-3.497 1.223-12.059 11.43-16.05.126-.05.3-.143.403-.304.364-.568.943-.964 1.604-1.099.666-.134 1.35.004 1.907.384 2.974 2.028 9.182 5.276 17.361 4.245.84-.106 1.68.222 2.225.87.547.649.727 1.53.479 2.341-.084.276-.108.558-.071.837.782 5.871.295 9.858-1.448 11.85-.869.992-2.067 1.538-3.375 1.538zm-25.503-5h25.223c.383-.754.709-3.145.208-7.251-7.084.205-12.729-2.172-16.229-4.232-.302.184-.623.344-.961.476-6.781 2.652-8.106 7.858-8.241 11.007z"/><path d="m103.162 256h-22.839c-2.445 0-4.438-1.995-4.443-4.446-.016-8.57 4.761-14.35 12.795-15.513.752-.971 2.116-1.257 3.205-.642 3.325 1.883 8.688 3.965 15.362 3.193 1.37-.154 2.59.805 2.766 2.16.455 3.484.782 9.825-2.132 13.145-1.208 1.376-2.838 2.103-4.714 2.103zm-22.275-5h22.275c.501 0 .745-.161.957-.401.883-1.005 1.302-3.667 1.144-6.854-5.911.177-10.817-1.447-14.325-3.188-.418.205-.869.342-1.337.403-6.92.902-8.593 5.837-8.714 10.04z"/><path d="m87.077 256h-5.213-17.626c-2.446 0-4.439-1.995-4.444-4.446-.001-1.001.078-2.062.229-3.068.172-1.143.437-2.228.789-3.225.022-.066.057-.151.092-.235.29-.787.624-1.511 1.012-2.188.028-.05.098-.161.13-.209 1.56-2.66 3.939-4.61 7.029-5.726.166-.06.343-.111.52-.16l.149-.042c.966-.304 1.902-.52 2.853-.659.738-1.017 2.086-1.271 3.201-.64 1.688.956 4.418 2.235 7.844 2.9.979.19 1.75.943 1.965 1.916s-.17 1.981-.978 2.565c-3.022 2.183-3.663 5.886-3.739 8.218h6.188c1.381 0 2.5 1.119 2.5 2.5s-1.12 2.499-2.501 2.499zm-22.273-5h11.083c.06-2.37.555-5.862 2.594-8.927-1.382-.479-2.602-1.011-3.632-1.52-.104.053-.208.101-.316.143-.312.125-.663.218-1.013.264-.756.099-1.501.265-2.279.51-.104.033-.21.062-.316.092l-.157.045c-1.984.717-3.443 1.903-4.453 3.624-.018.03-.054.087-.082.131-.246.438-.453.896-.646 1.418-.014.036-.062.156-.076.192-.233.663-.416 1.416-.542 2.257-.103.675-.148 1.286-.165 1.771zm1.466-5.706c-.008.012-.015.024-.021.037.007-.012.014-.024.021-.037zm6.465-9.285c-.009.005-.018.01-.026.015.013-.007.022-.012.026-.015z"/><path d="m171.56 256h-16.086c-1.219 0-2.363-.478-3.222-1.345-.865-.874-1.335-2.035-1.322-3.27l.026-.796c.003-.08.012-.182.021-.285 0-.004.008-.1.008-.104l.009-.114c.008-.122.017-.243.029-.372l.034-.276c.001-.003.014-.103.014-.106l.015-.12c.019-.152.037-.305.062-.465l.066-.376c.035-.205.071-.411.116-.623.021-.095.046-.197.072-.298l.048-.199c.044-.188.088-.375.142-.567.051-.18.11-.365.172-.55l.04-.122c.059-.195.095-.311.137-.429.068-.194.15-.396.232-.598l.088-.219c.039-.101.078-.202.122-.304.073-.166.154-.331.237-.496l.12-.248c.063-.135.127-.27.199-.405.08-.148.167-.293.254-.437l.159-.27c.084-.147.169-.294.265-.441.113-.175.239-.35.368-.524l.161-.226c.09-.13.18-.259.281-.387.121-.156.261-.318.402-.478l.211-.246c.105-.127.212-.253.329-.377.111-.12.242-.247.375-.372l.246-.241c.149-.15.3-.299.463-.444.114-.101.229-.193.345-.284l.233-.19c.214-.179.429-.356.661-.528.124-.091.247-.172.371-.252l.267-.181c.247-.171.495-.34.764-.503.135-.081.282-.16.43-.238l.315-.173c.261-.148.521-.294.804-.433.167-.082.343-.158.519-.232l.426-.188c.252-.115.505-.229.777-.335.125-.049.294-.14.395-.296.364-.57.943-.968 1.605-1.103.662-.137 1.351.002 1.91.384 1.476 1.007 4.571 2.839 8.72 3.799.92.212 1.641.925 1.865 1.842s-.088 1.882-.806 2.495c-3.256 2.778-3.941 6.427-4.03 8.587 1.159.218 2.035 1.235 2.035 2.457.001 1.383-1.119 2.502-2.499 2.502zm-15.617-5h11.08c.073-2.276.62-5.837 2.931-9.193-1.885-.707-3.497-1.52-4.81-2.291-.302.185-.623.344-.962.476-.181.07-.349.149-.518.226l-.558.246c-.088.037-.178.073-.26.114-.188.093-.365.194-.542.295l-.452.248c-.059.031-.118.061-.173.094-.179.108-.341.222-.503.334l-.523.35c-.14.104-.276.22-.414.334l-.469.38c-.079.07-.157.151-.237.231l-.354.345c-.054.051-.109.101-.158.154-.053.056-.093.106-.133.155l-.307.358c-.074.084-.149.167-.216.252-.04.051-.07.097-.101.142l-.253.354c-.068.093-.139.186-.2.28-.044.068-.081.136-.119.202l-.23.391c-.04.066-.081.132-.117.198l-.259.536c-.043.084-.086.167-.122.25l-.166.418c-.051.125-.103.249-.146.373l-.142.447c-.037.112-.074.223-.105.333-.033.12-.06.234-.086.349l-.078.321c-.053.231-.076.372-.1.512l-.047.263c-.025.145-.035.233-.045.321z"/></svg>