<svg enable-background="new 0 0 256 256" height="512" viewBox="0 0 256 256" width="512" xmlns="http://www.w3.org/2000/svg"><g fill="#eaa250"><path d="m197.143 237.782 12.439-29.471c15.293-42.919-2.454-51.994-20.671-51.817 1.828 22.015-1.075 48.161-15.846 74.176-1.763 3.105-.917 6.942 1.954 9.185 1.8 1.407 3.755 3.182 5.349 5.237 2.397 3.088.526 7.303-3.108 8.22l.187.188h37.318c4.147-17.683-17.622-15.718-17.622-15.718z"/><path d="m75.631 245.092c1.595-2.055 3.549-3.83 5.349-5.237 2.871-2.243 3.717-6.08 1.954-9.185-14.772-26.014-17.674-52.161-15.846-74.176-18.216-.177-35.963 8.898-20.671 51.817l12.439 29.471s-21.769-1.965-17.622 15.718h37.318l.187-.188c-3.634-.917-5.505-5.132-3.108-8.22z"/><path d="m183.528 127.154c-2.171 5.029-4.807 10.003-8.028 14.655-14.767 21.33-37.583 25.848-45.31 37.823-.478.741-1.308 1.177-2.19 1.177s-1.712-.436-2.19-1.177c-7.727-11.974-30.543-16.493-45.31-37.823-3.221-4.652-5.856-9.626-8.028-14.654-7.164 25.218-11.681 64.518 10.462 103.515 1.763 3.105.917 6.942-1.954 9.185-1.8 1.407-3.755 3.182-5.349 5.237-2.703 3.483.016 8.408 4.579 8.408h26.44c3.054 0 5.451-2.284 5.606-5.044v.011c4.898 1.758 10.196 2.743 15.744 2.743s10.846-.984 15.744-2.743c0-.004 0-.007 0-.011.155 2.76 2.552 5.044 5.606 5.044h26.44c4.562 0 7.282-4.925 4.579-8.408-1.595-2.055-3.55-3.83-5.35-5.237-2.871-2.243-3.717-6.08-1.954-9.185 22.145-39 17.628-78.3 10.463-103.516z"/></g><path d="m214.766 256h-37.318c-.666 0-1.306-.266-1.774-.739l-.187-.188c-.633-.637-.875-1.565-.635-2.43.241-.865.927-1.535 1.798-1.754 1.006-.254 1.831-.992 2.153-1.926.196-.572.286-1.442-.409-2.337-1.255-1.618-2.908-3.232-4.913-4.8-3.862-3.018-4.951-8.228-2.589-12.389 12.486-21.99 17.711-46.461 15.529-72.734-.058-.692.176-1.377.644-1.891s1.129-.809 1.823-.816c11.396-.086 19.604 3.228 24.376 9.924 6.542 9.182 6.096 24.4-1.327 45.232-.016.045-.033.089-.051.133l-10.969 25.988c4.054.232 10.226 1.327 13.895 5.55 2.871 3.305 3.675 7.763 2.388 13.25-.265 1.128-1.273 1.927-2.434 1.927zm-31.39-5h29.309c.372-2.934-.173-5.202-1.647-6.899-3.345-3.851-10.998-4.069-13.669-3.829-.875.084-1.727-.307-2.243-1.016-.519-.709-.626-1.637-.285-2.446l12.411-29.405c6.819-19.167 7.473-32.821 1.94-40.585-3.41-4.786-9.319-7.396-17.585-7.779 1.688 26.254-3.812 50.753-16.367 72.864-1.146 2.019-.604 4.479 1.319 5.98 2.331 1.822 4.277 3.731 5.785 5.674 1.589 2.046 2.021 4.61 1.186 7.032-.049.138-.099.275-.154.409z"/><path d="m78.553 256h-37.319c-1.161 0-2.169-.799-2.434-1.929-1.287-5.487-.483-9.944 2.388-13.25 3.668-4.223 9.841-5.317 13.895-5.55l-10.969-25.988c-.018-.044-.035-.088-.051-.133-7.423-20.832-7.869-36.05-1.327-45.232 4.771-6.696 12.939-10.025 24.376-9.924.694.007 1.355.302 1.823.816s.701 1.199.644 1.891c-2.182 26.273 3.043 50.745 15.529 72.734 2.362 4.161 1.273 9.372-2.589 12.39-2.005 1.567-3.658 3.182-4.914 4.799-.694.896-.604 1.765-.408 2.337.322.934 1.147 1.672 2.153 1.926.871.219 1.557.889 1.798 1.754.24.865-.002 1.793-.635 2.43l-.187.188c-.468.475-1.107.741-1.773.741zm-35.238-5h29.309c-.055-.134-.105-.271-.153-.409-.835-2.422-.403-4.986 1.185-7.032h.001c1.508-1.943 3.454-3.853 5.784-5.674 1.924-1.502 2.466-3.962 1.32-5.981-12.555-22.11-18.056-46.61-16.367-72.864-8.267.382-14.175 2.993-17.585 7.779-5.532 7.764-4.879 21.418 1.94 40.585l12.411 29.406c.341.809.233 1.737-.285 2.446-.518.708-1.368 1.095-2.243 1.016-2.676-.234-10.354.001-13.676 3.836-1.47 1.697-2.012 3.963-1.641 6.892z"/><path d="m112.188 249.802c-1.195 0-2.253-.861-2.461-2.079-.343-2.002-.819-3.684-1.418-5-1.457-3.201-2.195-6.468-2.195-9.709v-39.122c0-1.381 1.119-2.5 2.5-2.5s2.5 1.119 2.5 2.5v39.122c0 2.522.588 5.092 1.746 7.638.776 1.707 1.381 3.802 1.795 6.228.233 1.361-.682 2.653-2.043 2.886-.142.025-.284.036-.424.036z"/><path d="m143.812 249.802c-.14 0-.281-.012-.424-.036-1.361-.233-2.276-1.525-2.043-2.886.414-2.425 1.019-4.521 1.795-6.227 1.158-2.547 1.746-5.117 1.746-7.639v-39.122c0-1.381 1.119-2.5 2.5-2.5s2.5 1.119 2.5 2.5v39.122c0 3.241-.738 6.508-2.195 9.709-.599 1.315-1.075 2.997-1.418 4.999-.209 1.219-1.266 2.08-2.461 2.08z"/><path d="m175.79 256h-26.44c-3.175 0-5.942-1.765-7.272-4.354-9.141 2.741-19.016 2.741-28.154 0-1.33 2.589-4.098 4.353-7.272 4.353h-26.442c-3.183 0-6.008-1.73-7.371-4.515-1.293-2.639-.987-5.602.817-7.926 1.508-1.943 3.454-3.853 5.785-5.674 1.923-1.502 2.465-3.962 1.319-5.981-22.393-39.435-18.175-79.101-10.693-105.433.289-1.017 1.187-1.743 2.242-1.812 1.05-.066 2.04.533 2.458 1.504 2.264 5.242 4.884 10.027 7.788 14.222 8.053 11.632 18.569 18.066 27.849 23.743 7.427 4.544 13.841 8.468 17.506 14.147l2.28 1.355-2.101-1.355c3.665-5.68 10.079-9.604 17.506-14.147 9.279-5.676 19.796-12.11 27.849-23.743 2.904-4.195 5.524-8.98 7.789-14.224.419-.971 1.412-1.568 2.458-1.503 1.056.069 1.953.794 2.242 1.812 7.481 26.331 11.699 65.997-10.694 105.434-1.146 2.019-.604 4.479 1.319 5.98 2.328 1.82 4.274 3.729 5.785 5.674 1.805 2.325 2.11 5.288.817 7.927-1.362 2.786-4.187 4.516-7.37 4.516zm-32.044-10.039c1.321 0 2.42 1.027 2.494 2.355.084 1.505 1.45 2.684 3.109 2.684h26.44c1.505 0 2.476-.885 2.881-1.714.259-.528.566-1.575-.276-2.662-1.258-1.619-2.911-3.234-4.915-4.8-3.861-3.018-4.95-8.228-2.588-12.389 19.751-34.783 17.954-69.839 11.952-95.014-1.636 3.142-3.404 6.089-5.288 8.81-8.654 12.5-20.13 19.521-29.351 25.162-6.904 4.224-12.868 7.872-15.914 12.593-.938 1.454-2.543 2.322-4.291 2.322s-3.353-.868-4.291-2.321c-3.046-4.722-9.01-8.37-15.914-12.594-9.221-5.641-20.696-12.662-29.351-25.162-1.884-2.72-3.651-5.667-5.287-8.808-6.002 25.175-7.799 60.23 11.951 95.012 2.362 4.161 1.273 9.372-2.589 12.39-2.005 1.567-3.658 3.182-4.914 4.799-.843 1.086-.535 2.134-.276 2.662.405.829 1.376 1.714 2.881 1.714h26.44c1.659 0 3.025-1.179 3.109-2.684.075-1.352 1.233-2.378 2.565-2.359.354.01.688.092.988.233 9.488 3.353 19.957 3.345 29.443-.025.282-.122.592-.193.918-.202.026-.001.05-.002.074-.002z"/><path d="m215.811 62.647c1.795 12.487-2.493 16.644-8.181 28.048-4.413 8.846 2.49 15.96 10.593 16.141.021-.003.057-.002.083-.003.198-1.744.302-3.272.339-4.515.063-2.101 1.771-3.777 3.873-3.777 2.09 0 3.817 1.66 3.875 3.749.029 1.048.04 2.077.042 3.096.981-.504 1.979-1.168 2.954-2.06 22.619-20.679-14.66-48.204-13.578-40.679z" fill="#7d3d1a"/><path d="m188.922 156.629c-.004-.045-.006-.09-.01-.134 6.029-.059 11.999.909 16.745 3.769 11.182-10.492 21.556-28.267 20.736-57.973-.058-2.089-1.785-3.749-3.875-3.749-2.102 0-3.811 1.675-3.873 3.777-.303 10.14-4.979 39.078-29.892 52.345.061.649.115 1.307.169 1.965z" fill="#eaa250"/><path d="m205.655 162.763c-.443 0-.89-.118-1.289-.359-3.697-2.228-8.621-3.375-14.643-3.411-.188.063-.385.105-.591.123-1.306.118-2.467-.803-2.678-2.077-.011-.067-.02-.136-.025-.206v-.008c-.053-.643-.105-1.287-.166-1.922-.097-1.006.421-1.971 1.313-2.446 26.734-14.236 28.46-46.573 28.568-50.213.104-3.478 2.902-6.202 6.372-6.202 3.479 0 6.278 2.715 6.374 6.181.708 25.657-6.534 45.798-21.524 59.865-.475.444-1.091.675-1.711.675zm-11.302-8.528c4.141.427 7.783 1.414 10.888 2.952 13.024-12.989 19.299-31.424 18.653-54.829-.021-.727-.638-1.318-1.376-1.318-.748 0-1.352.594-1.374 1.351-.112 3.729-1.801 35.291-26.791 51.844z"/><path d="m218.223 109.335c-.019 0-.037 0-.056 0-5.314-.119-10.165-2.761-12.659-6.895-2.306-3.821-2.347-8.389-.115-12.862 1.113-2.231 2.187-4.213 3.133-5.961 3.961-7.317 6.144-11.347 4.811-20.614-.316-2.203.967-3.482 2.163-3.908 4.561-1.627 14.484 6.946 19.394 15.109 6.874 11.435 5.519 22.432-3.817 30.966-1.06.969-2.236 1.789-3.497 2.438-.773.399-1.7.365-2.444-.088s-1.198-1.261-1.199-2.132c-.001-.997-.013-2.003-.041-3.028-.021-.728-.638-1.319-1.376-1.319-.748 0-1.352.594-1.374 1.351-.043 1.43-.165 3.062-.354 4.723-.138 1.211-1.129 2.146-2.346 2.214-.019.001-.049.002-.077.003-.05.002-.098.003-.146.003zm.33-44.805c.883 9.437-1.892 14.562-5.631 21.467-.973 1.798-1.979 3.657-3.055 5.813-1.461 2.928-1.488 5.711-.078 8.047 1.254 2.08 3.588 3.612 6.263 4.208.045-.637.077-1.249.094-1.823.104-3.478 2.902-6.202 6.372-6.202 2.908 0 5.342 1.897 6.118 4.545 5.386-5.419 6.862-11.719 4.387-18.745-2.989-8.483-10.627-15.242-14.47-17.31zm-.268-2.24-2.475.357 2.475-.357c0 .001 0 .001 0 0z"/><path d="m176.71 47.233c6.583-1.347 11.536-7.172 11.536-14.153 0-7.978-6.468-14.446-14.446-14.446-7.919 0-14.342 6.373-14.437 14.269 6.574 3.764 12.438 8.621 17.347 14.33z" fill="#eaa250"/><path d="m79.29 47.233c-6.583-1.347-11.536-7.172-11.536-14.153 0-7.978 6.468-14.446 14.446-14.446 7.919 0 14.341 6.373 14.437 14.269-6.574 3.764-12.438 8.621-17.347 14.33z" fill="#eaa250"/><path d="m175.259 45.584c2.48-1.82 4.097-4.747 4.097-8.059 0-5.524-4.478-10.001-10.001-10.001-4.055 0-7.539 2.418-9.109 5.887 5.586 3.313 10.643 7.42 15.013 12.173z" fill="#f98080"/><path d="m80.741 45.584c-2.48-1.82-4.097-4.747-4.097-8.059 0-5.524 4.478-10.001 10.001-10.001 4.055 0 7.539 2.418 9.109 5.887-5.586 3.313-10.644 7.42-15.013 12.173z" fill="#f98080"/><path d="m186.093 40.648c-2.056 3.333-5.419 5.774-9.383 6.584-1.223-1.422-2.505-2.79-3.842-4.102-.012-.012-.024-.023-.036-.035-.649-.636-1.312-1.258-1.986-1.867-.029-.026-.057-.052-.086-.078-2.765-2.487-5.741-4.743-8.899-6.741-.079-.05-.159-.097-.238-.147-.745-.467-1.497-.922-2.261-1.36.096-7.896 6.519-14.269 14.437-14.269.216 0 .426.023.64.032l.561-.356c-12.08-5.798-23.45-5.988-31.986-4.641 2.066-3.123 4.417-6.097 6.856-8.051 0 0-10.858-1.85-20.492 3.935-12.486-9.362-28.072-6.703-28.072-6.703 3.141 2.518 6.166 6.401 8.796 10.439-8.135-.858-18.338-.145-29.102 5.022l.561.357c.214-.009.424-.032.64-.032 7.919 0 14.341 6.373 14.437 14.269-.764.438-1.517.893-2.261 1.36-.079.049-.159.097-.238.147-3.158 1.998-6.135 4.254-8.9 6.742-.028.025-.055.05-.083.075-.676.61-1.339 1.233-1.99 1.87-.011.011-.022.022-.033.032-1.338 1.313-2.62 2.682-3.843 4.104-3.964-.811-7.326-3.252-9.383-6.584-5.139 8.941-10.067 21.607-12.407 39.159h5s0 36 18 62c14.767 21.33 37.583 25.848 45.31 37.823.478.741 1.308 1.177 2.19 1.177s1.712-.436 2.19-1.177c7.727-11.974 30.543-16.493 45.31-37.823 18-26 18-62 18-62h5c-2.34-17.552-7.268-30.218-12.407-39.161z" fill="#7d3d1a"/><path d="m175.448 74.083c-.854-14.22-12.6-25.7-26.836-26.252-8.022-.311-15.325 2.76-20.612 7.894-5.287-5.135-12.59-8.205-20.612-7.894-14.235.552-25.982 12.031-26.836 26.252-.615 10.247 4.287 19.388 12.013 24.744 3.866 2.68 6.417 6.875 7.311 11.494l.004.019c-3.693 5.307-3.081 12.519 1.516 17.115 3.588 3.588 8.895 4.841 13.709 3.236l12.895-4.298 12.896 4.299c4.814 1.605 10.121.352 13.709-3.236 4.597-4.597 5.208-11.808 1.516-17.115l.004-.019c.894-4.619 3.445-8.814 7.311-11.494 7.725-5.357 12.627-14.498 12.012-24.745z" fill="#eaa250"/><path d="m140.694 107.38c0 3.897-6.508 9.409-12.694 9.409s-12.694-5.512-12.694-9.409 6.508-4.198 12.694-4.198 12.694.301 12.694 4.198z" fill="#7d3d1a"/><path d="m155.7 109.741c-3.794-5.149-10.521-7.084-16.416-4.865.881.601 1.411 1.406 1.411 2.504 0 3.897-6.508 9.409-12.694 9.409s-12.695-5.511-12.695-9.409c0-1.098.53-1.903 1.411-2.504-5.895-2.219-12.622-.284-16.416 4.865-3.46 4.696-3.769 11.151-.411 15.922 3.473 4.934 9.671 6.876 15.215 5.028l12.895-4.298 12.896 4.299c5.544 1.848 11.742-.094 15.215-5.028 3.357-4.771 3.049-11.226-.411-15.923z" fill="#eaa250"/><path d="m141.028 130.691-12.896-4.299-12.895 4.299c-2.367.789-4.851.881-7.194.351 3.491 7.537 11.117 12.767 19.969 12.767 8.831 0 16.443-5.206 19.945-12.714-2.265.465-4.651.355-6.929-.404z" fill="#eaa250"/><path d="m128 119.289c-7.242 0-15.194-6.232-15.194-11.909 0-6.698 9.512-6.698 15.194-6.698s15.194 0 15.194 6.698c0 5.676-7.952 11.909-15.194 11.909zm0-13.607c-9.201 0-10.194 1.188-10.194 1.698 0 2.172 5.117 6.909 10.194 6.909s10.194-4.737 10.194-6.909c0-.51-.993-1.698-10.194-1.698z"/><path d="m110.831 133.89c-4.137 0-8.161-1.624-11.203-4.667-5.175-5.174-6.114-13.147-2.416-19.356-.95-3.719-3.124-6.942-6.07-8.985-8.839-6.127-13.73-16.201-13.085-26.949.926-15.438 13.768-28 29.234-28.6 7.641-.303 14.912 2.186 20.709 7.029 5.796-4.842 13.054-7.331 20.709-7.029 15.467.6 28.309 13.162 29.234 28.6.646 10.748-4.246 20.822-13.085 26.949-2.956 2.049-5.134 5.287-6.072 8.983 3.701 6.208 2.761 14.183-2.414 19.358-4.285 4.285-10.517 5.758-16.268 3.84l-12.104-4.035-12.104 4.035c-1.667.556-3.376.826-5.065.827zm-2.321-83.581c-.341 0-.682.007-1.025.02-12.929.501-23.663 11-24.438 23.903-.539 8.99 3.552 17.416 10.942 22.54 4.328 3 7.291 7.644 8.341 13.074.129.663-.013 1.368-.398 1.922-3.016 4.336-2.498 10.19 1.231 13.92 2.938 2.937 7.21 3.946 11.15 2.632l12.896-4.298c.514-.171 1.068-.171 1.582 0l12.896 4.298c3.942 1.314 8.214.305 11.15-2.632 3.729-3.73 4.247-9.584 1.231-13.92-.392-.562-.535-1.259-.397-1.93 1.049-5.422 4.012-10.065 8.34-13.065 7.391-5.124 11.481-13.55 10.942-22.54-.774-12.903-11.509-23.402-24.438-23.903-7.046-.271-13.718 2.279-18.773 7.189-.971.942-2.514.942-3.484 0-4.81-4.671-11.078-7.21-17.748-7.21z"/><path d="m145.177 133.891c-1.686 0-3.396-.27-5.072-.829l-12.105-4.034-12.104 4.035c-6.717 2.236-13.967-.158-18.051-5.961-3.928-5.58-3.75-13.153.442-18.844 4.412-5.988 12.355-8.338 19.311-5.722.873.329 1.49 1.116 1.602 2.042s-.303 1.837-1.073 2.363c-.32.219-.32.311-.32.439 0 2.172 5.117 6.909 10.194 6.909s10.194-4.737 10.194-6.909c0-.128 0-.22-.32-.439-.771-.526-1.185-1.437-1.073-2.363s.729-1.713 1.602-2.042c6.958-2.619 14.896-.266 19.31 5.722h.001c4.192 5.691 4.37 13.264.441 18.844-3.065 4.354-7.914 6.789-12.979 6.789zm-17.177-9.998c.267 0 .534.043.791.128l12.896 4.298c4.6 1.532 9.576-.111 12.38-4.095 2.688-3.819 2.536-9.043-.379-13-2.475-3.358-6.53-5.085-10.557-4.697.046.301.063.588.063.853 0 5.676-7.952 11.909-15.194 11.909s-15.194-6.232-15.194-11.909c0-.265.018-.551.063-.853-4.016-.386-8.081 1.337-10.557 4.696-2.915 3.957-3.067 9.181-.38 13 2.805 3.983 7.78 5.629 12.381 4.096l12.896-4.298c.257-.085.524-.128.791-.128z"/><path d="m128 128.809c-1.381 0-2.5-1.119-2.5-2.5v-8c0-1.381 1.119-2.5 2.5-2.5s2.5 1.119 2.5 2.5v8c0 1.381-1.119 2.5-2.5 2.5z"/><path d="m128.012 146.309c-9.508 0-18.236-5.58-22.237-14.216-.4-.865-.274-1.882.324-2.623s1.568-1.079 2.497-.866c1.946.44 3.971.342 5.851-.285l12.896-4.298c.514-.171 1.068-.171 1.582 0l12.896 4.298c1.801.601 3.747.713 5.634.327.922-.192 1.879.158 2.465.899.586.742.703 1.75.304 2.606-4.012 8.601-12.731 14.158-22.212 14.158zm-15.376-12.517c3.651 4.667 9.315 7.517 15.376 7.517 6.069 0 11.746-2.861 15.396-7.543-1.076-.125-2.14-.359-3.171-.703l-12.104-4.035-12.104 4.035c-1.105.368-2.243.611-3.393.729z"/><path d="m118.942 105.461c-.396 0-.799-.094-1.173-.293-1.219-.649-1.681-2.163-1.032-3.382 6.302-11.84.063-23.834 0-23.954-.648-1.219-.187-2.733 1.032-3.382 1.218-.649 2.731-.187 3.382 1.032.312.585 7.538 14.489 0 28.653-.449.845-1.314 1.326-2.209 1.326z"/><path d="m137.058 105.461c-.895 0-1.76-.481-2.209-1.326-7.538-14.164-.312-28.068 0-28.653.648-1.218 2.164-1.681 3.382-1.032 1.217.648 1.68 2.159 1.034 3.377-.092.177-6.251 12.217-.002 23.958.648 1.219.187 2.733-1.032 3.382-.375.2-.777.294-1.173.294z"/><path d="m99.166 81.934c-1.377 0-2.495-1.114-2.5-2.492-.007-2.109.808-4.094 2.294-5.59s3.467-2.324 5.575-2.33h.026c2.099 0 4.072.814 5.562 2.294 1.495 1.486 2.323 3.466 2.33 5.574.005 1.381-1.111 2.504-2.492 2.508-.002 0-.005 0-.008 0-1.377 0-2.495-1.114-2.5-2.492-.003-.773-.306-1.499-.854-2.044-.546-.542-1.27-.841-2.039-.841-.003 0-.006 0-.01 0-.773.002-1.499.306-2.044.854s-.844 1.276-.841 2.049c.005 1.381-1.111 2.504-2.492 2.508-.001.002-.004.002-.007.002z"/><path d="m146.046 81.934c-1.377 0-2.495-1.114-2.5-2.492-.007-2.109.808-4.094 2.294-5.59s3.467-2.324 5.575-2.33h.026c2.099 0 4.073.814 5.562 2.294 1.495 1.486 2.323 3.466 2.33 5.574.005 1.381-1.111 2.504-2.492 2.508-.002 0-.005 0-.008 0-1.377 0-2.495-1.114-2.5-2.492-.003-.773-.306-1.499-.854-2.044-.546-.542-1.27-.841-2.039-.841-.003 0-.006 0-.01 0-.773.002-1.499.306-2.044.854s-.844 1.276-.841 2.049c.005 1.381-1.111 2.504-2.492 2.508-.001.002-.004.002-.007.002z"/><path d="m128 183.309c-1.748 0-3.353-.868-4.291-2.321-3.046-4.722-9.01-8.37-15.914-12.594-9.221-5.641-20.696-12.662-29.351-25.162-15.691-22.666-18.035-52.175-18.384-60.923h-2.56c-.721 0-1.406-.311-1.881-.853s-.692-1.263-.598-1.978c2.067-15.505 6.347-28.989 12.718-40.076.439-.764 1.248-1.24 2.129-1.254.881-.018 1.704.437 2.167 1.187 1.483 2.404 3.769 4.206 6.4 5.084.95-1.055 1.938-2.085 2.946-3.075.709-.695 1.398-1.341 2.1-1.974l.089-.081c2.865-2.577 5.973-4.93 9.232-6.993l.252-.155c.325-.204.653-.407.983-.607-.765-5.849-5.808-10.4-11.838-10.4-.078 0-.155.007-.232.012l-.299.018c-.513.022-1.019-.113-1.451-.389l-.561-.357c-.766-.488-1.207-1.352-1.152-2.258.054-.906.595-1.711 1.413-2.104 7.991-3.835 16.458-5.712 25.157-5.573-1.856-2.424-3.642-4.327-5.332-5.682-.769-.616-1.104-1.625-.856-2.578.246-.953 1.029-1.672 2-1.837.654-.113 15.729-2.553 28.651 6.211 9.9-5.209 20.295-3.521 20.752-3.443.971.165 1.753.885 2 1.837.247.953-.088 1.962-.856 2.578-.965.773-1.972 1.776-3.013 3 9.602-.572 18.873 1.27 27.661 5.487.818.393 1.359 1.198 1.413 2.104.055.906-.387 1.771-1.152 2.258l-.561.357c-.433.275-.941.41-1.451.389l-.299-.018c-.077-.005-.154-.012-.233-.012-6.03 0-11.072 4.551-11.837 10.4.331.201.661.405.989.611l.253.156c3.25 2.055 6.356 4.409 9.228 6.99.001.001.088.08.089.081.7.632 1.387 1.277 2.062 1.938 1.038 1.02 2.032 2.057 2.982 3.11 2.632-.879 4.917-2.68 6.4-5.084.463-.749 1.307-1.208 2.167-1.187.881.014 1.689.49 2.129 1.254 6.371 11.087 10.65 24.57 12.718 40.076.095.714-.123 1.435-.598 1.978-.475.542-1.16.853-1.881.853h-2.561c-.349 8.748-2.692 38.257-18.384 60.923-8.654 12.5-20.13 19.521-29.351 25.162-6.904 4.224-12.868 7.872-15.914 12.593-.936 1.453-2.541 2.321-4.289 2.321zm-67.615-106h2.115c1.38 0 2.499 1.119 2.5 2.499 0 .353.227 35.547 17.556 60.578 8.053 11.632 18.569 18.066 27.849 23.743 7.427 4.544 13.841 8.468 17.506 14.147l2.28 1.355-2.101-1.355c3.665-5.68 10.079-9.604 17.506-14.147 9.279-5.676 19.796-12.11 27.849-23.743 17.354-25.068 17.555-60.225 17.555-60.577 0-1.381 1.119-2.5 2.5-2.5h2.115c-1.877-12.199-5.208-22.991-9.927-32.171-2.318 2.287-5.266 3.887-8.478 4.544-.893.183-1.805-.132-2.396-.819-1.166-1.356-2.41-2.685-3.697-3.948-.659-.646-1.297-1.245-1.946-1.831l1.589-1.934-1.672 1.859c-2.662-2.394-5.543-4.576-8.563-6.487l-.224-.138c-.722-.453-1.446-.891-2.182-1.312-.786-.451-1.268-1.293-1.257-2.2.081-6.692 4.098-12.479 9.817-15.156-7.47-2.311-15.27-2.842-23.276-1.579-.971.156-1.956-.283-2.492-1.117-.536-.833-.529-1.905.018-2.731 1.087-1.644 2.165-3.116 3.229-4.412-3.695.165-8.788.994-13.492 3.819-.871.523-1.974.467-2.787-.143-7.139-5.353-15.499-6.464-20.811-6.536 1.68 1.936 3.394 4.243 5.129 6.906.526.808.541 1.847.037 2.67s-1.434 1.279-2.395 1.181c-7.048-.745-13.921-.09-20.515 1.945 5.717 2.677 9.731 8.463 9.812 15.154.011.907-.471 1.749-1.257 2.2-.735.421-1.46.859-2.176 1.308l-.23.143c-3.022 1.912-5.904 4.094-8.563 6.486l-1.755-1.783 1.675 1.856c-.65.587-1.289 1.187-1.915 1.8-1.315 1.29-2.56 2.619-3.73 3.98-.591.688-1.504 1.002-2.396.819-3.212-.657-6.159-2.257-8.478-4.544-4.718 9.18-8.048 19.972-9.926 32.171z"/><path d="m176.71 49.733c-.721 0-1.415-.312-1.896-.87-4.759-5.533-10.375-10.173-16.694-13.791-.787-.451-1.269-1.292-1.258-2.2.112-9.23 7.71-16.739 16.938-16.739 9.344 0 16.946 7.602 16.946 16.946 0 8.016-5.692 14.998-13.535 16.602-.167.035-.335.052-.501.052zm-14.748-18.202c5.814 3.507 11.053 7.834 15.604 12.89 4.814-1.599 8.181-6.164 8.181-11.341 0-6.587-5.359-11.946-11.946-11.946-6.03 0-11.072 4.55-11.839 10.397z"/><path d="m79.29 49.733c-.166 0-.334-.017-.501-.051-7.843-1.604-13.535-8.586-13.535-16.602 0-9.344 7.603-16.946 16.946-16.946 9.228 0 16.825 7.509 16.938 16.739.011.907-.471 1.749-1.258 2.2-6.319 3.618-11.936 8.257-16.694 13.791-.481.557-1.176.869-1.896.869zm2.91-28.599c-6.587 0-11.946 5.359-11.946 11.946 0 5.177 3.366 9.742 8.181 11.341 4.551-5.056 9.789-9.383 15.604-12.89-.768-5.847-5.81-10.397-11.839-10.397z"/><path d="m175.26 48.084c-.679 0-1.352-.275-1.842-.808-4.217-4.588-9.078-8.53-14.448-11.715-1.096-.65-1.527-2.021-1.002-3.181 2.022-4.469 6.492-7.357 11.387-7.357 6.893 0 12.501 5.608 12.501 12.501 0 3.957-1.913 7.724-5.117 10.075-.445.326-.964.485-1.479.485zm-11.561-15.476c4.215 2.716 8.115 5.878 11.638 9.437.98-1.284 1.519-2.854 1.519-4.521 0-4.136-3.365-7.501-7.501-7.501-2.197 0-4.251.972-5.656 2.585z"/><path d="m80.74 48.084c-.516 0-1.034-.159-1.479-.484-3.204-2.352-5.117-6.118-5.117-10.075 0-6.894 5.608-12.501 12.501-12.501 4.895 0 9.364 2.888 11.387 7.357.525 1.161.094 2.531-1.002 3.181-5.369 3.184-10.23 7.125-14.448 11.715-.49.532-1.163.807-1.842.807zm5.906-18.061c-4.136 0-7.501 3.365-7.501 7.501 0 1.667.538 3.236 1.519 4.521 3.523-3.56 7.423-6.722 11.638-9.437-1.406-1.613-3.46-2.585-5.656-2.585z"/></svg>