<svg enable-background="new 0 0 256 256" height="512" viewBox="0 0 256 256" width="512" xmlns="http://www.w3.org/2000/svg"><path d="m145.096 75.95c-3.1-4.064-5.319-8.76-6.434-13.748-5.59-24.996-26.032-43.533-50.406-43.533-24.373 0-44.816 18.537-50.406 43.533-1.115 4.988-3.334 9.684-6.434 13.748-3.634 4.765-5.794 10.715-5.794 17.171 0 10.047 5.236 18.835 13.086 23.871.929-1.453 2.162-2.836 3.785-4.059.773-.583 1.867-.485 2.551.199l2.71 2.71c.746.746.768 1.941.054 2.719-.451.491-.988 1.119-1.553 1.842.938.265 1.89.498 2.865.666 4.897.845 9.662 2.397 13.893 5.004 7.472 4.603 16.078 7.23 25.243 7.23s17.771-2.628 25.243-7.23c4.231-2.606 8.996-4.159 13.894-5.004 13.309-2.295 23.497-13.91 23.497-27.947.001-6.457-2.159-12.406-5.794-17.172z" fill="#f4dbce"/><path d="m88.256 98.781c0 3.885-2.677 7.137-6.285 8.034v3.534c0 1.929 1.578 3.507 3.507 3.507h5.557c1.929 0 3.507-1.578 3.507-3.507v-3.534c-3.608-.897-6.286-4.148-6.286-8.034z" fill="#e3e4e5"/><path d="m79.808 193.912c3.777-13.218 13.533-19.198 22.975-18.884 0 0-4.081-3.929-8.198-11.077-14.921 6.868-31.64 3.688-40.385-.201-5.618 24.078-4.365 50.859 21.472 64.442 4.24.1 9.145.509 14.872 1.33 0-.001-18.289-9.173-10.736-35.61z" fill="#f4dbce"/><path d="m51.483 152.997c-2.622-6.118.215-7.379 2.196-7.58.474-3.522.97-10.674-2.825-10.674-5.036 0-3.777 5.036-6.295 5.036s-5.036-5.036-8.812-5.036c-3.684 0-14.535 22.747 11.806 23.865-1.673-3.739 3.93-5.611 3.93-5.611z" fill="#f4dbce"/><path d="m102.215 84.099c0 4.285-7.156 10.345-13.958 10.345s-13.958-6.06-13.958-10.345 7.156-4.616 13.958-4.616c6.801.001 13.958.331 13.958 4.616z" fill="#f98080"/><g fill="#9e512b"><path d="m128.276 155.515c-9.734-9.734-13.703-20.998-15.31-29.138-7.349 4.404-15.758 6.925-24.709 6.925-.699 0-1.388-.044-2.081-.074.028 4.398.521 8.506 1.323 12.294-7.603 3.159-18.853 5.277-32.239-.077 0 0-7.553-1.259-3.777 7.553 0 0-7.553 2.518-2.518 7.553 4.549 4.549 26.56 12.174 45.62 3.4 4.117 7.148 8.198 11.077 8.198 11.077-9.442-.315-19.198 5.665-22.975 18.884-7.553 26.437 10.736 35.61 10.736 35.61-42.941-6.157-40.95 10.268-40.95 14.746 0 5.036 7.553 13.848 22.66 6.295s51.552 10.134 64.204-2.518c3.075-3.075 3.803-7.089 3.903-9.749.073-1.917.803-3.75 2.102-5.162 35.242-38.31-14.187-77.619-14.187-77.619z"/><path d="m75.672 228.192c-4.231-2.224-7.791-4.808-10.781-7.67-35.934-3.53-34.18 11.336-34.18 15.563 0 4.596 6.296 12.331 18.881 7.905-.05-4.173-.862-16.432 26.08-15.798z"/><path d="m133.46 47.801c4.67-1.292 9.201-3.995 12.861-8.066 9.068-10.084 9.38-24.59.696-32.399-8.684-7.809-23.075-5.964-32.144 4.121-3.187 3.544-5.268 7.636-6.282 11.79 10.533 4.955 19.274 13.639 24.869 24.554z"/><path d="m43.053 47.801c5.596-10.915 14.336-19.598 24.868-24.554-1.013-4.154-3.095-8.246-6.282-11.79-9.069-10.086-23.46-11.93-32.144-4.122-8.684 7.809-8.372 22.315.696 32.399 3.661 4.072 8.192 6.774 12.862 8.067z"/><path d="m243.034 46.916c-11.257-20.321-34.357-33.483-57.578-32.805-11.562.337-22.354 4.441-32.251 10.345-.514 5.313-2.805 10.743-6.884 15.279-3.661 4.071-8.191 6.774-12.861 8.066 2.289 4.465 4.06 9.295 5.202 14.402 1.116 4.988 3.335 9.684 6.434 13.748 3.635 4.765 5.794 10.715 5.794 17.171 0 10.624-5.842 19.852-14.451 24.711 8.21 13.446 18.99 25.481 28.946 37.801 4.704 5.821 9.503 12.233 9.955 19.704.376 6.212-2.368 12.224-5.9 17.349-3.893 5.649-8.846 10.546-14.485 14.453-.727 7.628-3.795 15.612-10.405 23.591 1.927-.519 3.853-1.038 5.78-1.557 14.412-3.882 29.143-7.909 41.409-16.414 12.266-8.504 21.795-22.51 20.828-37.404-.99-15.241-12.472-27.291-21.29-39.762-33.77-47.757.461-59.426 11.33-61.834-5.203 6.368-7.378 15.057-5.09 23.608 3.78 14.125 18.294 22.511 32.419 18.731 11.956-3.2 20.272-13.589 22.8-25.928 2.8-14.618-2.481-30.218-9.702-43.255z"/><path d="m128.631 39.968c-9.517-12.987-24.061-21.299-40.375-21.299-16.358 0-30.938 8.358-40.453 21.406 34.914-10.987 34.855 23.81 33.121 39.731 2.238-.276 4.808-.323 7.332-.323 2.627 0 5.303.053 7.603.36-1.732-15.851-1.824-50.533 32.772-39.875z"/></g><path d="m132.464 45.939c13.124-2.062 20.031-19.001 10.807-27.295-8.088-7.273-22.318-1.547-25.458 10.227 5.884 4.508 10.881 10.323 14.651 17.068z" fill="#c16a44"/><path d="m44.049 45.939c3.769-6.745 8.766-12.559 14.651-17.068-3.14-11.772-17.369-17.501-25.458-10.227-9.19 8.264-2.354 25.228 10.807 27.295z" fill="#c16a44"/><path d="m35.747 134.743c3.777 0 6.295 5.036 8.812 5.036 2.518 0 1.259-5.036 6.295-5.036 2.688 0 3.221 3.586 3.136 6.93 1.914-.075 3.446-1.639 3.446-3.572v-.346c0-5.767-4.718-10.485-10.485-10.485h-3.799c-.391 0-.668-.397-.52-.759 1.45-3.544 3.737-6.383 5.177-7.951.714-.778.692-1.973-.054-2.719l-2.71-2.71c-.684-.684-1.778-.782-2.551-.199-5.216 3.934-6.41 9.511-6.415 13.78-.001.308-.245.558-.554.558h-3.428c-5.767 0-10.485 4.718-10.485 10.485v.346c0 1.981 1.606 3.586 3.586 3.586h5.812c1.095-3.906 3.391-6.944 4.737-6.944z" fill="#9e512b"/><path d="m48.965 160.551c-.696-.696-1.145-1.342-1.413-1.942-16.721-.71-18.449-10.131-16.543-16.921h-5.812c-.252 0-.497-.027-.734-.076-8.805 24.281 7.76 30.381 13.328 31.713 1.143.273 2.322.273 3.464 0 3.163-.757 9.869-3.057 13.463-9.349-2.686-1.146-4.696-2.368-5.753-3.425z" fill="#ffc097"/><path d="m108.765 235.438c-.181 0-.365-.02-.55-.061-6.513-1.462-12.578-2.6-18.025-3.381-1.367-.196-2.316-1.463-2.12-2.83.195-1.367 1.463-2.32 2.829-2.12 5.577.799 11.771 1.961 18.412 3.451 1.347.303 2.194 1.64 1.892 2.987-.262 1.164-1.294 1.954-2.438 1.954z"/><path d="m123.867 196.412c-1.156 0-2.195-.808-2.443-1.985-2.097-9.957-9.446-16.591-18.724-16.9-1.38-.046-2.462-1.202-2.416-2.582.047-1.38 1.213-2.461 2.582-2.416 11.479.382 20.902 8.768 23.45 20.867.284 1.351-.58 2.677-1.931 2.961-.173.038-.347.055-.518.055z"/><path d="m75.315 170.468c-13.188 0-24.64-4.671-28.118-8.149-2.545-2.545-2.667-4.825-2.321-6.29.482-2.046 2.09-3.442 3.499-4.304-.78-2.775-.534-4.995.74-6.618 2.173-2.768 6.113-2.202 6.556-2.129.177.029.351.078.518.145 17.414 6.966 30.864.705 37.331-3.647 1.144-.77 2.697-.467 3.47.678.771 1.146.467 2.699-.679 3.47-5.835 3.928-21.537 12.17-41.671 4.264-.617-.047-1.41.07-1.593.309-.161.209-.344 1.303.733 3.816.275.643.27 1.371-.018 2.009-.286.638-.826 1.126-1.489 1.347-1.057.363-2.398 1.235-2.532 1.811-.055.239.231.843.991 1.604 3.872 3.87 28.845 13.175 48.432-.292 1.136-.782 2.692-.495 3.477.644.782 1.138.493 2.694-.645 3.477-8.445 5.804-17.944 7.855-26.681 7.855z"/><path d="m61.41 255.989c-3.907 0-6.695-1.194-8.383-2.238-3.604-2.228-5.933-5.95-5.933-9.483l-.006-.536c-.041-2.599-.126-8.008 4.758-12.309 5.592-4.924 15.704-6.687 30.801-5.348-4.943-5.73-10.014-16.152-5.242-32.851 3.139-10.989 10.8-18.5 20.226-20.294-1.197-1.52-2.608-3.468-4.068-5.819-19.596 7.842-41.183.39-46.365-4.792-2.545-2.545-2.667-4.825-2.321-6.289.482-2.046 2.09-3.442 3.499-4.304-.78-2.775-.534-4.995.74-6.618 2.173-2.768 6.113-2.202 6.556-2.129.177.029.351.078.518.145 11.725 4.69 21.68 3.235 28.458.82-.621-3.519-.947-7.108-.971-10.7-.004-.685.272-1.342.766-1.817.494-.476 1.159-.725 1.846-.697l.489.023c.492.024.983.049 1.48.049 8.152 0 16.252-2.271 23.424-6.569.697-.418 1.555-.471 2.3-.14.744.33 1.28 1.002 1.438 1.8 1.48 7.495 5.202 18.382 14.53 27.759 2.106 1.703 25.596 21.221 27.562 46.493.967 12.436-3.476 24.104-13.206 34.681-.88.957-1.393 2.223-1.443 3.564-.121 3.219-1.024 7.813-4.634 11.422-7.838 7.838-22.665 5.536-37.002 3.31-10.692-1.66-21.746-3.377-27.852-.324-4.76 2.379-8.743 3.191-11.965 3.191zm12.298-25.327c-10.72 0-15.979 2.244-18.558 4.514-3.151 2.775-3.098 6.207-3.062 8.478l.007.614c0 1.505 1.224 3.785 3.562 5.23 3.791 2.342 9.287 1.926 15.48-1.171 7.535-3.767 18.861-2.008 30.854-.146 13.105 2.035 26.656 4.139 32.7-1.904 2.463-2.463 3.085-5.751 3.173-8.076.095-2.528 1.075-4.929 2.76-6.76 8.752-9.514 12.756-19.913 11.9-30.908-1.848-23.751-25.565-42.871-25.805-43.061-.074-.059-.146-.122-.212-.189-8.97-8.971-13.228-19.194-15.244-27.102-7.031 3.61-14.741 5.54-22.515 5.618.156 3.103.557 6.188 1.195 9.204.25 1.177-.375 2.365-1.486 2.827-7.545 3.135-19.516 5.674-33.818.057-.617-.047-1.41.07-1.593.309-.161.209-.344 1.303.733 3.816.275.643.27 1.371-.018 2.009-.286.638-.826 1.126-1.489 1.347-1.057.363-2.398 1.235-2.532 1.811-.055.239.231.843.991 1.604 3.978 3.977 24.872 11.151 42.808 2.897 1.171-.54 2.566-.098 3.211 1.023 3.866 6.711 7.73 10.489 7.769 10.526.743.719.968 1.822.563 2.774-.403.951-1.371 1.566-2.383 1.523-7.479-.231-16.782 4.104-20.487 17.071-6.858 24.001 8.793 32.35 9.462 32.694 1.087.558 1.616 1.822 1.246 2.985-.371 1.165-1.529 1.892-2.731 1.719-6.579-.942-12.006-1.333-16.481-1.333z"/><path d="m42.534 247.805c-4.41 0-7.433-1.529-9.121-2.725-3.16-2.238-5.202-5.769-5.202-8.995l-.006-.53c-.039-2.536-.12-7.814 4.514-12.08 5.697-5.245 16.302-7.025 32.416-5.441.558.055 1.08.295 1.484.682 2.91 2.786 6.348 5.229 10.216 7.263 1.028.541 1.548 1.717 1.257 2.84-.291 1.125-1.367 1.892-2.479 1.872-10.189-.246-17.417 1.452-20.888 4.895-2.721 2.7-2.671 5.932-2.639 8.071l.005.304c.013 1.072-.659 2.032-1.671 2.388-2.997 1.054-5.624 1.456-7.886 1.456zm12.326-25.317c-11.055 0-16.283 2.39-18.756 4.666-2.985 2.75-2.934 6.104-2.9 8.325l.007.607c0 1.312.968 3.41 3.092 4.915 2.703 1.915 6.488 2.311 10.787 1.152.077-2.68.658-6.687 4.115-10.116 3.37-3.343 8.813-5.38 16.232-6.086-1.275-.958-2.488-1.965-3.634-3.02-3.338-.307-6.307-.443-8.943-.443z"/><path d="m31.009 144.188h-5.812c-3.355 0-6.086-2.73-6.086-6.086v-.346c0-7.16 5.825-12.985 12.985-12.985h1.56c.354-4.402 2.026-9.833 7.332-13.834 1.754-1.323 4.258-1.139 5.824.428l2.71 2.709c1.695 1.697 1.751 4.41.128 6.178-.838.912-2.177 2.506-3.362 4.519h.662c7.16 0 12.985 5.825 12.985 12.985v.346c0 3.276-2.569 5.942-5.849 6.07-.704.034-1.361-.233-1.854-.718s-.761-1.152-.743-1.843c.092-3.626-.677-4.399-.684-4.406-1.297.039-1.477.433-2.073 1.738-.533 1.166-1.525 3.337-4.175 3.337-2.09 0-3.661-1.413-5.181-2.778-1.108-.996-2.25-2.023-3.283-2.223-.617.554-1.916 2.366-2.679 5.085-.301 1.078-1.285 1.824-2.405 1.824zm1.088-14.417c-4.403 0-7.985 3.582-7.985 7.985v.346c0 .599.487 1.086 1.086 1.086h4.02c1.277-3.266 3.652-6.944 6.529-6.944 3.038 0 5.221 1.962 6.975 3.539.416.374.975.876 1.411 1.198.019-.041.037-.08.054-.117.686-1.5 2.112-4.62 6.668-4.62.864 0 1.67.202 2.382.593-1.463-1.865-3.736-3.065-6.285-3.065h-3.799c-1.021 0-1.972-.507-2.542-1.357-.567-.845-.676-1.911-.291-2.85 1.45-3.544 3.624-6.424 5.307-8.315l-2.016-2.016c-3.334 2.698-5.025 6.559-5.031 11.483-.005 1.687-1.375 3.055-3.054 3.055h-3.429z"/><path d="m39.523 176.031c-.773 0-1.546-.092-2.313-.275-3.242-.776-11.221-3.397-15.292-10.958-3.38-6.276-3.313-14.364.194-24.039.424-1.168 1.639-1.85 2.859-1.596.077.016.151.024.226.024h5.812c.782 0 1.52.366 1.992.99s.626 1.433.415 2.186c-.557 1.98-1.162 5.753 1.027 8.772 2.16 2.979 6.729 4.7 13.215 4.975.946.04 1.788.612 2.176 1.477.157.351.468.765.898 1.195.848.847 2.704 1.929 4.967 2.894.656.28 1.162.827 1.389 1.503.228.676.155 1.417-.198 2.037-4.143 7.251-11.906 9.786-15.052 10.54-.768.183-1.542.275-2.315.275zm-13.301-31.843c-2.42 7.491-2.389 13.622.099 18.24 3.113 5.782 9.466 7.847 12.053 8.466.762.182 1.538.182 2.302 0 2.144-.513 6.962-2.044 10.302-5.934-1.393-.747-2.782-1.644-3.779-2.64-.429-.429-.798-.857-1.112-1.29-7.459-.542-12.733-2.88-15.689-6.958-1.983-2.736-2.806-6.167-2.411-9.883h-1.765z"/><path d="m96.544 109.569c-5.948 0-10.787-4.839-10.787-10.788v-3.654c0-1.381 1.119-2.5 2.5-2.5s2.5 1.119 2.5 2.5v3.654c0 3.191 2.596 5.788 5.787 5.788s5.788-2.597 5.788-5.788c0-1.381 1.119-2.5 2.5-2.5s2.5 1.119 2.5 2.5c0 5.949-4.84 10.788-10.788 10.788z"/><path d="m79.969 109.569c-5.948 0-10.788-4.839-10.788-10.788 0-1.381 1.119-2.5 2.5-2.5s2.5 1.119 2.5 2.5c0 3.191 2.597 5.788 5.788 5.788s5.788-2.597 5.788-5.788v-3.654c0-1.381 1.119-2.5 2.5-2.5s2.5 1.119 2.5 2.5v3.654c0 5.949-4.84 10.788-10.788 10.788z"/><path d="m133.46 50.301c-.92 0-1.789-.509-2.225-1.36-5.35-10.434-13.769-18.756-23.707-23.433-1.075-.506-1.646-1.7-1.364-2.854 1.148-4.711 3.518-9.162 6.851-12.869 9.977-11.093 25.98-13.026 35.675-4.308s9.466 24.836-.509 35.929c-3.849 4.28-8.708 7.325-14.054 8.804-.222.061-.446.091-.667.091zm-21.889-28.366c9.502 4.966 17.598 12.97 23.108 22.847 3.684-1.367 7.035-3.663 9.782-6.719 8.133-9.043 8.528-21.994.884-28.869-7.646-6.875-20.482-5.11-28.612 3.934-2.327 2.588-4.089 5.601-5.162 8.807z"/><path d="m43.053 50.301c-.221 0-.445-.03-.667-.091-5.345-1.479-10.204-4.523-14.054-8.804-9.975-11.093-10.203-27.211-.509-35.93 9.696-8.716 25.698-6.786 35.675 4.309 3.332 3.705 5.701 8.155 6.852 12.869.282 1.155-.289 2.349-1.364 2.855-9.939 4.677-18.358 12.999-23.708 23.433-.436.85-1.305 1.359-2.225 1.359zm-.51-45.299c-4.212 0-8.232 1.366-11.376 4.192-7.645 6.875-7.249 19.825.884 28.869 2.747 3.056 6.1 5.353 9.782 6.719 5.511-9.878 13.607-17.882 23.108-22.847-1.073-3.207-2.835-6.22-5.161-8.807-4.789-5.325-11.208-8.126-17.237-8.126z"/><path d="m88.257 135.802c-9.299 0-18.481-2.628-26.555-7.602-3.629-2.235-8.005-3.806-13.007-4.668-.963-.166-1.983-.402-3.12-.724-.801-.227-1.437-.837-1.695-1.629-.259-.791-.106-1.66.405-2.316.438-.561.896-1.111 1.341-1.615l-2.017-2.016c-1.113.902-2.052 1.945-2.795 3.106-.357.559-.922.953-1.57 1.095-.65.142-1.327.021-1.885-.337-8.915-5.719-14.237-15.43-14.237-25.976 0-6.815 2.181-13.277 6.307-18.687 2.893-3.792 4.961-8.21 5.982-12.777 5.989-26.782 27.72-45.487 52.846-45.487 25.125 0 46.855 18.705 52.845 45.487 1.021 4.566 3.09 8.984 5.983 12.777 4.125 5.41 6.306 11.872 6.306 18.687 0 15.065-10.755 27.854-25.572 30.411-5.002.862-9.378 2.433-13.008 4.668-8.075 4.974-17.256 7.603-26.554 7.603zm-37.707-17.014c5.222 1.006 9.852 2.739 13.775 5.156 7.283 4.487 15.56 6.858 23.932 6.858 8.371 0 16.646-2.372 23.932-6.859 4.175-2.571 9.147-4.367 14.78-5.339 12.413-2.141 21.422-12.858 21.422-25.483 0-5.71-1.826-11.123-5.282-15.655-3.327-4.363-5.709-9.453-6.886-14.719-5.475-24.48-25.199-41.578-47.966-41.578-22.768 0-42.492 17.098-47.967 41.578-1.178 5.267-3.559 10.357-6.885 14.719-3.456 4.531-5.283 9.944-5.283 15.655 0 8.062 3.717 15.544 10.047 20.435.834-.957 1.776-1.833 2.818-2.619 1.754-1.324 4.259-1.14 5.825.428l2.71 2.709c1.274 1.275 1.623 3.123 1.028 4.714z"/><path d="m108.376 75.955c-1.377 0-2.495-1.114-2.5-2.492-.016-5.042 4.073-9.159 9.116-9.176h.03c5.03 0 9.131 4.084 9.146 9.118.005 1.38-1.111 2.503-2.492 2.508-.003 0-.005 0-.008 0-1.377 0-2.495-1.114-2.5-2.492-.007-2.282-1.866-4.133-4.146-4.133-.005 0-.009 0-.014 0-2.286.008-4.14 1.874-4.133 4.16.005 1.38-1.111 2.503-2.492 2.508-.002-.001-.004-.001-.007-.001z"/><path d="m67.968 75.934c-1.381 0-2.5-1.119-2.5-2.5 0-2.287-1.86-4.147-4.146-4.147s-4.146 1.86-4.146 4.147c0 1.381-1.119 2.5-2.5 2.5s-2.5-1.119-2.5-2.5c0-5.043 4.104-9.147 9.146-9.147s9.146 4.104 9.146 9.147c0 1.38-1.119 2.5-2.5 2.5z"/><path d="m226.312 81.082c-.626 0-1.253-.233-1.738-.703-8.288-8.02-21.112-4.266-21.242-4.227-1.323.4-2.718-.348-3.116-1.669-.4-1.322.348-2.717 1.669-3.117.641-.193 15.787-4.621 26.166 5.419.992.96 1.019 2.543.059 3.535-.492.507-1.145.762-1.798.762z"/><path d="m144.551 233.23c-.836 0-1.636-.42-2.104-1.148-.589-.916-.517-2.108.179-2.947 5.791-6.989 9.102-14.47 9.842-22.233.069-.733.459-1.399 1.064-1.818 5.496-3.808 10.156-8.456 13.85-13.816 3.915-5.68 5.754-10.989 5.464-15.78-.402-6.635-4.678-12.435-9.404-18.284-2.19-2.71-4.422-5.407-6.656-8.108-7.859-9.503-15.987-19.329-22.479-29.961-.354-.579-.456-1.276-.286-1.932.171-.656.601-1.215 1.191-1.548 8.13-4.588 13.18-13.222 13.18-22.533 0-5.71-1.826-11.123-5.282-15.655-3.327-4.363-5.709-9.453-6.886-14.719-1.075-4.803-2.753-9.448-4.987-13.807-.343-.669-.367-1.457-.064-2.145.302-.688.897-1.205 1.622-1.405 4.426-1.225 8.46-3.758 11.669-7.328 3.552-3.95 5.773-8.868 6.255-13.849.076-.791.524-1.499 1.207-1.906 11.528-6.877 22.474-10.376 33.459-10.697 24.137-.694 48.153 12.999 59.838 34.093 6.298 11.369 13.14 28.394 9.972 44.936-2.85 13.904-12.277 24.572-24.609 27.872-7.476 2.001-15.284.971-21.986-2.901-6.701-3.872-11.494-10.122-13.494-17.598-1.796-6.709-1.083-13.805 1.854-19.971-5.927 2.234-13.271 6.478-16.276 14.254-3.975 10.29.277 24.372 12.639 41.853 1.635 2.312 3.407 4.668 5.12 6.947 7.754 10.311 15.771 20.974 16.624 34.096 1.119 17.242-10.578 31.772-21.898 39.621-12.759 8.847-28.391 13.058-42.183 16.773l-5.779 1.557c-.222.06-.44.087-.656.087zm12.767-24.699c-.771 6.209-2.98 12.218-6.588 17.945 13.727-3.701 27.837-7.626 39.584-15.771 10.197-7.07 20.742-20.027 19.758-35.188-.755-11.634-8.316-21.69-15.63-31.416-1.735-2.307-3.529-4.693-5.206-7.065-13.389-18.934-17.836-34.592-13.221-46.542 5.111-13.231 19.921-17.818 26.051-19.177 1.046-.232 2.111.224 2.67 1.13.559.907.48 2.068-.192 2.893-4.874 5.966-6.598 13.958-4.611 21.38 1.655 6.186 5.62 11.357 11.165 14.561 5.546 3.203 12.005 4.056 18.192 2.4 10.491-2.807 18.537-12.009 20.998-24.014 2.88-15.041-3.544-30.895-9.44-41.541-10.804-19.501-33.049-32.164-55.318-31.518-9.782.285-19.604 3.354-29.992 9.375-.815 5.588-3.399 11.021-7.356 15.422-3.159 3.514-7.001 6.196-11.234 7.862 1.806 3.964 3.2 8.119 4.155 12.389 1.021 4.566 3.09 8.985 5.983 12.778 4.125 5.411 6.306 11.873 6.306 18.687 0 10.239-5.115 19.791-13.505 25.51 6.084 9.543 13.532 18.549 20.753 27.278 2.246 2.716 4.488 5.427 6.691 8.153 5.047 6.246 10.016 13.021 10.506 21.125.359 5.932-1.772 12.297-6.337 18.919-3.826 5.55-8.594 10.399-14.182 14.425z"/><path d="m90.545 232.021c-.118 0-.236-.008-.355-.025-5.329-.764-10.233-1.203-14.576-1.305-.386-.009-.764-.107-1.104-.287-22.394-11.771-30.258-35.017-22.743-67.222.169-.726.654-1.338 1.321-1.67.667-.333 1.448-.349 2.129-.046 7.328 3.259 23.645 6.972 38.324.214 1.171-.54 2.566-.098 3.211 1.023 3.866 6.711 7.73 10.489 7.769 10.526.743.719.968 1.822.563 2.774-.403.951-1.371 1.566-2.383 1.523-7.479-.25-16.782 4.104-20.487 17.071-6.858 24 8.793 32.35 9.462 32.693 1.087.558 1.616 1.822 1.246 2.985-.335 1.051-1.304 1.746-2.377 1.746zm-14.218-6.313c2.008.06 4.121.187 6.329.379-4.946-5.728-10.025-16.153-5.251-32.862 3.139-10.989 10.8-18.5 20.226-20.294-1.197-1.52-2.609-3.469-4.068-5.819-13.347 5.334-27.818 3.617-37.559.061-5.91 28.378.919 48.061 20.323 58.535zm3.482-31.796h.01z"/><path d="m71.638 151.2c-4.01 0-8.397-.554-13.076-1.964-.657-.198-1.205-.658-1.513-1.272-.309-.614-.35-1.328-.115-1.974 2.236-6.164 4.916-12.474 7.963-18.754.29-.599.808-1.057 1.438-1.273s1.319-.172 1.917.123c5.697 2.808 11.765 4.371 18.034 4.645 1.33.058 2.382 1.149 2.391 2.481.025 3.971.452 7.939 1.269 11.792.25 1.177-.375 2.365-1.486 2.827-4.189 1.738-9.947 3.369-16.822 3.369zm-9.054-6.061c9.022 2.11 16.667.722 22.062-1.196-.487-2.759-.793-5.561-.913-8.374-5.308-.479-10.468-1.798-15.396-3.936-2.129 4.522-4.056 9.047-5.753 13.506z"/><path d="m132.463 48.439c-.895 0-1.735-.481-2.182-1.28-3.622-6.481-8.329-11.967-13.989-16.303-.802-.615-1.155-1.652-.896-2.628 1.85-6.933 7.25-12.504 14.095-14.539 5.736-1.704 11.367-.577 15.451 3.096 4.591 4.128 6.181 10.473 4.253 16.971-2.283 7.701-8.699 13.453-16.344 14.653-.129.02-.259.03-.388.03zm-11.741-20.453c5.124 4.188 9.485 9.265 12.994 15.126 5.628-1.58 9.385-6.389 10.687-10.778 1.385-4.671.363-8.983-2.804-11.832-2.761-2.482-6.653-3.218-10.683-2.021-4.676 1.39-8.464 4.96-10.194 9.505z"/><path d="m44.05 48.439c-.129 0-.259-.01-.389-.03-7.642-1.2-14.054-6.948-16.336-14.642-1.93-6.508-.343-12.856 4.245-16.982 4.085-3.672 9.72-4.8 15.45-3.096 6.845 2.034 12.246 7.605 14.096 14.539.26.977-.093 2.014-.896 2.628-5.66 4.336-10.367 9.822-13.989 16.303-.446.799-1.287 1.28-2.181 1.28zm-2.182-30.52c-2.637 0-5.062.881-6.954 2.583-3.164 2.845-4.183 7.162-2.795 11.843 1.568 5.289 5.665 9.363 10.678 10.767 3.509-5.861 7.87-10.938 12.994-15.126-1.73-4.544-5.519-8.115-10.195-9.505-1.266-.376-2.519-.562-3.728-.562z"/><path d="m95.859 82.344c-.11 0-.221-.007-.331-.022-2.226-.298-4.925-.338-7.271-.338-2.258 0-4.857.036-7.026.303-.756.093-1.517-.165-2.061-.701s-.813-1.292-.73-2.051c2.548-23.406-3.685-32.327-7.626-35.562-4.98-4.086-12.467-4.595-22.26-1.514-1.029.323-2.15-.049-2.78-.926s-.626-2.059.01-2.932c10.395-14.255 25.876-22.432 42.473-22.432 16.545 0 31.996 8.136 42.391 22.321.637.869.646 2.049.021 2.927-.626.878-1.742 1.256-2.773.939-9.651-2.974-17.042-2.42-21.965 1.646-3.931 3.248-10.142 12.185-7.586 35.57.083.764-.189 1.523-.739 2.061-.47.458-1.098.711-1.747.711zm-7.602-5.36c1.523 0 3.192.017 4.831.105-.903-11.345-.365-28.661 9.657-36.94 4.854-4.008 11.281-5.441 19.163-4.294-9.095-9.41-21.032-14.686-33.651-14.686-12.646 0-24.6 5.293-33.698 14.733 8-1.231 14.516.176 19.427 4.206 10.066 8.261 10.609 25.609 9.708 36.965 1.552-.074 3.125-.089 4.563-.089z"/><path d="m91.035 116.356h-5.557c-3.312 0-6.007-2.695-6.007-6.007v-3.534c0-1.148.782-2.149 1.896-2.426 2.584-.642 4.389-2.948 4.389-5.608 0-1.381 1.119-2.5 2.5-2.5s2.5 1.119 2.5 2.5c0 2.66 1.804 4.966 4.388 5.608 1.114.277 1.896 1.278 1.896 2.426v3.534c.001 3.312-2.693 6.007-6.005 6.007zm-6.563-7.777v1.77c0 .546.461 1.007 1.007 1.007h5.557c.545 0 1.006-.461 1.006-1.007v-1.77c-1.482-.678-2.769-1.672-3.784-2.89-1.018 1.218-2.304 2.212-3.786 2.89z"/><path d="m88.257 96.944c-7.691 0-16.459-6.843-16.459-12.845 0-7.115 10.303-7.115 16.459-7.115 6.155 0 16.458 0 16.458 7.115 0 6.003-8.768 12.845-16.458 12.845zm0-14.96c-9.471 0-11.459 1.15-11.459 2.115 0 2.451 5.54 7.845 11.459 7.845 5.918 0 11.458-5.395 11.458-7.845 0-.965-1.988-2.115-11.458-2.115z"/><path d="m47.552 161.108c-.035 0-.07-.001-.106-.002-17.929-.761-19.647-11.08-19.555-15.481.126-5.899 3.849-13.382 7.855-13.382 3.038 0 5.221 1.962 6.975 3.539.416.374.975.876 1.411 1.198.019-.041.037-.08.054-.117.686-1.5 2.112-4.62 6.668-4.62 1.478 0 2.769.583 3.734 1.688 1.817 2.079 2.345 6.056 1.568 11.82-.154 1.146-1.075 2.037-2.226 2.153-.524.053-.831.197-.901.316-.021.035-.491.892.751 3.792.275.642.27 1.37-.017 2.008-.285.635-.821 1.122-1.479 1.345-.845.291-2.224 1.076-2.509 1.734-.033.077-.078.181.059.488.354.791.272 1.708-.214 2.424-.467.689-1.242 1.097-2.068 1.097zm-11.47-23.833c-1.366 1.128-4.065 6.373-2.925 11.055 1.235 5.068 6.611 6.956 11.758 7.564.072-.273.167-.543.284-.809.682-1.552 1.988-2.646 3.17-3.367-.701-2.463-.582-4.451.353-6.037.599-1.016 1.516-1.785 2.666-2.256.352-3.969-.204-5.895-.581-6.221-1.297.039-1.477.432-2.073 1.737-.533 1.166-1.525 3.337-4.175 3.337-2.09 0-3.661-1.412-5.181-2.778-1.112-1-2.26-2.031-3.296-2.225z"/></svg>