<svg enable-background="new 0 0 256 256" height="512" viewBox="0 0 256 256" width="512" xmlns="http://www.w3.org/2000/svg"><path d="m59.868 131.434c-10.343 29.812 3.144 49.742 20.318 57.314-.159 9.326-1.38 24.972-4.528 39.256-.428 1.94-1.747 3.584-3.577 4.358-3.491 1.475-9.169 5.125-10.451 13.509-.288 1.882 1.147 3.591 3.051 3.591h28.206c1.666 0 3.032-1.322 3.085-2.987l.362-11.215c.027-.838.223-1.655.576-2.415 1.782-3.831 7.572-21.221 10.451-39.178 19.828.944 44.306-1.656 58.569-9.872 3.257 6.365 8.254 12.726 15.686 18.659.76.606 1.075 1.615.767 2.537l-3.602 24.291c-.226 1.27-1.078 2.35-2.274 2.833-3.706 1.495-11.569 5.781-11.465 15.208.013 1.178.948 2.141 2.126 2.141h28.694c1.125 0 2.036-.912 2.036-2.036v-6.984c0-4.538.701-9.048 2.109-13.362 1.877-5.751 5.036-17.837 9.594-24.408 2.108-3.039 2.276-7.064.286-10.181-2.66-4.164-5.272-10.615-2.986-18.045 3.279-10.655 14.617-44.818-11.116-60.11-9.887-5.875-21.966-6.672-32.808-2.832-13.578 4.81-34.911 12.119-50.965.578-10.293-7.399-12.326-18.963-12.284-18.863-.566-2.307-.872-4.675-.933-7.049-.843-33.052-16.81-45.359-21.049-48.051-.605-.384-.861-1.118-.676-1.81 5.607-21.03-14.458-37.905-18.581-25.615-2.889 8.613.06 16.222 2.183 20.135.61 1.125-.244 2.461-1.522 2.395-13.91-.72-27.45 10.701-33.491 29.417-6.516 20.186-12.717 15.805-20.749 27.173-4.862 6.882-1.423 13.667 2.048 17.951 2.321 2.863 6.198 3.943 9.679 2.73 8.694 3.044 14.991-2.578 20.102-9.812s22.321-7.47 22.321-7.47 9.31 13.713.808 38.219z" fill="#eaa250"/><path d="m68.542 34.841c2.528-22.179-10.504-22.409-10.558-22.41-1.984 7.891.708 14.752 2.688 18.4.222.41.246.846.13 1.234z" fill="#fd605b"/><g fill="#7d3d1a"><path d="m77.07 36.311c-.185.692.071 1.426.676 1.81 4.239 2.692 20.206 14.998 21.052 48.047.061 2.374.367 4.743.933 7.049-.042-.1 1.991 11.464 12.284 18.863.777.558 1.57 1.06 2.37 1.532-3.103-9.349-5.782-22.412-6.682-27.01-.156-.795.556-1.485 1.348-1.309l4.634 1.03c.944.21 1.699-.785 1.231-1.631-1.933-3.494-4.932-11.192-3.534-23.776 1.477-13.292-3.242-18.108-5.813-19.719-.473-.297-.357-.993.175-1.165 2.902-.937 4.926-2.741 5.957-3.844.351-.376.142-.989-.365-1.081-7.251-1.313-14.872-9.695-21.392-16.578-4.522-4.774-10.787-3.154-14.538-1.491 2.473 5.244 3.6 12.01 1.664 19.273z"/><path d="m14.874 44.086c13.92 6.566 24.503-3.749 24.503-3.749l.228.182c5.845-5.02 12.649-7.65 19.545-7.293 1.278.066 2.132-1.271 1.522-2.395-1.976-3.64-4.659-10.48-2.699-18.351-11.841-1.142-20.79 4.95-24.453 10.135-3.467 4.907-9.093 6.878-11.524 7.53-.454.122-.555.716-.171.987l3.814 2.694c.27.191.322.583.1.829-3.036 3.37-7.331 5.118-10.58 6.009-1.641.45-1.824 2.697-.285 3.422z"/><path d="m252.955 162.046c-20.761-12.587-3.969-56.602-34.589-60.914-9.553-1.345-19.453 5.452-23.86 12.491.429.232.86.461 1.282.711 3.161 1.879 5.757 4.044 7.883 6.414 15.467-11.035 16.535 22.835 23.759 35.017 6.022 10.155 19.178 9.306 25.162 8.309 1.013-.168 1.241-1.495.363-2.028z"/></g><path d="m165.044 247.306c-.096-9.425 7.776-13.706 11.476-15.197 1.189-.479 2.037-1.553 2.261-2.815l3.604-24.304c.307-.922-.008-1.93-.767-2.537-7.432-5.933-12.43-12.295-15.686-18.659-4.433 2.554-9.863 4.556-15.824 6.087 3.021 4.3 6.948 8.535 12.005 12.572.76.606 1.075 1.615.767 2.537l-3.604 24.304c-.224 1.263-1.071 2.336-2.261 2.815-3.7 1.491-11.572 5.772-11.476 15.197.012 1.186.942 2.156 2.128 2.156h19.505c-1.186 0-2.116-.971-2.128-2.156z" fill="#eaa250"/><path d="m165.044 247.306c-.084-8.21 5.878-12.515 9.862-14.474-7.789-2.522-15.096-1.453-17.32-1.022-.181.114-.369.218-.571.299-3.7 1.491-11.572 5.772-11.476 15.197.012 1.186.942 2.156 2.128 2.156h19.505c-1.186 0-2.116-.971-2.128-2.156z" fill="#eaa250"/><path d="m197.901 247.419v-6.978c0-2.024.15-4.04.43-6.037-9.129-4.486-18.645-3.098-21.241-2.595-.181.114-.369.218-.571.299-3.7 1.491-11.572 5.772-11.476 15.197.012 1.186.942 2.156 2.128 2.156h28.693c1.129.001 2.037-.914 2.037-2.042z" fill="#52565b"/><path d="m165.044 247.306c-.084-8.21 5.878-12.515 9.862-14.474-7.789-2.522-15.096-1.453-17.32-1.022-.181.114-.369.218-.571.299-3.7 1.491-11.572 5.772-11.476 15.197.012 1.186.942 2.156 2.128 2.156h19.505c-1.186 0-2.116-.971-2.128-2.156z" fill="#52565b"/><path d="m74.017 231.033c-.547.558-1.197 1.017-1.936 1.329-3.492 1.475-9.172 5.126-10.452 13.515-.287 1.88 1.15 3.585 3.052 3.585h28.206c1.666 0 3.032-1.322 3.085-2.987l.362-11.215c.005-.157.022-.312.039-.467-8.664-5.132-18.194-4.421-22.356-3.76z" fill="#52565b"/><path d="m72.082 232.362c1.83-.773 3.149-2.417 3.577-4.358 3.148-14.283 4.369-29.93 4.528-39.256-5.275-2.326-10.169-5.725-14.098-10.288l-7.773 18.18c-2.272 5.313-1.889 11.388 1.032 16.374l9.877 20.859c1.019-.657 2.004-1.151 2.857-1.511z" fill="#eaa250"/><path d="m195.865 251.962h-28.693c-2.525 0-4.602-2.077-4.628-4.63-.112-11.044 9.083-15.946 13.041-17.542.066-.026.121-.063.176-.098.261-.164.551-.278.854-.337 2.877-.558 13.028-2.005 22.819 2.806.97.477 1.523 1.522 1.373 2.592-.269 1.915-.406 3.829-.406 5.688v6.978c0 2.505-2.035 4.543-4.536 4.543zm-28.321-5h27.857v-6.521c0-1.483.077-2.995.229-4.514-7.478-3.082-14.93-2.22-17.664-1.738-.173.091-.343.17-.517.239-3.678 1.484-9.809 5.073-9.905 12.534z"/><path d="m167.172 251.962h-19.504c-2.526 0-4.603-2.078-4.628-4.631-.113-11.044 9.083-15.946 13.042-17.541.377-.152.658-.509.733-.933l3.593-24.234c.015-.096.034-.191.06-.285-4.94-3.956-9.113-8.335-12.405-13.019-.472-.672-.584-1.532-.3-2.303.284-.77.929-1.352 1.724-1.556 6.076-1.561 11.189-3.523 15.198-5.833.593-.342 1.299-.426 1.957-.231.657.194 1.205.649 1.517 1.259 3.36 6.566 8.414 12.569 15.021 17.844 1.509 1.205 2.156 3.199 1.655 5.033l-3.578 24.129c-.391 2.209-1.808 3.965-3.8 4.767-3.687 1.486-9.83 5.082-9.91 12.562 1.204.18 2.128 1.218 2.128 2.473-.003 1.38-1.122 2.499-2.503 2.499zm-19.132-5h14.504c.094-10.784 9.127-15.595 13.041-17.172.378-.152.659-.51.734-.933l3.593-24.234c.015-.096.034-.191.06-.285-6.374-5.104-11.426-10.868-15.048-17.163-3.085 1.554-6.634 2.936-10.606 4.13 2.645 3.258 5.78 6.34 9.355 9.195 1.51 1.205 2.156 3.2 1.655 5.033l-3.578 24.128c-.391 2.209-1.808 3.965-3.8 4.767-3.683 1.484-9.815 5.073-9.91 12.534z"/><path d="m167.172 251.962h-19.504c-2.526 0-4.603-2.078-4.628-4.631-.113-11.044 9.083-15.946 13.042-17.541.064-.026.119-.062.173-.096.262-.165.552-.28.856-.338 2.227-.432 10.146-1.629 18.566 1.098.969.313 1.65 1.183 1.724 2.199s-.477 1.974-1.391 2.423c-3.841 1.889-8.396 5.483-8.465 11.914 1.204.18 2.128 1.218 2.128 2.473-.001 1.38-1.12 2.499-2.501 2.499zm-19.132-5h14.504c.053-6.05 2.928-10.215 6.091-12.972-4.604-.592-8.47-.099-10.175.2-.173.091-.344.17-.515.239-3.678 1.483-9.81 5.072-9.905 12.533z"/><path d="m165.934 186.294c-.86 0-1.697-.444-2.162-1.241-7.526-12.903-1.945-27.418-1.704-28.03.508-1.284 1.96-1.914 3.243-1.408s1.914 1.957 1.409 3.24c-.079.206-4.893 12.94 1.371 23.678.695 1.193.292 2.724-.9 3.419-.396.232-.83.342-1.257.342z"/><path d="m92.888 251.962h-28.206c-1.627 0-3.169-.708-4.23-1.944-1.069-1.245-1.541-2.892-1.292-4.519 1.474-9.664 8.12-13.822 11.95-15.44.41-.173.788-.435 1.124-.777.375-.383.863-.634 1.393-.719 4.062-.646 14.536-1.54 24.022 4.077.842.499 1.316 1.444 1.212 2.417-.011.105-.023.192-.025.279l-.362 11.218c-.1 3.033-2.553 5.408-5.586 5.408zm-17.75-18.567c-.635.527-1.333.953-2.083 1.27-3.503 1.48-7.901 4.692-8.953 11.588-.038.251.073.425.143.506.079.092.219.202.438.202h28.206c.319 0 .577-.25.587-.568l.328-10.168c-7.227-3.723-14.955-3.331-18.666-2.83z"/><path d="m69.225 236.374c-.229 0-.46-.032-.685-.096-.692-.197-1.266-.684-1.574-1.334l-9.832-20.763c-3.255-5.627-3.674-12.543-1.117-18.523l7.773-18.18c.339-.793 1.064-1.356 1.917-1.488.858-.131 1.714.186 2.277.839 3.506 4.072 7.951 7.312 13.212 9.632.92.406 1.508 1.324 1.491 2.33-.169 9.925-1.462 25.58-4.586 39.751-.607 2.755-2.493 5.044-5.045 6.123-.858.363-1.691.803-2.474 1.309-.409.263-.881.4-1.357.4zm-2.329-53.442-6.281 14.691c-1.952 4.563-1.619 9.845.891 14.127.037.063.071.128.102.194l8.739 18.455c.252-.119.506-.232.762-.34 1.061-.449 1.849-1.418 2.108-2.593 2.879-13.061 4.163-27.425 4.433-37.136-4.049-1.963-7.65-4.441-10.754-7.398z"/><path d="m80.187 191.249c-.008 0-.015 0-.023 0-1.38-.013-2.49-1.142-2.478-2.522l.187-20.806c.012-1.373 1.129-2.478 2.5-2.478h.023c1.38.013 2.49 1.142 2.478 2.522l-.187 20.806c-.013 1.373-1.13 2.478-2.5 2.478z"/><path d="m107.365 196.166c-.109 0-.219-.007-.33-.022-1.369-.181-2.333-1.437-2.152-2.805l1.018-7.718c.181-1.369 1.435-2.334 2.805-2.152 1.369.181 2.333 1.437 2.152 2.805l-1.018 7.718c-.165 1.258-1.239 2.174-2.475 2.174z"/><path d="m195.865 251.962h-28.695c-2.523 0-4.599-2.07-4.626-4.614-.123-11.05 9.071-15.957 13.03-17.553.384-.155.671-.52.748-.952l3.59-24.221c.015-.096.034-.191.06-.285-6.374-5.104-11.425-10.867-15.047-17.162-14.956 7.557-37.771 9.672-55.459 9.077-3.013 17.367-8.509 33.822-10.287 37.645-.212.457-.328.941-.344 1.441l-.362 11.216c-.098 3.032-2.55 5.407-5.584 5.407h-28.207c-1.627 0-3.168-.708-4.229-1.944-1.071-1.247-1.542-2.896-1.293-4.524 1.477-9.661 8.121-13.817 11.949-15.435 1.061-.449 1.849-1.418 2.108-2.593 2.879-13.062 4.163-27.428 4.433-37.139-16.459-8.039-31.104-28.122-20.144-59.711 4.155-11.977 3.789-21.133 2.749-26.704-.736-3.946-1.904-6.703-2.627-8.143-5.232.29-15.607 1.773-18.847 6.358-4.455 6.304-11.555 14.207-22.172 10.989-4.247 1.113-8.812-.344-11.593-3.775-5.844-7.211-6.607-14.657-2.148-20.967 3.21-4.543 6.202-6.79 8.842-8.771 4.141-3.108 7.717-5.793 11.569-17.728 6.063-18.787 19.804-31.114 34.515-31.181-2.158-4.472-4.573-12.16-1.676-20.794 1.59-4.741 5.423-6.83 10.004-5.454 8.215 2.47 17.428 16.072 13.513 31.923 5.541 3.722 20.822 16.951 21.662 49.735.057 2.229.347 4.421.861 6.517.022.088.039.176.05.264.13.658 2.267 10.697 11.265 17.165 15.224 10.943 36.162 3.526 48.671-.905 11.869-4.204 24.595-3.095 34.92 3.039 26.797 15.924 16.022 50.736 12.481 62.175l-.253.82c-2.014 6.543.359 12.293 2.704 15.964 2.518 3.942 2.385 9.026-.338 12.952-3.535 5.097-6.312 14.164-8.149 20.164-.414 1.353-.788 2.573-1.122 3.596-1.317 4.037-1.985 8.271-1.985 12.586v6.984c-.001 2.503-2.036 4.538-4.537 4.538zm-28.321-5h27.857v-6.521c0-4.843.751-9.599 2.232-14.138.325-.998.69-2.188 1.094-3.509 1.928-6.296 4.842-15.812 8.822-21.549 1.571-2.264 1.662-5.173.233-7.411-2.913-4.561-5.845-11.754-3.269-20.126l.256-.828c3.597-11.62 13.15-42.487-10.259-56.398-9.043-5.374-20.232-6.331-30.696-2.625-13.432 4.758-35.911 12.721-53.259.251-9.036-6.495-12.659-16.575-13.198-20.31l-.054.013c-.601-2.444-.938-4.995-1.004-7.582-.807-31.472-15.431-43.166-19.894-46-1.518-.963-2.223-2.798-1.751-4.565 3.588-13.458-4.417-24.762-9.971-26.432-1.954-.588-3.097.088-3.824 2.256-2.606 7.77.141 14.706 2.011 18.15.711 1.312.661 2.908-.131 4.165-.796 1.262-2.223 1.994-3.717 1.92-12.97-.669-25.422 10.456-30.984 27.688-4.339 13.444-8.704 16.721-13.325 20.19-2.574 1.932-5.004 3.756-7.76 7.658-3.138 4.441-2.482 9.466 1.949 14.934 1.645 2.03 4.422 2.812 6.914 1.943.533-.186 1.115-.186 1.649.001 6.153 2.155 11.307-.505 17.234-8.895 5.682-8.042 22.437-8.501 24.328-8.526.866-.029 1.63.4 2.103 1.095.409.603 9.914 15.043 1.102 40.443-6.364 18.343-5.216 43.546 18.965 54.207.921.406 1.508 1.324 1.491 2.33-.169 9.925-1.462 25.58-4.586 39.751-.607 2.755-2.493 5.044-5.045 6.123-3.503 1.48-7.899 4.691-8.953 11.584-.039.254.073.43.144.512.079.092.218.201.436.201h28.206c.319 0 .577-.25.587-.568l.362-11.215c.038-1.177.31-2.318.808-3.389 1.769-3.804 7.416-20.847 10.25-38.52.201-1.257 1.32-2.163 2.587-2.101 17.32.826 42.687-1.18 57.202-9.542.593-.342 1.299-.426 1.957-.231.657.194 1.205.649 1.517 1.259 3.36 6.566 8.414 12.569 15.021 17.844 1.509 1.205 2.156 3.199 1.655 5.033l-3.576 24.115c-.393 2.216-1.813 3.979-3.812 4.785-3.683 1.484-9.808 5.074-9.904 12.53zm-107.676-115.527h.01z"/><path d="m16.64 112.997c-.8 0-1.586-.383-2.07-1.095-.775-1.14-.48-2.692.658-3.47.042-.028 4.187-2.909 8.22-8.617.797-1.128 2.359-1.396 3.484-.6 1.128.797 1.396 2.357.6 3.484-4.59 6.497-9.291 9.73-9.488 9.865-.431.292-.92.433-1.404.433z"/><path d="m68.545 37.341c-.094 0-.19-.005-.286-.016-1.372-.156-2.357-1.395-2.201-2.767.878-7.707-.143-13.513-2.953-16.792-2.304-2.688-5.073-2.83-5.19-2.835-1.367-.055-2.453-1.199-2.416-2.566s1.158-2.496 2.517-2.432c.201.002 4.961.119 8.762 4.438 3.884 4.415 5.313 11.397 4.247 20.754-.145 1.275-1.226 2.216-2.48 2.216z"/><path d="m59.057 95.715c-1.195 0-2.251-.859-2.461-2.077-.234-1.361.68-2.654 2.04-2.888.125-.021 12.807-2.313 17.814-10.116 2.085-3.249 2.542-6.949 1.395-11.312-.351-1.335.447-2.702 1.783-3.053 1.337-.349 2.703.448 3.053 1.782 1.503 5.72.819 10.868-2.035 15.302-6.212 9.655-20.555 12.22-21.163 12.325-.143.025-.285.037-.426.037z"/><path d="m10.257 102.291c-1.375 0-2.492-1.111-2.5-2.487-.011-2.094.893-4.081 2.478-5.449 1.585-1.369 3.68-1.972 5.752-1.656l.214.033c1.365.208 2.302 1.484 2.093 2.849-.208 1.364-1.487 2.3-2.849 2.093l-.214-.033c-.853-.132-1.449.257-1.729.499s-.75.776-.745 1.639c.007 1.38-1.106 2.505-2.487 2.513-.004-.001-.009-.001-.013-.001z"/><path d="m114.384 116.113c-.438 0-.877-.115-1.271-.347-.962-.568-1.798-1.11-2.558-1.656-9.036-6.495-12.659-16.575-13.198-20.31l-.054.013c-.601-2.444-.938-4.995-1.004-7.582-.806-31.471-15.431-43.165-19.894-46-1.519-.963-2.223-2.798-1.751-4.565 1.577-5.917 1.041-12.153-1.51-17.56-.288-.609-.317-1.308-.082-1.939s.714-1.141 1.33-1.414c7.003-3.103 13.169-2.372 17.365 2.058l.939.993c6.086 6.44 12.985 13.74 19.083 14.844 1.137.206 2.069 1.015 2.433 2.11.363 1.092.1 2.294-.685 3.136-.935 1-2.311 2.233-4.134 3.256 2.872 3.067 5.704 8.951 4.471 20.042-1.323 11.91 1.46 19.078 3.237 22.29.687 1.241.582 2.778-.267 3.914-.853 1.14-2.303 1.678-3.693 1.368l-2.574-.572c1.187 5.854 3.524 16.604 6.189 24.633.329.99.008 2.079-.803 2.733-.454.368-1.01.555-1.569.555zm-12.175-23.228c.109.554 1.651 7.81 7.558 13.949-2.099-7.791-3.772-15.942-4.518-19.75-.235-1.203.147-2.432 1.025-3.287.879-.856 2.119-1.209 3.318-.943l1.865.414c-1.86-4.43-3.755-11.879-2.561-22.626 1.351-12.159-2.805-16.166-4.655-17.324-1.043-.652-1.597-1.815-1.446-3.034.151-1.217 1.006-2.249 2.179-2.628.919-.296 1.733-.704 2.434-1.142-6.479-2.718-12.729-9.332-18.344-15.273l-.936-.989c-2.681-2.829-6.299-2.72-9.42-1.78 2.068 5.667 2.401 11.911.927 17.9 5.541 3.722 20.822 16.95 21.662 49.734.057 2.229.347 4.421.861 6.517.022.086.039.174.051.262zm-25.139-56.574h.01z"/><path d="m24.181 48.754c-3.18 0-6.677-.663-10.374-2.406-1.661-.784-2.632-2.472-2.473-4.3.158-1.821 1.4-3.311 3.164-3.794 2.281-.625 5.288-1.759 7.766-3.75l-1.881-1.329c-.965-.682-1.455-1.873-1.247-3.035.208-1.159 1.077-2.105 2.215-2.409 2.038-.546 7.105-2.279 10.128-6.558 4.53-6.412 14.553-12.354 26.735-11.18.724.07 1.381.451 1.801 1.045s.56 1.341.384 2.047c-1.784 7.159.782 13.444 2.47 16.553.711 1.312.661 2.908-.131 4.165-.796 1.262-2.223 1.994-3.717 1.92-6.169-.316-12.317 1.996-17.787 6.693-.321.276-.696.458-1.087.544-2.233 1.781-8.139 5.794-15.966 5.794zm-6.574-6.225c11.388 4.251 19.936-3.895 20.024-3.982.349-.34.773-.559 1.221-.654 5.815-4.708 12.316-7.177 18.942-7.199-1.703-3.535-3.633-9.235-2.802-15.848-8.901.063-16.182 4.613-19.43 9.211-2.618 3.705-6.292 5.924-9.225 7.202l.743.525c.714.505 1.18 1.294 1.277 2.164.097.866-.18 1.733-.76 2.378-2.912 3.234-6.781 5.119-9.99 6.203z"/><path d="m246.016 167.126c-6.913 0-15.836-1.821-20.737-10.085-2.422-4.084-4.084-10.024-5.845-16.312-2.25-8.039-5.051-18.044-9.125-19.481-1.345-.476-3.091.041-5.186 1.536-1.037.738-2.462.582-3.313-.366-2.036-2.269-4.492-4.266-7.299-5.935-.331-.196-.67-.378-1.008-.561l-.186-.1c-.608-.328-1.053-.894-1.229-1.562s-.068-1.379.298-1.964c4.838-7.728 15.709-15.137 26.328-13.64 18.921 2.664 21.542 19.331 23.854 34.036 1.8 11.445 3.5 22.254 11.682 27.215 1.311.794 1.972 2.277 1.684 3.777-.285 1.484-1.436 2.605-2.931 2.854-1.737.292-4.199.588-6.987.588zm-36.751-51.057c.928 0 1.83.154 2.707.463 6.526 2.301 9.319 12.282 12.277 22.848 1.596 5.7 3.246 11.593 5.331 15.11 4.312 7.272 13.235 7.977 19.122 7.537-7.626-6.64-9.375-17.763-11.072-28.558-2.339-14.871-4.359-27.714-19.613-29.862-7.316-1.028-15.345 3.625-19.883 9.235 2.18 1.392 4.166 2.967 5.934 4.704 1.801-.983 3.538-1.477 5.197-1.477z"/><path d="m42.578 69.943c-1.377 0-2.496-1.114-2.5-2.492-.015-4.605 3.72-8.364 8.325-8.379h.027c4.594 0 8.337 3.729 8.352 8.325.004 1.38-1.111 2.503-2.492 2.508-.002 0-.005 0-.008 0-1.377 0-2.496-1.114-2.5-2.492-.006-1.844-1.509-3.341-3.353-3.341-.003 0-.007 0-.011 0-1.848.006-3.347 1.515-3.341 3.363.004 1.38-1.111 2.503-2.492 2.508-.002 0-.004 0-.007 0z"/></svg>