<svg enable-background="new 0 0 256 256" height="512" viewBox="0 0 256 256" width="512" xmlns="http://www.w3.org/2000/svg"><ellipse cx="214.725" cy="215.494" fill="#828487" rx="33.32" ry="22.908" transform="matrix(.237 -.972 .972 .237 -45.486 373.083)"/><ellipse cx="42.164" cy="215.494" fill="#828487" rx="22.908" ry="33.32" transform="matrix(.972 -.237 .237 .972 -49.83 16.113)"/><path d="m221.196 169.619c-9.476-2.309-19.246.931-26.962 7.898 2.894 1.143 4.944 3.959 4.944 7.26 0 2.864-1.546 5.36-3.844 6.719.782 1.216 1.241 2.66 1.241 4.214 0 4.313-3.496 7.809-7.809 7.809-3.374 0-6.237-2.146-7.327-5.143-.221.75-.43 1.507-.617 2.276-5.194 21.308 4.462 41.962 21.567 46.131.833.203 1.67.351 2.506.469-11.013-4.224-16.548-20.272-12.426-37.183 4.358-17.879 17.855-29.944 30.147-26.948s18.724 19.918 14.366 37.797c-2.265 9.292-7 17.006-12.75 21.859 8.61-5.398 15.61-15.04 18.532-27.028 5.193-21.308-4.463-41.961-21.568-46.13z" fill="#52565b"/><path d="m35.693 169.619c17.105-4.169 35.181 9.725 40.375 31.033s-4.462 41.962-21.567 46.131c-.833.203-1.67.351-2.506.469 11.013-4.224 16.548-20.272 12.426-37.183-4.358-17.879-17.855-29.944-30.147-26.948s-18.724 19.918-14.366 37.797c2.265 9.292 7 17.006 12.75 21.859-8.61-5.398-15.61-15.04-18.532-27.028-5.194-21.308 4.462-41.961 21.567-46.13z" fill="#52565b"/><path d="m190.284 240.075c-9.162-8.73-13.82-24.708-8.835-41.674-.1-.273-.191-.551-.261-.837-30.226-2.185-57.685-15.922-66.445-45.333-4.837-.873-9.45-2.2-13.775-3.907-5.833 2.665-11.456 2.059-15.533.839-2.006-.6-2.016-3.453-.021-4.089 1.767-.564 3.398-1.276 4.907-2.09-5.006-3.122-9.358-6.851-12.91-11.031-2.421 6.391-4.607 14.339-6.092 24.19-1.285 8.525-3.833 16.478-6.664 23.313 5.255 5.456 9.351 12.739 11.413 21.198 3.787 15.537-.327 30.718-9.462 39.422 4.365-1.103 10.249-2.501 16.574-3.749.042.517.084 1.022.127 1.513.094 1.081-.045 2.183-.536 3.15-.514 1.012-.806 2.152-.806 3.359v1.643c0 4.13 3.379 7.509 7.509 7.509h26.633c4.13 0 7.509-3.379 7.509-7.509v-1.643c0-1.556-.48-3.005-1.299-4.207-1.214-1.781-1.967-3.83-1.893-5.984.011-.316.022-.637.032-.962h15.978c.022.691.046 1.362.07 2.014.071 1.911-.51 3.749-1.469 5.403-.639 1.101-1.006 2.377-1.006 3.736v1.643c0 4.13 3.379 7.509 7.509 7.509h26.633c4.13 0 7.509-3.379 7.509-7.509v-1.643c0-1.376-.375-2.668-1.028-3.781-.694-1.182-1.083-2.509-.97-3.875.01-.122.02-.244.03-.368 6.322 1.248 12.206 2.646 16.572 3.75z" fill="#52565b"/><path d="m199.178 184.777c0-4.313-3.496-7.809-7.809-7.809-2.794 0-5.238 1.472-6.618 3.678-22.208-2.695-32.187-16.392-36.59-29.657 3.123-.817 6.131-1.828 9.008-3.008-4.095-2.06-8.266-5.779-12.052-12.081l-.067-.851c4.306-1.376 7.829-3.288 10.203-5.54 2.275 3.992 6.252 9.364 12.458 12.99 13.649-8.795 22.357-22.094 22.357-36.993 0-7.656-2.303-14.889-6.392-21.308-3.062-4.808-5.172-10.175-6.053-15.843-4.207-27.051-24.65-43.868-49.25-43.868-24.828 0-45.424 17.183-49.366 44.636-.806 5.611-2.876 10.921-5.821 15.724-3.835 6.256-5.988 13.26-5.988 20.66 0 15.175 9.034 28.692 23.122 37.478 6.362-3.436 10.492-8.737 12.928-12.836 2.162 1.821 5.095 3.393 8.592 4.602l.273 3.683c-3.566 5.123-7.399 8.181-11.146 9.892 4.325 1.706 8.938 3.033 13.775 3.907 11.111 37.306 49.897 44.136 66.445 45.333.833 3.417 3.906 5.956 7.579 5.956 4.313 0 7.809-3.496 7.809-7.809 0-1.554-.459-2.997-1.241-4.214 2.298-1.362 3.844-3.859 3.844-6.722z" fill="#52565b"/><path d="m185.57 156.142c-1.461-9.694-3.6-17.55-5.975-23.888-3.383 3.916-7.52 7.429-11.873 10.235 1.739 1.016 3.633 1.912 5.738 2.583 1.995.636 1.984 3.489-.021 4.089-4.249 1.272-10.178 1.883-16.273-1.183.001 0 .001.001.002.001-2.876 1.18-5.885 2.191-9.008 3.008 4.404 13.266 14.383 26.962 36.59 29.657 1.332-2.128 3.705-3.624 6.491-3.669-2.424-6.251-4.539-13.319-5.671-20.833z" fill="#52565b"/><path d="m173.46 145.073c-9.611-3.067-15.295-10.454-18.208-15.565-2.374 2.252-5.897 4.164-10.203 5.54l.067.851c9.422 15.681 21.22 15.389 28.323 13.263 2.005-.601 2.015-3.453.021-4.089z" fill="#f4dbce"/><path d="m111.84 134.749c-3.497-1.209-6.43-2.782-8.592-4.602-3.013 5.07-8.616 11.984-17.835 14.926-1.995.636-1.984 3.489.021 4.089 6.695 2.004 17.562 2.368 26.678-10.731z" fill="#f4dbce"/><path d="m67.198 105.504c0-7.399 2.152-14.404 5.988-20.66 2.945-4.803 5.015-10.113 5.821-15.724 2.337-16.278 10.53-28.944 21.988-36.56-20.623-15.218-67.472-45.343-86.313-20.713-16.304 21.314 11.796 26.541 7.864 57.013-3.932 30.473 0 45.218 14.745 45.218 12.353 0 13.672 26.206 36.314 12.751-4.096-6.422-6.407-13.661-6.407-21.325z" fill="#f98080"/><path d="m14.682 11.847c-.223.292-.435.579-.641.865 4.746-1.377 12.096-2.464 22.144-1.009 0 0 33.95 4.66 50.926 35.055h.012c3.698-5.773 8.408-10.566 13.872-14.198-20.623-15.218-67.472-45.343-86.313-20.713z" fill="#52565b"/><path d="m241.318 11.847c-18.731-24.486-65.147 5.147-85.953 20.447 11.479 7.459 19.751 19.941 22.257 36.058.881 5.668 2.991 11.036 6.053 15.843 4.088 6.419 6.392 13.652 6.392 21.308 0 7.877-2.454 15.298-6.766 21.852 21.777 12.233 23.222-13.278 35.408-13.278 14.745 0 18.677-14.745 14.745-45.218-3.932-30.471 24.168-35.698 7.864-57.012z" fill="#f98080"/><path d="m241.318 11.847c-18.731-24.486-65.147 5.147-85.953 20.447 5.436 3.533 10.141 8.204 13.866 13.842l.013-.007c17.089-29.831 50.571-34.427 50.571-34.427 9.661-.966 17.842 1.055 23.725 3.402-.625-1.045-1.358-2.127-2.222-3.257z" fill="#52565b"/><g fill="#828487"><path d="m148.303 253.5c-.918-5.658-3.167-9.661-5.802-9.661-2.387 0-4.459 3.284-5.511 8.108 1.265.969 2.839 1.553 4.546 1.553z"/><path d="m154.476 243.839c-2.634 0-4.883 4.004-5.802 9.661h11.603c-.918-5.658-3.167-9.661-5.801-9.661z"/><path d="m168.169 253.5c1.42 0 2.746-.407 3.882-1.099-1.019-5.068-3.141-8.563-5.601-8.563-2.634 0-4.883 4.004-5.802 9.661h7.521z"/><path d="m108.586 253.5h7.52c1.42 0 2.746-.407 3.882-1.099-1.019-5.068-3.141-8.563-5.601-8.563-2.634.001-4.883 4.004-5.801 9.662z"/><path d="m96.24 253.5c-.918-5.658-3.167-9.661-5.802-9.661-2.387 0-4.459 3.284-5.511 8.108 1.265.969 2.839 1.553 4.546 1.553z"/><path d="m96.611 253.5h11.603c-.918-5.658-3.167-9.661-5.802-9.661s-4.883 4.003-5.801 9.661z"/></g><path d="m204.897 249.752c-.116 0-.234-.008-.353-.025-1.018-.144-1.917-.313-2.749-.516-18.416-4.489-28.915-26.538-23.403-49.151.198-.809.417-1.602.646-2.387.305-1.037 1.24-1.761 2.319-1.795 1.082-.041 2.061.627 2.43 1.644.761 2.092 2.762 3.498 4.978 3.498 2.928 0 5.31-2.382 5.31-5.31 0-1.014-.292-2.003-.844-2.862-.367-.571-.486-1.267-.33-1.928s.575-1.229 1.16-1.576c1.639-.969 2.617-2.677 2.617-4.567 0-2.19-1.32-4.127-3.363-4.935-.805-.318-1.387-1.029-1.541-1.88s.143-1.721.785-2.301c8.644-7.805 19.3-10.894 29.229-8.471 18.417 4.489 28.916 26.538 23.404 49.151-2.97 12.186-10.126 22.593-19.633 28.554-1.113.697-2.574.416-3.348-.644-.773-1.06-.596-2.538.407-3.385 5.542-4.678 9.892-12.165 11.934-20.54 4.023-16.511-1.597-32.112-12.529-34.777-10.929-2.661-23.102 8.6-27.126 25.112-3.759 15.425 1.026 30.473 10.894 34.256 1.188.456 1.844 1.73 1.524 2.961-.289 1.117-1.294 1.874-2.418 1.874zm-22.233-45.749c-2.534 13.946 1.545 27.261 9.873 34.766-4.032-7.742-5.162-18.358-2.497-29.292.31-1.27.664-2.513 1.06-3.724-.75.174-1.532.266-2.334.266-2.242.001-4.369-.737-6.102-2.016zm36.202-23.831c1.452 0 2.903.169 4.341.52 11.728 2.858 18.746 16.847 17.474 32.938 4.056-19.386-4.741-37.844-20.076-41.582-7.367-1.795-15.29.108-22.151 5.232 2.026 1.904 3.226 4.585 3.226 7.497 0 1.517-.341 2.994-.967 4.335 5.281-5.621 11.724-8.94 18.153-8.94z"/><path d="m51.991 249.752c-1.123 0-2.129-.757-2.418-1.873-.319-1.231.337-2.506 1.524-2.961 9.868-3.784 14.653-18.832 10.894-34.257-4.024-16.51-16.19-27.772-27.126-25.111-10.933 2.665-16.553 18.266-12.529 34.777 2.042 8.375 6.392 15.862 11.934 20.54 1.003.847 1.181 2.325.407 3.385-.773 1.061-2.234 1.342-3.348.644-9.507-5.961-16.663-16.368-19.633-28.554-5.512-22.613 4.987-44.662 23.404-49.151 18.421-4.488 37.884 10.257 43.396 32.87s-4.987 44.662-23.404 49.151c-.831.203-1.73.372-2.748.516-.118.017-.237.024-.353.024zm-13.968-69.58c12.299 0 24.643 12.142 28.825 29.305 2.665 10.934 1.537 21.548-2.496 29.29 8.875-8 12.925-22.594 9.286-37.523-4.858-19.935-21.613-33.032-37.354-29.196-15.335 3.738-24.132 22.196-20.076 41.582-1.272-16.091 5.746-30.079 17.474-32.938 1.437-.35 2.889-.52 4.341-.52z"/><path d="m168.169 256h-26.633c-5.519 0-10.009-4.49-10.009-10.009v-1.643c0-1.75.465-3.477 1.345-4.992.721-1.243 1.102-2.473 1.135-3.662h-10.96c.25 1.232.824 2.29 1.334 3.039 1.135 1.663 1.734 3.605 1.734 5.615v1.643c0 5.519-4.49 10.009-10.009 10.009h-26.633c-5.519 0-10.009-4.49-10.009-10.009v-1.643c0-1.572.362-3.083 1.077-4.492.079-.155.139-.318.183-.482-4.343.905-8.872 1.952-13.506 3.124-1.101.278-2.252-.221-2.801-1.215-.549-.995-.358-2.234.464-3.019 8.766-8.353 12.203-22.884 8.758-37.021-1.891-7.758-5.62-14.693-10.785-20.055-.689-.716-.89-1.773-.509-2.691 3.208-7.743 5.396-15.391 6.503-22.729 1.371-9.108 3.466-17.42 6.225-24.704.313-.827 1.04-1.427 1.912-1.578.868-.15 1.758.17 2.331.844 3.407 4.01 7.555 7.552 12.328 10.529.756.471 1.203 1.309 1.176 2.199-.028.891-.527 1.699-1.312 2.122-1.362.736-2.778 1.37-4.221 1.893 3.326.812 7.916 1.133 12.642-1.026.62-.282 1.325-.3 1.957-.052 4.246 1.676 8.722 2.945 13.301 3.772.928.167 1.683.843 1.952 1.747 7.526 25.272 30.937 41.147 64.229 43.553 1.081.078 1.989.845 2.247 1.898.048.195.111.383.18.569.186.503.204 1.054.053 1.569-4.376 14.894-1.173 30.265 8.161 39.16.822.784 1.013 2.024.464 3.019-.549.994-1.698 1.494-2.801 1.215-4.359-1.102-8.626-2.094-12.731-2.961.811 1.47 1.238 3.128 1.238 4.812v1.643c-.001 5.519-4.491 10.009-10.01 10.009zm-47.714-25.305h15.979c1.349 0 2.455 1.07 2.499 2.419l.068 2.005c.085 2.265-.522 4.536-1.804 6.747-.438.755-.67 1.613-.67 2.482v1.643c0 2.762 2.247 5.009 5.009 5.009h26.633c2.762 0 5.009-2.247 5.009-5.009v-1.643c0-.884-.236-1.753-.684-2.514-1.002-1.708-1.453-3.556-1.306-5.346l.028-.36c.057-.711.414-1.364.982-1.795.568-.43 1.296-.597 1.993-.46 3.034.598 6.17 1.27 9.379 2.008-6.384-9.727-8.354-22.984-5.105-36.035-33.508-3.127-57.277-19.564-65.665-45.442-4.037-.812-7.989-1.947-11.785-3.382-6.339 2.552-12.318 1.726-16.298.534-1.951-.584-3.275-2.349-3.294-4.393-.019-2.053 1.279-3.851 3.229-4.473.174-.056.348-.113.521-.172-2.446-1.792-4.715-3.737-6.789-5.82-1.972 5.992-3.513 12.638-4.594 19.816-1.095 7.266-3.187 14.796-6.222 22.408 5.199 5.813 8.965 13.087 10.927 21.139 3.144 12.897 1.083 26.175-5.207 35.827 3.219-.741 6.364-1.415 9.407-2.015.696-.138 1.423.028 1.991.458s.927 1.082.984 1.792l.125 1.497c.143 1.639-.134 3.194-.798 4.501-.354.7-.535 1.449-.535 2.228v1.643c0 2.762 2.247 5.009 5.009 5.009h26.634c2.762 0 5.009-2.247 5.009-5.009v-1.643c0-1-.299-1.968-.865-2.799-1.608-2.36-2.413-4.946-2.325-7.478l.031-.959c.046-1.348 1.151-2.418 2.5-2.418z"/><path d="m116.106 256h-26.633c-5.519 0-10.009-4.49-10.009-10.009v-1.643c0-1.574.363-3.086 1.079-4.494.303-.597.316-1.304.274-1.792-.985-11.264-1.598-27.217 1.077-39.25 3.933-17.695.127-28.698.088-28.807-.462-1.298.211-2.729 1.507-3.196 1.293-.465 2.724.199 3.195 1.494.18.496 4.365 12.36.091 31.594-2.67 12.013-1.759 28.796-.978 37.731.142 1.632-.134 3.184-.797 4.491-.356.701-.537 1.451-.537 2.229v1.643c0 2.762 2.247 5.009 5.009 5.009h26.634c2.762 0 5.009-2.247 5.009-5.009v-1.643c0-1.005-.302-1.977-.872-2.809-1.604-2.341-2.406-4.926-2.317-7.475.329-9.497.479-23.734-.68-37.627-.115-1.375.907-2.584 2.283-2.699 1.394-.113 2.585.908 2.699 2.284 1.179 14.136 1.028 28.584.693 38.215-.063 1.861.751 3.461 1.446 4.475 1.143 1.669 1.747 3.618 1.747 5.636v1.643c.001 5.519-4.489 10.009-10.008 10.009z"/><path d="m168.169 256h-26.633c-5.519 0-10.009-4.49-10.009-10.009v-1.643c0-1.75.465-3.475 1.344-4.99.801-1.38 1.182-2.744 1.133-4.055-.369-9.902-.555-24.755.656-39.28.114-1.375 1.305-2.397 2.699-2.284 1.376.115 2.398 1.323 2.283 2.699-1.189 14.277-1.006 28.914-.643 38.679.085 2.271-.522 4.542-1.805 6.751-.437.753-.668 1.611-.668 2.481v1.643c0 2.762 2.247 5.009 5.009 5.009h26.633c2.762 0 5.009-2.247 5.009-5.009v-1.643c0-.883-.236-1.753-.684-2.515-1.001-1.704-1.452-3.552-1.305-5.346.87-10.569 1.39-25.496-1.076-36.591-.223-1.005-.423-1.988-.601-2.95-.252-1.358.646-2.662 2.003-2.914 1.356-.249 2.662.646 2.913 2.003.168.906.356 1.832.565 2.777 2.603 11.705 2.077 27.171 1.178 38.084-.079.961.302 1.838.634 2.404.898 1.53 1.372 3.275 1.372 5.047v1.643c.002 5.519-4.488 10.009-10.007 10.009z"/><path d="m188.766 206.02c-4.13 0-7.773-2.431-9.404-6.095-9.801-.865-26.829-3.744-41.545-13.197-18.98-12.192-28.604-31.301-28.604-56.795v-11.796c0-1.381 1.119-2.5 2.5-2.5s2.5 1.119 2.5 2.5v11.796c0 54.407 46.964 63.677 67.155 65.137 1.083.079 1.991.847 2.248 1.901.581 2.384 2.699 4.049 5.15 4.049 2.928 0 5.31-2.382 5.31-5.31 0-1.014-.292-2.003-.844-2.862-.367-.571-.486-1.267-.33-1.928s.575-1.229 1.16-1.576c1.639-.969 2.617-2.677 2.617-4.567 0-2.928-2.382-5.31-5.31-5.31-1.836 0-3.519.936-4.499 2.503-.515.823-1.467 1.272-2.42 1.156-16.27-1.974-28.106-9.758-35.183-23.135-5.594-10.575-6.867-22.168-6.95-30.033v-11.823c0-1.381 1.119-2.5 2.5-2.5s2.5 1.119 2.5 2.5v11.796c.137 12.936 3.984 43.267 36.313 48.04 1.941-2.219 4.732-3.504 7.738-3.504 5.685 0 10.31 4.625 10.31 10.31 0 2.834-1.19 5.533-3.209 7.459.399 1.109.605 2.282.605 3.474.001 5.685-4.624 10.31-10.308 10.31z"/><path d="m145.048 137.547c-1.059 0-2.041-.677-2.381-1.74-.42-1.315.306-2.722 1.621-3.142 7.267-2.322 11.781-6.094 11.781-9.844 0-1.381 1.119-2.5 2.5-2.5s2.5 1.119 2.5 2.5c0 6.093-5.704 11.554-15.26 14.607-.252.081-.509.119-.761.119z"/><path d="m111.84 137.249c-.271 0-.546-.044-.816-.138-9.092-3.143-14.307-8.352-14.307-14.29 0-1.381 1.119-2.5 2.5-2.5s2.5 1.119 2.5 2.5c0 3.567 4.191 7.232 10.939 9.564 1.306.451 1.997 1.875 1.547 3.18-.358 1.035-1.327 1.684-2.363 1.684z"/><path d="m188.766 206.02c-4.13 0-7.772-2.431-9.404-6.095-17.407-1.532-54.805-9.115-66.562-45.52-4.381-.882-8.662-2.143-12.751-3.755-.933-.368-1.555-1.258-1.581-2.26s.549-1.923 1.46-2.34c3.522-1.609 6.757-4.41 9.626-8.334l-.088-1.178c-2.072-.813-3.927-1.749-5.548-2.799-2.636 3.84-6.663 8.339-12.409 11.443-.79.427-1.748.397-2.512-.079-15.442-9.631-24.299-24.064-24.299-39.599 0-7.697 2.139-15.087 6.357-21.966 2.907-4.744 4.75-9.714 5.477-14.773 4.018-27.981 24.85-46.781 51.84-46.781 26.658 0 47.442 18.479 51.721 45.984.812 5.223 2.728 10.231 5.691 14.884 4.501 7.068 6.783 14.689 6.783 22.652 0 15.22-8.566 29.469-23.503 39.094-.793.51-1.804.532-2.615.057-5.483-3.203-9.316-7.636-11.836-11.423-1.756 1.228-3.832 2.324-6.164 3.252 2.912 4.327 6.217 7.438 9.842 9.261.875.44 1.413 1.351 1.375 2.329-.037.979-.644 1.846-1.549 2.217-2.179.894-4.422 1.688-6.698 2.375 5.608 14.483 16.43 22.986 32.212 25.305 1.941-2.219 4.732-3.505 7.738-3.505 5.685 0 10.31 4.625 10.31 10.31 0 2.834-1.19 5.533-3.209 7.459.399 1.109.605 2.282.605 3.474 0 5.686-4.625 10.311-10.309 10.311zm-81.976-58.299c2.739.849 5.548 1.534 8.396 2.049.928.167 1.683.843 1.951 1.746 10.69 35.891 48.479 42.415 64.229 43.553 1.082.079 1.991.847 2.248 1.901.581 2.384 2.699 4.049 5.15 4.049 2.928 0 5.31-2.382 5.31-5.31 0-1.014-.292-2.003-.844-2.862-.367-.571-.486-1.267-.33-1.928s.575-1.229 1.16-1.576c1.639-.969 2.617-2.677 2.617-4.567 0-2.928-2.382-5.31-5.31-5.31-1.836 0-3.519.936-4.499 2.503-.515.823-1.467 1.272-2.42 1.156-19.26-2.337-32.629-13.178-38.663-31.352-.218-.656-.154-1.373.176-1.98s.896-1.051 1.564-1.226c1.371-.359 2.734-.761 4.081-1.203-3.192-2.527-6.085-5.934-8.636-10.18-.2-.333-.319-.707-.35-1.093l-.066-.852c-.091-1.156.627-2.223 1.731-2.576 3.945-1.261 7.142-2.98 9.244-4.973.558-.529 1.328-.772 2.086-.659.76.113 1.426.568 1.806 1.236 1.914 3.358 5.2 7.916 10.242 11.256 12.669-8.654 19.901-20.978 19.901-34.021 0-6.997-2.019-13.714-6-19.966-3.338-5.239-5.496-10.892-6.416-16.802-3.884-24.974-22.683-41.752-46.779-41.752-24.397 0-43.242 17.076-46.891 42.492-.824 5.737-2.897 11.347-6.163 16.675-3.729 6.082-5.62 12.593-5.62 19.353 0 13.354 7.521 25.875 20.692 34.554 5.237-3.21 8.689-7.792 10.708-11.189.375-.631 1.009-1.065 1.732-1.188.725-.122 1.466.08 2.027.552 1.919 1.616 4.615 3.052 7.798 4.152.943.326 1.603 1.182 1.677 2.178l.273 3.683c.042.572-.113 1.142-.441 1.613-2.229 3.211-4.697 5.84-7.371 7.864z"/><path d="m169.243 48.63c-.422 0-.849-.107-1.24-.331-1.198-.687-1.613-2.214-.927-3.412 17.498-30.547 50.982-35.466 52.399-35.661 1.361-.195 2.629.769 2.816 2.137.188 1.367-.768 2.627-2.134 2.816-.323.045-32.495 4.829-48.744 33.193-.461.807-1.304 1.258-2.17 1.258z"/><path d="m87.112 49.259c-.876 0-1.727-.462-2.185-1.282-16.14-28.899-48.757-33.752-49.085-33.797-1.366-.19-2.321-1.452-2.133-2.819.19-1.367 1.45-2.328 2.815-2.134 1.437.197 35.385 5.187 52.769 36.312.673 1.206.242 2.729-.964 3.402-.386.215-.804.318-1.217.318z"/><path d="m193.859 133.158c-3.297 0-7.166-1.028-11.783-3.622-.604-.34-1.041-.915-1.205-1.589-.163-.674-.04-1.386.341-1.965 4.218-6.409 6.355-13.298 6.355-20.478 0-6.997-2.019-13.714-6-19.966-3.338-5.239-5.496-10.892-6.416-16.802-2.298-14.78-9.809-26.978-21.148-34.346-.688-.447-1.113-1.204-1.137-2.024s.356-1.6 1.018-2.086c11.101-8.163 27.806-19.208 44.352-25.468 21.02-7.953 36.185-6.098 45.067 5.516 9.74 12.732 4.971 20.876-.078 29.498-4.224 7.212-9.011 15.386-7.291 28.714 2.887 22.373 1.439 35.968-4.555 42.786-3.064 3.485-7.327 5.252-12.67 5.252-3.479 0-6.069 3.121-9.068 6.735-3.619 4.36-8.17 9.844-15.782 9.845zm-7.011-6.788c9.944 4.6 14.14-.458 18.945-6.25 3.484-4.2 7.088-8.542 12.916-8.542 3.896 0 6.812-1.163 8.915-3.554 4.907-5.581 6.003-18.287 3.351-38.844-1.938-15.022 3.536-24.37 7.936-31.881 4.891-8.351 8.121-13.868.422-23.933-7.385-9.653-20.616-10.957-39.328-3.877-14.683 5.555-29.598 15.079-40.338 22.773 10.904 8.261 18.109 20.804 20.427 35.707.812 5.223 2.728 10.231 5.691 14.884 4.501 7.068 6.783 14.689 6.783 22.652-.001 7.292-1.922 14.298-5.72 20.865z"/><path d="m62.134 133.151c-7.605 0-12.146-5.471-15.773-9.84-2.999-3.613-5.59-6.733-9.069-6.733-5.343 0-9.605-1.767-12.67-5.252-5.994-6.817-7.441-20.413-4.555-42.786 1.72-13.329-3.067-21.503-7.291-28.714-5.05-8.622-9.819-16.766-.079-29.498 8.926-11.669 24.191-13.488 45.365-5.403 16.6 6.338 33.316 17.433 44.417 25.624.656.484 1.035 1.258 1.015 2.073s-.437 1.569-1.115 2.021c-11.332 7.532-18.754 19.903-20.897 34.833-.824 5.737-2.897 11.347-6.163 16.675-3.729 6.082-5.62 12.593-5.62 19.353 0 7 2.023 13.723 6.014 19.98.364.57.481 1.264.325 1.922-.157.659-.573 1.225-1.155 1.571-5.048 3-9.228 4.174-12.749 4.174zm-26.898-128.15c-8.092 0-14.305 2.79-18.569 8.365-7.699 10.065-4.468 15.582.423 23.933 4.399 7.511 9.874 16.859 7.936 31.881-2.652 20.558-1.557 33.264 3.351 38.844 2.103 2.391 5.019 3.554 8.915 3.554 5.827 0 9.431 4.341 12.916 8.539 4.954 5.967 9.272 11.175 19.923 5.775-3.605-6.422-5.432-13.269-5.432-20.388 0-7.697 2.139-15.087 6.357-21.966 2.907-4.744 4.75-9.714 5.477-14.773 2.163-15.069 9.288-27.795 20.196-36.22-10.746-7.729-25.696-17.317-40.45-22.949-8.025-3.064-15.05-4.595-21.043-4.595z"/><path d="m117.371 111.496c-.772 0-1.534-.357-2.023-1.03-.812-1.117-.565-2.68.551-3.492l.61-.444c6.694-4.868 15.883-4.658 22.346.514 1.078.863 1.253 2.436.391 3.514-.864 1.077-2.437 1.252-3.514.39-4.71-3.768-11.404-3.922-16.281-.374l-.61.444c-.445.322-.96.478-1.47.478z"/><path d="m113.927 100.11c-.772 0-1.535-.357-2.024-1.03-.812-1.117-.564-2.68.553-3.492l.82-.597c8.695-6.324 20.63-6.047 29.023.667 1.078.862 1.253 2.436.391 3.514-.863 1.078-2.436 1.252-3.514.391-6.644-5.313-16.084-5.529-22.959-.527l-.822.597c-.444.322-.958.477-1.468.477z"/><path d="m97.308 88.287c-1.377 0-2.495-1.113-2.5-2.491-.008-2.168.83-4.209 2.358-5.748s3.563-2.389 5.732-2.396h.025c4.463 0 8.102 3.624 8.117 8.09.005 1.381-1.11 2.504-2.491 2.509-.003 0-.006 0-.009 0-1.377 0-2.495-1.113-2.5-2.491-.006-1.715-1.403-3.107-3.117-3.107-.003 0-.006 0-.01 0-.832.003-1.614.33-2.201.92s-.908 1.374-.905 2.206c.005 1.381-1.11 2.504-2.491 2.509-.003-.001-.005-.001-.008-.001z"/><path d="m146.122 88.287c-1.377 0-2.495-1.113-2.5-2.491-.008-2.168.83-4.209 2.358-5.748s3.563-2.389 5.732-2.396h.025c4.463 0 8.102 3.624 8.117 8.09.005 1.381-1.11 2.504-2.491 2.509-.003 0-.006 0-.009 0-1.377 0-2.495-1.113-2.5-2.491-.006-1.715-1.403-3.107-3.117-3.107-.003 0-.006 0-.01 0-.832.003-1.614.33-2.201.92s-.908 1.374-.905 2.206c.005 1.381-1.11 2.504-2.491 2.509-.002-.001-.005-.001-.008-.001z"/><path d="m148.303 256h-6.767c-2.203 0-4.301-.715-6.066-2.069-.77-.589-1.129-1.57-.922-2.517 1.396-6.403 4.295-10.076 7.953-10.076 3.983 0 7.074 4.396 8.27 11.761.117.724-.089 1.462-.563 2.021-.477.558-1.172.88-1.905.88zm-8.414-5.284c.526.188 1.08.284 1.647.284h3.66c-.991-3.436-2.336-4.662-2.695-4.662-.328 0-1.611 1.092-2.612 4.378z"/><path d="m160.277 256h-11.603c-.733 0-1.429-.322-1.904-.88-.475-.559-.681-1.297-.563-2.021 1.195-7.365 4.286-11.761 8.269-11.761s7.074 4.396 8.27 11.761c.117.724-.089 1.462-.563 2.021-.477.558-1.172.88-1.906.88zm-8.496-5h5.39c-.991-3.436-2.336-4.662-2.695-4.662s-1.705 1.226-2.695 4.662z"/><path d="m168.169 256h-7.521c-.733 0-1.43-.322-1.904-.88-.475-.559-.681-1.297-.563-2.021 1.196-7.364 4.288-11.761 8.27-11.761 3.711 0 6.722 3.952 8.052 10.57.207 1.031-.253 2.081-1.15 2.628-1.574.958-3.366 1.464-5.184 1.464zm-4.414-5h4.414c.317 0 .635-.032.946-.094-1.002-3.427-2.32-4.568-2.665-4.568-.359 0-1.703 1.225-2.695 4.662z"/><path d="m116.106 256h-7.521c-.733 0-1.429-.322-1.904-.88-.475-.559-.681-1.297-.563-2.021 1.195-7.365 4.286-11.761 8.27-11.761 3.71 0 6.72 3.951 8.052 10.57.207 1.031-.253 2.081-1.15 2.628-1.573.958-3.365 1.464-5.184 1.464zm-4.414-5h4.414c.317 0 .635-.032.946-.093-1.003-3.427-2.321-4.568-2.665-4.568-.359-.001-1.703 1.225-2.695 4.661z"/><path d="m96.24 256h-6.768c-2.201 0-4.299-.715-6.065-2.068-.771-.589-1.13-1.57-.923-2.518 1.396-6.403 4.295-10.076 7.954-10.076 3.983 0 7.074 4.396 8.27 11.761.117.724-.089 1.462-.563 2.021-.476.558-1.171.88-1.905.88zm-8.415-5.284c.526.188 1.081.284 1.647.284h3.661c-.991-3.436-2.336-4.662-2.695-4.662-.328 0-1.612 1.091-2.613 4.378z"/><path d="m108.215 256h-11.604c-.733 0-1.429-.322-1.904-.88-.475-.559-.681-1.297-.563-2.021 1.195-7.365 4.286-11.761 8.27-11.761 3.981 0 7.073 4.396 8.27 11.761.117.724-.089 1.462-.563 2.021-.476.558-1.173.88-1.906.88zm-8.497-5h5.391c-.992-3.437-2.336-4.662-2.695-4.662s-1.705 1.226-2.696 4.662z"/><path d="m184.752 183.145c-.101 0-.201-.006-.302-.018-19.26-2.337-32.629-13.178-38.663-31.352-.218-.656-.154-1.373.176-1.98s.896-1.051 1.564-1.226c2.931-.767 5.826-1.731 8.606-2.867.662-.3 1.448-.31 2.15.041.003.001.006.002.009.004 4.941 2.486 9.788 2.186 13.295 1.328-1.734-.631-3.421-1.43-5.127-2.427-.751-.438-1.22-1.235-1.238-2.104-.02-.869.414-1.685 1.145-2.156 4.278-2.758 8.198-6.136 11.336-9.769.577-.668 1.459-.983 2.332-.827.868.155 1.591.757 1.9 1.583 2.698 7.2 4.753 15.407 6.106 24.393.988 6.555 2.849 13.386 5.531 20.302.296.762.199 1.621-.257 2.3-.457.678-1.216 1.09-2.034 1.104-1.804.029-3.453.962-4.412 2.495-.459.738-1.264 1.176-2.117 1.176zm-33.333-30.478c5.608 14.483 16.431 22.986 32.214 25.306 1.153-1.315 2.61-2.304 4.235-2.889-2.26-6.307-3.862-12.541-4.77-18.569-1.066-7.073-2.577-13.626-4.502-19.542-1.844 1.82-3.852 3.549-5.975 5.146.528.21 1.061.401 1.599.573 1.949.622 3.247 2.419 3.229 4.472-.019 2.044-1.343 3.809-3.294 4.393-4.194 1.256-10.476 2.077-17.069-.851-1.853.727-3.748 1.383-5.667 1.961z"/><path d="m210.585 250.815c-1.453 0-2.904-.169-4.342-.52-13.611-3.317-20.88-21.628-16.203-40.818 4.678-19.189 19.566-32.101 33.167-28.785 13.611 3.317 20.88 21.628 16.203 40.818-4.182 17.162-16.527 29.305-28.825 29.305zm8.175-65.655c-9.992 0-20.235 10.619-23.862 25.501-4.023 16.511 1.597 32.112 12.529 34.777 10.925 2.66 23.103-8.6 27.126-25.111s-1.597-32.112-12.529-34.777c-1.079-.263-2.17-.39-3.264-.39z"/><path d="m46.304 250.815c-12.299 0-24.643-12.142-28.825-29.305-4.677-19.189 2.592-37.5 16.203-40.818 13.613-3.32 28.49 9.595 33.167 28.785 4.677 19.189-2.592 37.5-16.203 40.818-1.438.351-2.89.52-4.342.52zm-8.175-65.655c-1.094 0-2.185.127-3.264.39-10.933 2.665-16.553 18.266-12.529 34.777 4.024 16.51 16.19 27.771 27.126 25.111 10.933-2.665 16.553-18.266 12.529-34.777-3.627-14.881-13.871-25.501-23.862-25.501z"/><path d="m166.541 152.7c-7.139 0-16.118-3.113-23.568-15.514-.2-.333-.319-.707-.35-1.093l-.066-.852c-.091-1.156.627-2.223 1.731-2.576 3.945-1.261 7.142-2.98 9.244-4.973.558-.529 1.328-.772 2.086-.659.76.113 1.426.568 1.806 1.235 2.879 5.052 8.129 11.656 16.796 14.421 1.95.622 3.248 2.42 3.229 4.473-.019 2.044-1.343 3.809-3.294 4.393-2.074.623-4.69 1.145-7.614 1.145zm-18.092-16.215c7.635 11.349 16.535 12.219 23.138 10.591-8.175-2.948-13.585-8.719-16.977-13.841-1.756 1.227-3.831 2.323-6.161 3.25zm24.251 10.97h.01z"/><path d="m92.299 152.692c-2.938 0-5.546-.526-7.581-1.136-1.951-.584-3.275-2.349-3.294-4.393-.019-2.053 1.279-3.851 3.229-4.473 8.396-2.68 13.578-8.995 16.445-13.821.375-.631 1.009-1.066 1.732-1.188.725-.122 1.466.08 2.027.552 1.919 1.616 4.615 3.052 7.798 4.152.943.326 1.603 1.182 1.677 2.178l.273 3.683c.042.572-.113 1.142-.441 1.613-7.102 10.204-15.303 12.833-21.865 12.833zm-5.013-5.616c6.252 1.538 14.79.873 22.268-9.361l-.088-1.178c-2.071-.813-3.925-1.749-5.547-2.798-3.359 4.91-8.685 10.469-16.633 13.337z"/></svg>