<?xml version="1.0" encoding="UTF-8" standalone="no"?>
<svg
   preserveAspectRatio="xMinYMid"
   viewbox="0 0 60 60"
   version="1.1"
   id="svg1096"
   xmlns="http://www.w3.org/2000/svg"
   xmlns:svg="http://www.w3.org/2000/svg"
   xmlns:rdf="http://www.w3.org/1999/02/22-rdf-syntax-ns#"
   xmlns:cc="http://creativecommons.org/ns#"
   xmlns:dc="http://purl.org/dc/elements/1.1/">
  <defs
     id="defs1061">
    <style
       id="style1059">.cls-1{fill:#a25ac4;}.cls-2{fill:#fff;}</style>
  </defs>
  <title
     id="title1063">estilos iconos paraeducaand_adultos</title>
  <rect
     class="cls-1"
     width="60"
     height="60"
     rx="8.1300001"
     id="rect1065"
     x="0"
     y="0" />
  <metadata
     id="metadata1157">
    <rdf:RDF>
      <cc:Work
         rdf:about="">
        <dc:title>estilos iconos paraeducaand_adultos</dc:title>
      </cc:Work>
    </rdf:RDF>
  </metadata>
  <g
     id="g1388"
     transform="translate(-91.935484,-15.025467)">
    <g
       id="g1250"
       transform="translate(34.074703,-3.3616301)"
       style="fill:#ffffff">
      <g
         id="g989"
         transform="translate(59.855197,18.406393)"
         style="fill:#ffffff">
        <path
           class="st1"
           d="m 19.9,20.8 c 4.4,-9 20.6,-6.2 21.6,6.1 0.8,9.2 -0.7,29 -14.6,24.4 C 20.3,49.1 25.8,38.8 25.1,36.1 24.3,32.9 16.5,27.8 19.9,20.8 Z"
           id="path977"
           style="fill:#ffffff" />
        <path
           class="st1"
           d="m 21.5,12.4 c 1.1,2.4 0.5,5 -1.4,5.9 -1.9,0.9 -4.3,-0.4 -5.4,-2.7 -1.1,-2.4 -0.5,-5 1.4,-5.9 1.9,-0.9 4.3,0.3 5.4,2.7 z"
           id="path979"
           style="fill:#ffffff" />
        <path
           class="st1"
           d="m 28,11 c 0.2,1.8 -0.8,3.4 -2.3,3.5 -1.4,0.1 -2.7,-1.2 -2.9,-3 -0.2,-1.8 0.8,-3.4 2.3,-3.5 1.4,-0.1 2.7,1.2 2.9,3 z"
           id="path981"
           style="fill:#ffffff" />
        <path
           class="st1"
           d="M 33.9,11.3 C 33.7,13 32.5,14.2 31.2,14 29.9,13.8 29,12.4 29.2,10.7 29.4,9 30.6,7.8 31.9,8 c 1.3,0.2 2.2,1.7 2,3.3 z"
           id="path983"
           style="fill:#ffffff" />
        <path
           class="st1"
           d="m 38.6,13.6 c -0.4,1.5 -1.7,2.4 -2.9,2.1 -1.2,-0.3 -1.8,-1.8 -1.3,-3.3 0.4,-1.5 1.7,-2.4 2.9,-2.1 1.2,0.4 1.7,1.9 1.3,3.3 z"
           id="path985"
           style="fill:#ffffff" />
        <path
           class="st1"
           d="m 41.4,17.5 c -0.6,1 -1.8,1.4 -2.6,0.9 -0.8,-0.5 -0.9,-1.7 -0.3,-2.8 0.6,-1 1.8,-1.4 2.6,-0.9 0.9,0.6 1,1.8 0.3,2.8 z"
           id="path987"
           style="fill:#ffffff" />
      </g>
    </g>
  </g>
</svg>
