<?xml version="1.0" encoding="UTF-8"?>
<svg preserveAspectRatio="xMinYMid" version="1.1" viewbox="0 0 60 60" xmlns="http://www.w3.org/2000/svg" xmlns:cc="http://creativecommons.org/ns#" xmlns:dc="http://purl.org/dc/elements/1.1/" xmlns:rdf="http://www.w3.org/1999/02/22-rdf-syntax-ns#">
 <defs>
  <style>.cls-1{fill:#0065ab;}.cls-2{fill:#fff;}</style>
 </defs>
 <title>estilos iconos paraeducaand_adultos</title>
 <metadata>
  <rdf:RDF>
   <cc:Work rdf:about="">
    <dc:title>estilos iconos paraeducaand_adultos</dc:title>
   </cc:Work>
  </rdf:RDF>
 </metadata>
 <circle class="cls-1" cx="30" cy="30" r="30"/>
 <g transform="matrix(3.7795 0 0 3.7795 -272.55 -627.46)" fill="#fff" stroke-width=".26458">
  <path class="st1" d="m76.549 173.73h0.47625c0.23812 0 0.42333-0.23812 0.42333-0.55562v-2.0902-0.10583-0.10584c0-1.1642 1.1642-2.0902 2.6194-2.0902s2.6194 0.9525 2.6194 2.0902v0.13229 0.10584 2.0902c0 0.3175 0.18521 0.55562 0.42333 0.55562h0.47625c0.23812 0 0.42333-0.23812 0.42333-0.55562v-2.0902c0-0.3175-0.18521-0.55563-0.42333-0.55563h-0.47625c-0.18521-1.2435-1.4817-2.2225-3.0427-2.2225s-2.831 0.97896-3.0427 2.2225h-0.47625c-0.23812 0-0.42333 0.23813-0.42333 0.55563v2.0902c0 0.29104 0.18521 0.52916 0.42333 0.52916zm6.9585-2.7517c0.02646 0.0264 0.02646 0.0794 0.02646 0.10583v2.0902c0 0.0265 0 0.0794-0.02646 0.10583h-0.37042c0-0.0265-0.02646-0.0794-0.02646-0.10583v-2.196h0.39688zm-6.9321 0.10583c0-0.0265 0-0.0794 0.02646-0.10583h0.37042v2.196c0 0.0265 0 0.0794-0.02646 0.10583h-0.34396c0-0.0265-0.02646-0.0794-0.02646-0.10583z"/>
  <path class="st1" d="m84.301 176.45c-0.05292-0.0529-0.13229-0.13229-0.21167-0.18521-0.37042-0.23812-0.76729-0.37041-1.1906-0.44979-0.58208-0.13229-1.1377-0.26458-1.5346-0.79375h-0.02646c-0.02646-0.0794-0.02646-0.34396 0.34396-0.82021 0.84667-1.0319 0.66146-2.6723 0.58208-3.175-0.21167-1.0583-1.1642-1.7992-2.2225-1.7727-1.0848-0.0265-2.0108 0.74084-2.2225 1.7727-0.07937 0.47625-0.26458 2.1167 0.58208 3.175 0.39688 0.47625 0.39688 0.76729 0.34396 0.82021-0.39688 0.52917-0.9525 0.66146-1.5346 0.79375-0.42333 0.0794-0.84667 0.21167-1.1906 0.44979-0.89958 0.635-0.71438 2.0108-0.71438 2.0638l0.02646 0.18521h9.4456l0.02646-0.18521c-0.02646-0.0265 0.15875-1.1906-0.50271-1.8785zm0.05292 1.6404h-8.6519c-0.02646-0.34396 0.02646-1.0848 0.52917-1.4552 0.3175-0.18521 0.66146-0.3175 1.0319-0.37042 0.60854-0.13229 1.2965-0.29104 1.7992-0.9525 0.07937-0.0794 0.34396-0.52916-0.37042-1.3758-0.74083-0.89958-0.55562-2.3812-0.47625-2.8046 0.18521-0.84667 0.92604-1.4288 1.7992-1.4023 0.84667-0.0265 1.614 0.58209 1.7992 1.4023 0.07937 0.42333 0.23812 1.905-0.47625 2.8046-0.68792 0.84667-0.42333 1.2965-0.37042 1.3758 0.50271 0.66146 1.1906 0.82021 1.7992 0.9525 0.37042 0.0529 0.71438 0.18521 1.0319 0.37042 0.05292 0.0265 0.10583 0.0794 0.13229 0.13229 0.39688 0.37042 0.42333 1.0054 0.42333 1.3229z"/>
 </g>
</svg>
