<?xml version="1.0" encoding="UTF-8" standalone="no"?>
<svg
   xmlns:dc="http://purl.org/dc/elements/1.1/"
   xmlns:cc="http://creativecommons.org/ns#"
   xmlns:rdf="http://www.w3.org/1999/02/22-rdf-syntax-ns#"
   xmlns:svg="http://www.w3.org/2000/svg"
   xmlns="http://www.w3.org/2000/svg"
   xmlns:sodipodi="http://sodipodi.sourceforge.net/DTD/sodipodi-0.dtd"
   xmlns:inkscape="http://www.inkscape.org/namespaces/inkscape"
   version="1.1"
   width="512"
   height="512"
   x="0"
   y="0"
   viewBox="0 0 512 512"
   style="enable-background:new 0 0 512 512"
   xml:space="preserve"
   class=""
   id="svg6"
   sodipodi:docname="mapaminimizar1.svg"
   inkscape:version="0.92.3 (2405546, 2018-03-11)"><metadata
     id="metadata12"><rdf:RDF><cc:Work
         rdf:about=""><dc:format>image/svg+xml</dc:format><dc:type
           rdf:resource="http://purl.org/dc/dcmitype/StillImage" /></cc:Work></rdf:RDF></metadata><defs
     id="defs10" /><sodipodi:namedview
     pagecolor="#ffffff"
     bordercolor="#666666"
     borderopacity="1"
     objecttolerance="10"
     gridtolerance="10"
     guidetolerance="10"
     inkscape:pageopacity="0"
     inkscape:pageshadow="2"
     inkscape:window-width="1280"
     inkscape:window-height="751"
     id="namedview8"
     showgrid="false"
     inkscape:zoom="0.4609375"
     inkscape:cx="-184.40678"
     inkscape:cy="256"
     inkscape:window-x="0"
     inkscape:window-y="0"
     inkscape:window-maximized="1"
     inkscape:current-layer="svg6" /><g
     id="g4"><path
       d="m512 256v224c0 17.673-14.327 32-32 32h-448c-17.673 0-32-14.327-32-32v-448c0-17.673 14.327-32 32-32h224c17.673 0 32 14.327 32 32s-14.327 32-32 32h-192v384h384v-192c0-17.673 14.327-32 32-32s32 14.327 32 32zm-224-91.2c0-17.673-14.327-32-32-32s-32 14.327-32 32v91.2c0 17.673 14.327 32 32 32h91.2c17.673 0 32-14.327 32-32s-14.327-32-32-32h-13.944l169.372-169.372c12.496-12.497 12.496-32.759 0-45.256-12.498-12.496-32.758-12.496-45.256 0l-169.372 169.372z"
       fill="#eb0000"
       data-original="#000000"
       style="fill:#ff0000;fill-opacity:1"
       class=""
       id="path2" /></g></svg>