<svg id="Capa_1" data-name="Capa 1" xmlns="http://www.w3.org/2000/svg" viewBox="0 0 283.46 283.46"><defs><style>.cls-1{fill:#8a5fa0;}.cls-2{fill:#8c5da3;}.cls-3{fill:#1266a8;}.cls-4{fill:#498e33;}.cls-5{fill:#4b8e33;}</style></defs><path class="cls-1" d="M55.22,119.49a5.84,5.84,0,0,0-1.78-.49,19.07,19.07,0,0,0-2.22-.12H46.78v6.44h4.44a19.07,19.07,0,0,0,2.22-.12,5.84,5.84,0,0,0,1.78-.49,3,3,0,0,0,1.17-1,2.7,2.7,0,0,0,.43-1.6,2.83,2.83,0,0,0-.43-1.62A3,3,0,0,0,55.22,119.49Z"/><path class="cls-2" d="M51,88.82a38.64,38.64,0,1,0,38.64,38.64A38.64,38.64,0,0,0,51,88.82Zm6.57,52.91L49.81,131h-3v10.77H40V113.19H51a31.81,31.81,0,0,1,5.15.39,12,12,0,0,1,4.1,1.37A7.06,7.06,0,0,1,63,117.66,8.82,8.82,0,0,1,64,122a9.9,9.9,0,0,1-.32,2.43,7.08,7.08,0,0,1-1.09,2.33,8,8,0,0,1-2.09,2,11.16,11.16,0,0,1-3.38,1.46l8.29,11.49Z"/><path class="cls-3" d="M168.55,163.62H111.47a7.62,7.62,0,0,1-7.61-7.62V98.92a7.62,7.62,0,0,1,7.61-7.62h57.08a7.63,7.63,0,0,1,7.62,7.62V156A7.63,7.63,0,0,1,168.55,163.62ZM111.47,94.15a4.78,4.78,0,0,0-4.77,4.77V156a4.78,4.78,0,0,0,4.77,4.77h57.08a4.78,4.78,0,0,0,4.77-4.77V98.92a4.78,4.78,0,0,0-4.77-4.77Z"/><path class="cls-3" d="M129,113.19h22v5.94H135.78v5h9.27V130h-9.27v5.77H151v5.94H129Z"/><path class="cls-4" d="M268.58,123.6,234,88a5.2,5.2,0,0,0-7.5,0L191.9,123.6a5.57,5.57,0,0,0,0,7.72l34.59,35.62a5.2,5.2,0,0,0,7.5,0l34.59-35.62A5.57,5.57,0,0,0,268.58,123.6Zm-31.37,18.13-1.66-5.09H224.93l-1.66,5.09h-7.14l10.5-28.54h7.22l10.49,28.54Z"/><polygon class="cls-5" points="226.21 131.18 233.34 131.18 229.74 120.33 226.21 131.18"/><path class="cls-5" d="M24.43,179.31h2.74l6.52,17.46H31.08L29.75,193H21.82l-1.33,3.81H17.88Zm-1.85,11.54H29l-3.21-9.06Z"/><path class="cls-5" d="M49,196.77V179.34h3.63l7.93,14.82V179.34H63v17.43h-3.6l-8-14.9v14.9Z"/><path class="cls-5" d="M84.75,179.34a15.75,15.75,0,0,1,3.83.43,7.93,7.93,0,0,1,3,1.43,6.63,6.63,0,0,1,2,2.68,10.66,10.66,0,0,1,.71,4.15,10.82,10.82,0,0,1-.71,4.18,6.53,6.53,0,0,1-2,2.69,7.94,7.94,0,0,1-3,1.44,16.26,16.26,0,0,1-3.83.43H80V179.34Zm-2.29,15.37H84.7a15.89,15.89,0,0,0,2.62-.21,5.43,5.43,0,0,0,2.26-.9,4.82,4.82,0,0,0,1.59-2,8.76,8.76,0,0,0,.6-3.55,8.59,8.59,0,0,0-.6-3.53,4.79,4.79,0,0,0-1.59-2,5.43,5.43,0,0,0-2.26-.9,15.89,15.89,0,0,0-2.62-.21H82.46Z"/><path class="cls-5" d="M114.45,179.31h2.74l6.52,17.46H121.1L119.77,193h-7.93l-1.33,3.81H107.9Zm-1.86,11.54H119l-3.21-9.06Z"/><path class="cls-5" d="M139,179.34h2.45v15.31h9.37v2.12H139Z"/><path class="cls-5" d="M168,189.67a6.47,6.47,0,0,0,1,3.94,5.27,5.27,0,0,0,7.07,0,6.4,6.4,0,0,0,1-3.94V179.34h2.46v10.15a13,13,0,0,1-.38,3.32,5.68,5.68,0,0,1-1.23,2.38,5.11,5.11,0,0,1-2.18,1.42,9.79,9.79,0,0,1-3.23.47,9.9,9.9,0,0,1-3.24-.47,5,5,0,0,1-2.16-1.42,5.92,5.92,0,0,1-1.23-2.38,12.55,12.55,0,0,1-.39-3.32V179.34H168Z"/><path class="cls-5" d="M208,180a6.6,6.6,0,0,1,2.64,2.93l-2.13.78a5,5,0,0,0-1.74-1.92,5.09,5.09,0,0,0-2.86-.74,5.2,5.2,0,0,0-2.15.44,5,5,0,0,0-1.75,1.32,6.37,6.37,0,0,0-1.16,2.18,10.8,10.8,0,0,0,0,5.93,6.34,6.34,0,0,0,1.15,2.19,5,5,0,0,0,4,1.87,5.21,5.21,0,0,0,2.87-.73,4.78,4.78,0,0,0,1.75-1.93l2.14.78a6.4,6.4,0,0,1-2.77,3,8.54,8.54,0,0,1-4.15,1,8,8,0,0,1-3.33-.66,7.08,7.08,0,0,1-2.48-1.87,8.36,8.36,0,0,1-1.56-2.87,12.1,12.1,0,0,1-.53-3.65,11.36,11.36,0,0,1,.57-3.7,8.52,8.52,0,0,1,1.63-2.84,7.24,7.24,0,0,1,2.56-1.83A8.58,8.58,0,0,1,204,179,7.68,7.68,0,0,1,208,180Z"/><path class="cls-5" d="M226.51,181.27v-1.93h7.36v1.93h-2.46v13.57h2.46v1.93h-7.36v-1.93H229V181.27Zm3.08-4.4.84-.87.89-.9a7.27,7.27,0,0,1,.59-.56,1.15,1.15,0,0,1,.76-.31.92.92,0,0,1,.93.93,1,1,0,0,1-.41.84,3.29,3.29,0,0,1-.48.36l-.67.42-.61.37a1.31,1.31,0,0,0-.33.21h-2Z"/><path class="cls-5" d="M255.44,179.31h2.74l6.53,17.46H262.1L260.77,193h-7.94l-1.33,3.81h-2.61Zm-1.85,11.54H260l-3.21-9.06Z"/></svg>