<svg enable-background="new 0 0 256 256" height="512" viewBox="0 0 256 256" width="512" xmlns="http://www.w3.org/2000/svg"><path d="m198.316 235.004 11.267-26.693c15.293-42.919-2.454-51.994-20.671-51.817 1.828 22.015-1.075 48.161-15.846 74.176-1.763 3.105-.917 6.942 1.954 9.185 1.8 1.407 3.755 3.182 5.349 5.237 2.397 3.088.526 7.303-3.108 8.22l.187.188h37.318c3.187-13.589-8.933-15.575-14.714-15.766-1.377-.045-2.271-1.462-1.736-2.73z" fill="#f89422"/><path d="m75.631 245.092c1.595-2.055 3.549-3.83 5.349-5.237 2.871-2.243 3.717-6.08 1.954-9.185-14.772-26.014-17.674-52.161-15.846-74.176-18.216-.177-35.963 8.898-20.671 51.817l11.267 26.693c.535 1.268-.36 2.685-1.735 2.731-5.782.191-17.901 2.176-14.714 15.766h37.318l.187-.188c-3.635-.918-5.506-5.133-3.109-8.221z" fill="#f89422"/><path d="m172.957 35.069c6.787-1.349 16.574-4.869 19.039-14.046 3.869-14.41-20.878-23.782-23.154-15.305-1.878 6.992-9.518 12.432-12.138 14.124 6.398 3.921 11.931 9.115 16.253 15.227z" fill="#f89422"/><path d="m83.043 35.069c4.322-6.113 9.854-11.307 16.253-15.228-2.62-1.692-10.26-7.132-12.138-14.124-2.276-8.477-27.024.895-23.154 15.305 2.465 9.178 12.252 12.698 19.039 14.047z" fill="#f89422"/><path d="m200.639 76.83s-4.24-.012-11.081-5.605l5.629-7.112s-6.089-.019-13.626-10.01c-5.742-24.271-27.534-42.336-53.56-42.336s-47.819 18.065-53.561 42.336c-7.537 9.991-13.626 10.01-13.626 10.01l5.629 7.112c-6.842 5.593-11.081 5.605-11.081 5.605 4.427 8.822 14.206 11.782 14.206 11.782l-9.856 3.363c7.901 16.476 18.147 27.059 37.36 27.951-3.167-5.098-2.719-11.724.877-16.603 4.116-5.586 11.414-7.685 17.81-5.278-.956.652-1.531 1.525-1.531 2.716 0 4.228 7.061 10.208 13.772 10.208s13.772-5.979 13.772-10.208c0-1.191-.575-2.064-1.531-2.716 6.396-2.407 13.694-.308 17.81 5.278 3.595 4.88 4.044 11.505.877 16.603 19.213-.892 29.459-11.475 37.36-27.951l-9.856-3.363s9.78-2.959 14.207-11.782z" fill="#f89422"/><path d="m175.019 239.855c-2.871-2.243-3.717-6.08-1.954-9.185 26.584-46.817 14.746-94.064 6.029-116.862-5.439 3.598-11.988 5.739-20.166 6.119-.14.225-.277.452-.431.671-2.589 3.678-6.575 5.824-10.766 6.156.646-.046 1.287-.133 1.92-.263-3.799 8.146-12.057 13.794-21.638 13.794-9.591 0-17.854-5.66-21.648-13.819-3.473-.746-6.67-2.752-8.863-5.868-.154-.219-.291-.445-.431-.671-8.179-.38-14.728-2.521-20.168-6.12-8.717 22.802-20.55 70.053 6.03 116.863 1.763 3.105.917 6.942-1.954 9.185-1.8 1.407-3.755 3.182-5.349 5.237-2.703 3.483.016 8.408 4.579 8.408h26.44c3.05 0 5.446-2.278 5.606-5.033 4.898 1.758 10.196 2.743 15.744 2.743s10.846-.984 15.744-2.743c0-.004 0-.007 0-.011.155 2.76 2.552 5.044 5.606 5.044h26.44c4.562 0 7.282-4.925 4.579-8.408-1.594-2.055-3.549-3.83-5.349-5.237z" fill="#f89422"/><path d="m233.357 101.08c10.193-2.987 5.855-18.953-4.397-15.949-32.833 9.62-45.032 36.126-21.889 58.945 6.63 6.537 16.675 13.026 10.153 27.997-.609 1.398-1.334 2.711-2.139 3.96.803 6.33-.038 14.557-3.189 25.19 5.119-3.217 9.832-7.013 13.754-11.761 8.345-10.103 12.899-24.576 8.252-37.316-5.093-13.965-17.051-18.786-21.133-27.038-6.434-13.004 10.978-21.212 20.588-24.028z" fill="#f89422"/><path d="m141.772 100.762c0 4.228-7.061 10.208-13.772 10.208s-13.772-5.979-13.772-10.208c0-4.228 7.061-4.554 13.772-4.554s13.772.326 13.772 4.554z" fill="#7d3d1a"/><path d="m158.052 103.324c-4.116-5.586-11.414-7.685-17.81-5.278.955.652 1.531 1.525 1.531 2.716 0 4.228-7.061 10.208-13.772 10.208s-13.772-5.979-13.772-10.208c0-1.191.575-2.064 1.531-2.716-6.396-2.407-13.694-.308-17.81 5.278-3.754 5.095-4.089 12.098-.446 17.274 3.768 5.353 10.493 7.46 16.507 5.455l13.99-4.663 13.99 4.663c6.015 2.005 12.739-.102 16.507-5.455 3.642-5.176 3.308-12.179-.446-17.274z" fill="#f4dbce"/><path d="m142.134 126.053-13.99-4.663-13.99 4.663c-2.568.856-5.263.956-7.804.381 3.787 8.177 12.06 13.851 21.664 13.851 9.581 0 17.839-5.648 21.638-13.794-2.458.504-5.047.385-7.518-.438z" fill="#f4dbce"/><path d="m144.913 133.263c-4.32 4.336-10.295 7.022-16.9 7.022-6.614 0-12.595-2.693-16.915-7.039-5.52 8.894-9.02 22.056-9.02 36.755 0 26.786 11.606 48.5 25.922 48.5s25.922-21.714 25.922-48.5c0-14.69-3.495-27.845-9.009-36.738z" fill="#f4dbce"/><path d="m200.051 237.734c-.648-.021-1.181-.352-1.517-.823-6.879 2.147-9.617 7.067-17.535.589-3.556-2.909-6.629-2.502-8.617-1.614.395 1.513 1.29 2.917 2.636 3.969 1.8 1.406 3.755 3.182 5.349 5.237 2.397 3.088.526 7.303-3.108 8.22l.187.188h37.318c3.188-13.589-8.931-15.575-14.713-15.766z" fill="#f4dbce"/><path d="m78.739 253.312c-3.635-.917-5.505-5.132-3.108-8.22 1.595-2.055 3.549-3.83 5.349-5.237 1.346-1.052 2.241-2.456 2.636-3.969-1.988-.888-5.061-1.295-8.617 1.614-7.918 6.478-10.655 1.558-17.535-.589-.336.471-.869.802-1.517.823-5.782.191-17.901 2.176-14.714 15.766h37.318z" fill="#f4dbce"/><path d="m109.298 238.084c-6.55-.379-9.928 4.759-16.798-.584-2.829-2.2-6.126-2.682-8.693-2.624-.208 1.891-1.184 3.695-2.826 4.979-1.8 1.407-3.755 3.182-5.349 5.237-2.703 3.483.016 8.408 4.579 8.408h26.44c3.05 0 5.446-2.278 5.606-5.033.178-3.085-2.289-7.853-2.959-10.383z" fill="#f4dbce"/><path d="m180.369 245.092c-1.595-2.055-3.549-3.83-5.349-5.237-1.64-1.282-2.616-3.084-2.825-4.972-2.389.085-5.221.694-7.694 2.617-7.22 5.616-10.583-.346-17.824.687-.322 1.193-.743 2.363-1.261 3.501-1.653 3.633-1.747 7.194-1.671 6.767.155 2.76 2.552 5.044 5.606 5.044h26.44c4.561.001 7.281-4.924 4.578-8.407z" fill="#f4dbce"/><g fill="#52565b"><path d="m149.959 20.339c-3.364-3.542-7.389-6.074-11.698-7.605-3.325-.627-6.753-.966-10.261-.966-3.311 0-6.553.296-9.702.856-4.204 1.445-8.151 3.845-11.499 7.206l-5.907 5.931c28.946-11.47 53.554-.124 54.215 0z"/><path d="m146.593 34.499c-9.867-8.611-26.432-8.773-36.544-.357l-5.001 4.162c24.64-8.093 45.274-.098 45.905 0z"/><path d="m69.118 220.848c.939-.386.697-1.774-.316-1.825-4.122-.208-10.841-.821-19.011-2.719l3.732 8.841c4.035-.293 8.005-1.172 11.741-2.71z"/><path d="m45.418 205.378c3.476-.079 6.923-.637 10.219-1.737l3.628-1.21c.883-.295.75-1.58-.175-1.691-3.555-.424-9.219-1.331-16.047-3.33.646 2.505 1.442 5.166 2.375 7.968z"/><path d="m42.126 170.637c-1.111 3.257-1.653 7.202-1.463 11.96 7.134 2.851 14.83 4.113 22.404 3.292l4.656-.504c-.109-.828-.211-1.654-.303-2.476-5.638-1.997-14.869-5.774-25.294-12.272z"/><path d="m187.198 219.023c-1.014.051-1.255 1.439-.316 1.825l3.855 1.586c3.736 1.538 7.706 2.417 11.741 2.71l3.732-8.841c-8.171 1.898-14.89 2.512-19.012 2.72z"/><path d="m196.91 200.74c-.925.11-1.059 1.396-.175 1.691l3.628 1.21c3.296 1.1 6.743 1.658 10.219 1.737.933-2.802 1.729-5.463 2.375-7.968-6.827 2-12.491 2.906-16.047 3.33z"/><path d="m188.277 185.384 4.656.504c7.574.821 15.27-.441 22.404-3.292.189-4.757-.352-8.703-1.463-11.96-10.425 6.498-19.655 10.275-25.293 12.271-.093.824-.195 1.649-.304 2.477z"/><path d="m142.792 49.157c-7.85-7.813-21.029-7.96-29.074-.324l-3.979 3.776c19.563-7.328 36.038-.086 36.521 0z"/><path d="m75.201 214.427c5.261.243 10.526-.552 15.366-2.544l3.537-1.456c.861-.354.64-1.628-.29-1.675-4.497-.227-12.37-.984-21.839-3.621.93 3.083 2.007 6.184 3.226 9.296z"/><path d="m68.575 190.875c6.323 1.553 12.959 1.6 19.143-.221l3.669-1.08c.893-.263.805-1.552-.115-1.696-4.883-.76-13.737-2.572-24.051-6.977.317 3.282.759 6.608 1.354 9.974z"/><path d="m66.626 165.909c7.375 2.138 15.286 2.248 22.465-.195l3.621-1.232c.882-.3.74-1.585-.185-1.689-5.082-.576-14.464-2.105-25.428-6.402-.26 3.094-.421 6.272-.473 9.518z"/><path d="m69.077 141.642c6.207 1.466 12.7 1.478 18.761-.302l3.669-1.078c.894-.263.806-1.552-.114-1.696-4.307-.674-11.704-2.167-20.465-5.538-.668 2.748-1.297 5.617-1.851 8.614z"/><path d="m188.902 156.391c-10.964 4.297-20.346 5.826-25.428 6.402-.925.105-1.067 1.389-.185 1.689l3.621 1.232c7.18 2.443 15.091 2.333 22.466.194-.053-3.246-.215-6.423-.474-9.517z"/><path d="m185.071 133.029c-8.761 3.371-16.158 4.864-20.465 5.537-.92.144-1.007 1.433-.114 1.696l3.669 1.078c6.061 1.781 12.555 1.768 18.761.302-.553-2.997-1.182-5.866-1.851-8.613z"/><path d="m164.728 187.878c-.92.143-1.008 1.433-.115 1.696l3.669 1.08c6.185 1.821 12.821 1.774 19.144.221.596-3.367 1.037-6.693 1.354-9.974-10.315 4.406-19.169 6.217-24.052 6.977z"/><path d="m162.187 208.753c-.93.047-1.152 1.32-.29 1.675l3.537 1.456c4.84 1.992 10.105 2.788 15.366 2.544 1.219-3.112 2.296-6.213 3.227-9.296-9.47 2.636-17.343 3.394-21.84 3.621z"/><path d="m196.194 112.104c4.82 2.647 10.069 4.432 15.457 5.12.454-1.947 1.453-3.733 2.809-5.36-3.966-2.198-8.671-5.11-13.693-8.869-2.099 2.871-3.642 5.926-4.573 9.109z"/><path d="m214.776 128.23c-4.485 2.392-9.392 4.836-14.692 7.251 1.705 2.73 3.88 5.442 6.519 8.108 5.361-2.359 10.486-5.127 15.183-8.216-2.623-2.473-5.118-4.721-7.01-7.143z"/><path d="m217.952 170.229c6.221-.845 12.268-2.703 17.757-5.579.143-2.843-.075-5.693-.677-8.495-4.758.768-10.343 1.418-16.585 1.696 1.195 3.372 1.313 7.377-.495 12.378z"/><path d="m215.141 175.938c-.02.031-.037.064-.056.095.466 3.67.357 8.001-.413 13.045 2.731 1.274 5.563 2.337 8.461 3.177.867-.897 1.712-1.82 2.516-2.794 2.069-2.505 3.904-5.28 5.425-8.23-5.049-1.356-10.4-3.084-15.933-5.293z"/><path d="m228.96 85.131c-3.903 1.144-7.505 2.533-10.8 4.119l8.092 14.45c2.521-1.128 5-2.003 7.105-2.62 10.194-2.986 5.856-18.953-4.397-15.949z"/></g><path d="m214.766 256h-37.318c-.667 0-1.305-.266-1.775-.739l-.187-.188c-.632-.637-.874-1.565-.634-2.43s.926-1.535 1.797-1.754c1.006-.254 1.832-.992 2.153-1.927.197-.572.286-1.442-.408-2.336-1.256-1.619-2.91-3.233-4.914-4.8-3.862-3.018-4.951-8.228-2.589-12.389 12.486-21.989 17.711-46.46 15.529-72.734-.058-.692.175-1.377.644-1.891s1.128-.809 1.823-.816c11.42-.1 19.605 3.229 24.376 9.924 6.542 9.182 6.096 24.4-1.326 45.232-.016.045-.033.089-.052.133l-10.969 25.988c4.105.234 10.732 1.386 14.358 6.118 2.489 3.249 3.136 7.515 1.925 12.682-.264 1.128-1.273 1.927-2.433 1.927zm-31.39-5h29.305c.336-2.732-.124-4.937-1.375-6.57-2.614-3.412-8.225-4.094-11.337-4.197-1.465-.048-2.812-.815-3.603-2.051-.794-1.241-.926-2.792-.353-4.15l11.239-26.627c6.819-19.167 7.472-32.821 1.94-40.585-3.41-4.786-9.32-7.396-17.585-7.779 1.689 26.255-3.812 50.755-16.367 72.864-1.146 2.019-.604 4.479 1.319 5.98 2.33 1.821 4.276 3.73 5.785 5.674 1.588 2.046 2.021 4.609 1.186 7.031-.048.139-.099.275-.154.41zm17.243-15.024c0-.001 0-.001.001-.002z"/><path d="m78.553 256h-37.319c-1.161 0-2.169-.799-2.434-1.929-1.211-5.167-.564-9.434 1.925-12.682 3.625-4.732 10.252-5.884 14.358-6.118l-10.969-25.988c-.019-.044-.036-.088-.052-.133-7.422-20.832-7.869-36.05-1.326-45.232 4.771-6.695 12.958-10.024 24.376-9.924.695.007 1.355.302 1.823.816s.701 1.199.644 1.891c-2.182 26.274 3.043 50.746 15.529 72.734 2.363 4.161 1.274 9.372-2.589 12.39-2.004 1.566-3.657 3.181-4.913 4.799-.694.895-.605 1.765-.408 2.336.322.935 1.147 1.673 2.153 1.927.871.22 1.557.889 1.797 1.754s-.001 1.793-.634 2.43l-.187.188c-.469.475-1.108.741-1.774.741zm-35.234-5h29.305c-.055-.135-.106-.271-.154-.41-.834-2.422-.402-4.985 1.187-7.032 1.508-1.944 3.455-3.853 5.784-5.673 1.923-1.503 2.466-3.962 1.32-5.981-12.555-22.109-18.056-46.609-16.367-72.864-8.267.382-14.175 2.993-17.585 7.779-5.532 7.764-4.879 21.418 1.94 40.585l11.239 26.627c.573 1.358.441 2.909-.353 4.15-.791 1.236-2.138 2.002-3.603 2.051-3.112.103-8.723.785-11.337 4.197-1.252 1.634-1.713 3.839-1.376 6.571zm32.312-5.908h.01z"/><path d="m112.258 250.967c-.05 0-.1-.001-.149-.004-1.378-.081-2.43-1.264-2.349-2.643.012-.201.001-.402-.033-.598-.343-2.003-.82-3.685-1.418-4.999-1.457-3.201-2.195-6.468-2.195-9.709v-30.348c0-1.381 1.119-2.5 2.5-2.5s2.5 1.119 2.5 2.5v30.348c0 2.522.587 5.092 1.746 7.638.776 1.704 1.38 3.799 1.796 6.227.097.571.129 1.154.095 1.734-.078 1.329-1.179 2.354-2.493 2.354z"/><path d="m143.742 250.967c-1.313 0-2.415-1.024-2.493-2.353-.034-.58-.002-1.163.095-1.733.416-2.429 1.02-4.524 1.796-6.228 1.159-2.546 1.746-5.116 1.746-7.638v-30.348c0-1.381 1.119-2.5 2.5-2.5s2.5 1.119 2.5 2.5v30.348c0 3.241-.739 6.508-2.195 9.709-.598 1.313-1.075 2.996-1.418 5-.034.195-.044.396-.033.596.082 1.378-.97 2.562-2.349 2.643-.05.002-.099.004-.149.004z"/><path d="m128 113.47c-7.604 0-16.272-6.77-16.272-12.708 0-7.054 10.187-7.054 16.272-7.054s16.272 0 16.272 7.054c0 5.938-8.668 12.708-16.272 12.708zm0-14.762c-9.317 0-11.272 1.117-11.272 2.054 0 2.408 5.45 7.708 11.272 7.708s11.272-5.3 11.272-7.708c0-.937-1.955-2.054-11.272-2.054z"/><path d="m128 123.799c-1.381 0-2.5-1.119-2.5-2.5v-8.679c0-1.381 1.119-2.5 2.5-2.5s2.5 1.119 2.5 2.5v8.679c0 1.381-1.119 2.5-2.5 2.5z"/><path d="m118.174 98.468c-.396 0-.798-.094-1.173-.293-1.219-.649-1.681-2.163-1.032-3.382 6.89-12.943.07-26.056 0-26.187-.648-1.219-.187-2.733 1.032-3.382 1.22-.647 2.733-.186 3.382 1.032.335.631 8.126 15.619 0 30.886-.45.845-1.315 1.326-2.209 1.326z"/><path d="m137.826 98.468c-.894 0-1.759-.481-2.209-1.326-8.126-15.267-.335-30.255 0-30.886.649-1.218 2.164-1.68 3.382-1.032 1.217.648 1.68 2.159 1.034 3.377-.09.173-6.842 13.339-.002 26.191.648 1.219.187 2.733-1.032 3.382-.374.2-.776.294-1.173.294z"/><path d="m96.718 72.943c-1.377 0-2.496-1.114-2.5-2.492-.015-4.605 3.72-8.364 8.325-8.379h.027c4.594 0 8.338 3.729 8.353 8.326.004 1.38-1.111 2.503-2.492 2.508-.002 0-.005 0-.008 0-1.377 0-2.496-1.114-2.5-2.492-.006-1.845-1.509-3.341-3.353-3.341-.003 0-.007 0-.011 0-1.848.006-3.347 1.515-3.341 3.363.004 1.38-1.111 2.503-2.492 2.508-.003-.001-.006-.001-.008-.001z"/><path d="m147.578 72.943c-1.377 0-2.496-1.114-2.5-2.492-.015-4.605 3.72-8.364 8.325-8.379h.027c4.594 0 8.338 3.729 8.353 8.326.004 1.38-1.111 2.503-2.492 2.508-.002 0-.005 0-.008 0-1.377 0-2.496-1.114-2.5-2.492-.006-1.845-1.509-3.341-3.353-3.341-.003 0-.007 0-.011 0-1.848.006-3.347 1.515-3.341 3.363.004 1.38-1.111 2.503-2.492 2.508-.003-.001-.005-.001-.008-.001z"/><path d="m172.956 37.569c-.801 0-1.567-.386-2.041-1.057-4.164-5.889-9.385-10.781-15.518-14.539-.733-.449-1.184-1.243-1.194-2.102s.422-1.664 1.144-2.13c2.179-1.407 9.417-6.48 11.08-12.672 1.185-4.409 6.112-6.139 12.557-4.41 8.16 2.191 18.341 10.159 15.427 21.012-2.137 7.958-9.583 13.587-20.966 15.85-.164.033-.327.048-.489.048zm-11.826-17.807c4.93 3.473 9.249 7.668 12.888 12.519 6.353-1.501 13.647-4.775 15.562-11.906 1.998-7.439-5.917-13.28-11.894-14.886-2.872-.771-6.004-.718-6.431.877-1.562 5.82-6.426 10.529-10.125 13.396z"/><path d="m83.044 37.569c-.162 0-.325-.016-.488-.048-11.383-2.263-18.829-7.892-20.966-15.85-1.3-4.84.011-9.775 3.692-13.895 2.918-3.266 7.305-5.926 11.735-7.116 6.443-1.73 11.372.001 12.557 4.41 1.663 6.192 8.901 11.265 11.08 12.672.722.466 1.154 1.271 1.144 2.13s-.461 1.653-1.194 2.102c-6.133 3.758-11.354 8.65-15.518 14.539-.475.67-1.241 1.056-2.042 1.056zm-1.361-32.564c-1.04 0-2.225.176-3.37.483-5.978 1.605-13.892 7.446-11.894 14.886 1.915 7.131 9.209 10.405 15.562 11.906 3.639-4.851 7.958-9.045 12.888-12.519-3.699-2.868-8.562-7.577-10.125-13.396-.257-.958-1.493-1.36-3.061-1.36z"/><path d="m161.48 114.43c-.872 0-1.719-.457-2.179-1.27-.68-1.202-.256-2.727.946-3.407 20.38-11.523 14.533-33.122 14.471-33.339-.376-1.329.395-2.71 1.724-3.087 1.33-.375 2.71.396 3.087 1.724.072.255 6.941 25.619-16.821 39.055-.389.22-.812.324-1.228.324z"/><path d="m94.52 114.43c-.417 0-.839-.104-1.228-.324-23.762-13.436-16.893-38.8-16.821-39.055.376-1.329 1.761-2.097 3.087-1.724 1.327.376 2.098 1.755 1.725 3.082-.249.892-5.818 21.873 14.47 33.344 1.202.68 1.625 2.205.946 3.407-.46.813-1.307 1.27-2.179 1.27z"/><path d="m158.928 122.427c-.884 0-1.706-.468-2.156-1.235-.47-.801-.457-1.796.033-2.584 2.573-4.141 2.265-9.687-.766-13.801-2.777-3.768-7.364-5.671-11.871-5.157.076.396.104.772.104 1.112 0 5.938-8.668 12.708-16.272 12.708s-16.272-6.77-16.272-12.708c0-.34.028-.716.104-1.112-4.511-.515-9.094 1.389-11.871 5.157-3.031 4.113-3.339 9.66-.766 13.801.49.789.502 1.784.033 2.584-.47.801-1.344 1.266-2.272 1.232-18.22-.847-30.032-9.629-39.498-29.368-.309-.644-.327-1.39-.051-2.049s.822-1.167 1.498-1.398l4.028-1.375c-3.33-2.025-7.306-5.303-9.805-10.284-.388-.773-.349-1.693.105-2.431.453-.737 1.256-1.188 2.122-1.19-.017 0 2.823-.177 7.552-3.545l-4.053-5.12c-.594-.751-.707-1.775-.292-2.637s1.287-1.412 2.244-1.415c-.01-.001 4.954-.358 11.327-8.608 6.348-25.778 29.244-43.736 55.867-43.736s49.519 17.958 55.867 43.737c6.373 8.25 11.337 8.607 11.388 8.609.958.003 1.798.552 2.214 1.414.416.863.272 1.886-.322 2.637l-4.053 5.12c4.73 3.368 7.575 3.544 7.607 3.546.866.002 1.641.453 2.094 1.19.454.737.466 1.657.078 2.43-2.5 4.981-6.476 8.258-9.805 10.284l4.028 1.375c.676.231 1.221.74 1.498 1.398.276.659.258 1.405-.051 2.049-9.466 19.738-21.278 28.521-39.498 29.368-.04.001-.079.002-.117.002zm-13.311-27.858c5.576 0 11.01 2.607 14.447 7.271 3.289 4.463 4.262 10.167 2.824 15.238 13.275-1.71 22.239-8.844 29.89-23.659l-7.153-2.441c-1.027-.351-1.711-1.324-1.692-2.41s.736-2.035 1.775-2.349c.071-.022 6.728-2.132 10.997-7.785-2.172-.81-5.152-2.349-8.73-5.274-1.057-.864-1.226-2.417-.378-3.487l3.31-4.182c-2.875-1.281-6.922-4.023-11.342-9.883-.208-.276-.357-.593-.437-.93-5.63-23.793-26.654-40.41-51.128-40.41s-45.498 16.617-51.127 40.411c-.08.337-.229.653-.437.93-4.42 5.86-8.467 8.602-11.342 9.883l3.31 4.182c.847 1.071.679 2.624-.378 3.487-3.578 2.925-6.558 4.464-8.73 5.274 4.27 5.653 10.927 7.763 11.003 7.787 1.035.319 1.75 1.27 1.766 2.353s-.664 2.054-1.689 2.404l-7.153 2.441c7.65 14.815 16.614 21.949 29.89 23.659-1.438-5.072-.465-10.774 2.824-15.238 4.73-6.42 13.244-8.942 20.703-6.135.873.329 1.49 1.116 1.602 2.042.111.926-.303 1.837-1.074 2.363-.439.3-.439.47-.439.651 0 2.408 5.45 7.708 11.272 7.708s11.272-5.3 11.272-7.708c0-.181 0-.351-.44-.651-.771-.526-1.184-1.437-1.073-2.363s.729-1.713 1.601-2.042c2.039-.768 4.158-1.137 6.256-1.137z"/><path d="m100.894 28.26c-.821 0-1.615-.406-2.089-1.125-.651-.989-.52-2.3.316-3.139l5.906-5.93c3.542-3.557 7.734-6.183 12.458-7.806.122-.042.248-.074.375-.097 6.842-1.218 13.94-1.192 20.864.115.127.024.252.058.374.101 4.854 1.725 9.119 4.497 12.674 8.239l5.148 5.421c.747.786.901 1.964.383 2.917s-1.592 1.463-2.657 1.262c-.277-.052-.459-.123-.946-.313-7.793-3.041-28.447-9.108-51.887.18-.3.118-.612.175-.919.175zm26.845-10.124c7.236 0 13.614 1.022 18.693 2.265-2.586-2.296-5.546-4.057-8.827-5.247-6.207-1.147-12.549-1.169-18.676-.104-3.3 1.159-6.291 2.902-8.916 5.192 6.273-1.519 12.247-2.106 17.726-2.106z"/><path d="m105.047 40.804c-.889 0-1.737-.477-2.187-1.29-.582-1.05-.334-2.365.588-3.133l5.001-4.162c11.102-9.239 28.95-9.062 39.787.396l4.36 3.805c.839.732 1.093 1.93.623 2.938s-1.549 1.585-2.649 1.416c-.246-.038-.414-.093-.865-.239-6.575-2.13-24.014-6.382-43.878.143-.257.085-.52.126-.78.126zm22.755-8.603c4.547 0 8.689.396 12.278.957-7.232-3.566-16.436-3.612-23.727-.103 4.018-.607 7.859-.854 11.449-.854z"/><path d="m53.521 227.644c-.999 0-1.909-.597-2.302-1.528l-3.731-8.841c-.365-.866-.214-1.863.391-2.583.606-.719 1.563-1.038 2.479-.825 7.818 1.816 14.414 2.448 18.571 2.658 1.626.082 2.954 1.259 3.229 2.862.275 1.602-.583 3.152-2.085 3.772h-.001l-3.855 1.586c-3.881 1.597-8.091 2.57-12.511 2.891-.063.006-.124.008-.185.008zm.431-7.912 1.161 2.75c2.4-.286 4.717-.794 6.924-1.519-2.675-.309-5.387-.722-8.085-1.231zm15.167 1.116h.01z"/><path d="m45.417 207.878c-1.074 0-2.031-.687-2.372-1.71-.959-2.881-1.775-5.617-2.424-8.132-.225-.871.035-1.795.681-2.421.647-.626 1.58-.854 2.442-.604 6.576 1.925 12.135 2.828 15.641 3.247 1.58.188 2.795 1.425 2.957 3.007.161 1.581-.78 3.035-2.288 3.538l-3.627 1.21c-3.448 1.15-7.133 1.778-10.953 1.865-.018 0-.037 0-.057 0zm1.223-6.906c.18.596.368 1.202.563 1.816 1.566-.119 3.099-.345 4.588-.675-1.593-.311-3.319-.687-5.151-1.141z"/><path d="m58.509 188.632c-6.227 0-12.631-1.259-18.774-3.714-.916-.366-1.531-1.236-1.57-2.222-.194-4.867.343-9.195 1.595-12.866.246-.722.809-1.292 1.527-1.548.719-.256 1.514-.171 2.162.233 9.988 6.225 19.002 9.981 24.806 12.036.902.319 1.543 1.126 1.65 2.078.09.807.191 1.617.297 2.429.088.667-.097 1.341-.513 1.871-.416.529-1.027.868-1.696.94l-4.655.504c-1.593.173-3.205.259-4.829.259zm-15.383-7.773c6.214 2.246 12.653 3.151 18.769 2.631-5.035-2.023-11.345-4.938-18.209-8.984-.377 1.936-.564 4.06-.56 6.353z"/><path d="m202.479 227.644c-.061 0-.121-.002-.182-.006-4.42-.321-8.63-1.294-12.511-2.891l-3.855-1.586c-1.504-.62-2.362-2.171-2.087-3.772.275-1.603 1.603-2.78 3.229-2.862 4.157-.21 10.752-.841 18.571-2.658.915-.213 1.873.106 2.479.825.605.719.756 1.717.391 2.583l-3.731 8.841c-.395.929-1.306 1.526-2.304 1.526zm-8.515-6.681c2.207.724 4.523 1.232 6.924 1.519l1.161-2.75c-2.699.509-5.411.922-8.085 1.231zm-6.64.556c.001 0 .001 0 0 0z"/><path d="m210.583 207.878c-.019 0-.038 0-.057 0-3.82-.087-7.505-.714-10.953-1.865l-3.628-1.21c-1.507-.502-2.448-1.957-2.287-3.537.161-1.582 1.377-2.819 2.957-3.007 3.506-.418 9.065-1.321 15.641-3.247.861-.251 1.795-.023 2.442.604.646.625.906 1.55.681 2.421-.649 2.515-1.465 5.251-2.424 8.132-.342 1.021-1.299 1.709-2.372 1.709zm-6.375-5.765c1.49.33 3.022.556 4.588.675.195-.614.383-1.22.563-1.816-1.831.454-3.557.83-5.151 1.141zm-7.298-1.373h.01z"/><path d="m197.491 188.632c-1.624 0-3.235-.085-4.828-.258l-4.655-.504c-.669-.072-1.28-.412-1.696-.94-.416-.529-.601-1.204-.513-1.871.106-.812.207-1.623.297-2.429.107-.952.748-1.758 1.65-2.078 5.803-2.055 14.816-5.81 24.806-12.036.647-.404 1.442-.49 2.162-.233.718.256 1.281.826 1.527 1.548 1.252 3.671 1.789 8 1.595 12.866-.039.985-.654 1.856-1.57 2.222-6.144 2.454-12.549 3.713-18.775 3.713zm-3.386-5.142c6.116.52 12.555-.386 18.768-2.631.005-2.293-.183-4.417-.559-6.354-6.865 4.048-13.174 6.962-18.209 8.985z"/><path d="m109.74 55.11c-.842 0-1.652-.427-2.12-1.175-.63-1.008-.464-2.321.398-3.139l3.979-3.776c9.086-8.623 23.692-8.458 32.559.366l3.468 3.452c.774.771.958 1.955.455 2.924-.504.97-1.58 1.502-2.654 1.31-.256-.045-.436-.112-.794-.244-5.162-1.905-18.85-5.708-34.415.124-.287.106-.583.158-.876.158zm18.092-8.266c2.949 0 5.688.235 8.154.596-4.884-2.245-10.688-2.281-15.606-.087 2.596-.358 5.091-.509 7.452-.509z"/><path d="m148.419 109.695c-1.047 0-2.022-.662-2.371-1.71-.437-1.31.271-2.726 1.581-3.162l9.764-3.254c1.307-.437 2.725.271 3.162 1.581s-.271 2.726-1.581 3.162l-9.764 3.254c-.262.088-.529.129-.791.129z"/><path d="m159.271 119.459c-.092 0-.185-.005-.279-.015l-9.764-1.085c-1.373-.153-2.361-1.389-2.209-2.761.152-1.373 1.389-2.361 2.761-2.209l9.764 1.085c1.373.153 2.361 1.389 2.209 2.761-.142 1.279-1.224 2.224-2.482 2.224z"/><path d="m108.279 109.695c-.262 0-.529-.042-.791-.129l-9.764-3.254c-1.31-.437-2.018-1.852-1.581-3.162s1.854-2.016 3.162-1.581l9.764 3.254c1.31.437 2.018 1.852 1.581 3.162-.349 1.048-1.325 1.71-2.371 1.71z"/><path d="m97.426 119.459c-1.257 0-2.34-.945-2.482-2.224-.152-1.372.836-2.608 2.209-2.761l9.764-1.085c1.38-.152 2.608.837 2.761 2.209s-.836 2.608-2.209 2.761l-9.764 1.085c-.094.01-.187.015-.279.015z"/><path d="m175.79 256h-26.44c-3.175 0-5.943-1.765-7.273-4.354-9.141 2.74-19.017 2.741-28.155 0-1.331 2.588-4.1 4.353-7.272 4.353h-26.44c-3.183 0-6.008-1.73-7.372-4.515-1.292-2.639-.986-5.602.818-7.926 1.509-1.944 3.455-3.853 5.784-5.673 1.923-1.503 2.466-3.962 1.32-5.981-26.873-47.326-15.414-94.865-6.192-118.99.271-.708.849-1.256 1.571-1.488.723-.231 1.511-.124 2.144.295 5.283 3.495 11.467 5.362 18.905 5.708.823.039 1.574.479 2.008 1.18l.058.094c.095.153.188.307.293.456 1.756 2.495 4.364 4.222 7.343 4.862.767.165 1.412.679 1.742 1.39 3.495 7.517 11.103 12.374 19.381 12.374 7.162 0 13.825-3.636 17.754-9.484-.298-.377-.49-.845-.529-1.36-.103-1.373.923-2.571 2.296-2.679 3.585-.284 6.836-2.143 8.919-5.102.1-.141.188-.287.278-.433l.075-.121c.435-.698 1.185-1.138 2.007-1.176 7.436-.345 13.619-2.212 18.902-5.707.634-.419 1.422-.526 2.144-.295.722.232 1.3.779 1.571 1.487 9.224 24.124 20.685 71.661-6.19 118.99-1.146 2.019-.604 4.479 1.319 5.98 2.33 1.821 4.275 3.729 5.785 5.674 1.804 2.324 2.11 5.287.818 7.926-1.364 2.785-4.189 4.515-7.372 4.515zm-32.044-10.044c1.321 0 2.42 1.033 2.495 2.36.084 1.505 1.45 2.684 3.11 2.684h26.44c1.505 0 2.475-.885 2.881-1.714.258-.528.566-1.575-.277-2.661-1.256-1.619-2.909-3.233-4.914-4.8-3.863-3.018-4.951-8.229-2.589-12.39 24.861-43.782 15.58-87.884 6.91-111.93-5.104 2.794-10.863 4.389-17.486 4.845-2.242 3.039-5.376 5.216-8.923 6.257-4.521 8.65-13.57 14.177-23.379 14.177-9.812 0-18.859-5.527-23.379-14.18-3.584-1.046-6.718-3.23-8.949-6.253-6.624-.457-12.384-2.051-17.488-4.847-8.668 24.049-17.947 68.152 6.911 111.931 2.363 4.161 1.274 9.372-2.589 12.39-2.004 1.566-3.657 3.181-4.913 4.799-.843 1.086-.536 2.134-.277 2.662.406.829 1.375 1.714 2.881 1.714h26.44c1.657 0 3.023-1.176 3.11-2.678.045-.787.459-1.506 1.117-1.94.657-.436 1.481-.535 2.223-.268 9.524 3.42 20.049 3.445 29.59.074.3-.139.632-.221.983-.231.024 0 .048-.001.072-.001z"/><path d="m77.069 216.971c-.657 0-1.318-.015-1.983-.046-.986-.046-1.853-.667-2.213-1.586-1.242-3.174-2.35-6.365-3.292-9.484-.264-.873-.031-1.82.606-2.471.637-.652 1.578-.907 2.457-.66 8.913 2.481 16.5 3.291 21.295 3.533 1.588.08 2.886 1.23 3.155 2.797.269 1.565-.57 3.081-2.04 3.686l-3.537 1.456c-4.48 1.844-9.333 2.775-14.448 2.775zm-.134-5.001h.13c3.341 0 6.542-.451 9.567-1.348-3.2-.4-6.876-1.014-10.885-1.947.378 1.096.774 2.196 1.188 3.295z"/><path d="m77.944 194.53c-3.285 0-6.634-.409-9.965-1.227-.962-.236-1.693-1.018-1.866-1.993-.583-3.299-1.047-6.72-1.38-10.169-.085-.878.3-1.736 1.012-2.257s1.646-.628 2.458-.281c9.601 4.101 18.053 5.964 23.454 6.806 1.572.245 2.743 1.523 2.847 3.11.104 1.585-.887 3.005-2.412 3.454l-3.667 1.08c-3.343.984-6.874 1.477-10.481 1.477zm-7.185-5.728c4.486.904 8.961.966 13.165.19-3.996-.929-8.674-2.269-13.749-4.203.175 1.352.369 2.691.584 4.013z"/><path d="m77.825 170.042c-3.912 0-7.91-.577-11.895-1.733-1.083-.314-1.821-1.314-1.803-2.441.052-3.241.214-6.5.481-9.687.066-.787.5-1.496 1.17-1.914.671-.417 1.499-.492 2.233-.205 10.19 3.994 19.109 5.601 24.797 6.246 1.581.179 2.804 1.409 2.974 2.989s-.762 3.04-2.266 3.551l-3.62 1.231c-3.842 1.309-7.907 1.963-12.071 1.963zm-8.654-6.047c5.439 1.291 10.988 1.361 16.053.215-4.546-.86-9.964-2.205-15.871-4.307-.08 1.358-.141 2.725-.182 4.092z"/><path d="m78.081 145.208c-3.159 0-6.377-.377-9.579-1.133-1.297-.307-2.126-1.577-1.884-2.888.531-2.871 1.146-5.733 1.882-8.751.17-.698.632-1.29 1.27-1.623s1.386-.377 2.057-.118c8.253 3.176 15.406 4.69 19.953 5.4 1.572.246 2.742 1.526 2.846 3.112.104 1.584-.888 3.004-2.413 3.452l-3.67 1.078c-3.334.981-6.86 1.471-10.462 1.471zm-6.079-5.521c4.108.701 8.192.695 12.045-.013-3.328-.776-7.169-1.847-11.331-3.321-.254 1.125-.491 2.232-.714 3.334z"/><path d="m178.176 170.042c-4.165 0-8.229-.654-12.072-1.962l-3.621-1.232c-1.504-.511-2.436-1.971-2.266-3.551.17-1.581 1.393-2.81 2.974-2.989 5.688-.645 14.608-2.252 24.798-6.246.734-.288 1.562-.212 2.233.206.67.417 1.104 1.127 1.17 1.914.267 3.194.429 6.454.481 9.687.018 1.127-.72 2.127-1.803 2.441-3.984 1.155-7.983 1.732-11.894 1.732zm-7.4-5.833c5.062 1.146 10.613 1.076 16.054-.215-.041-1.366-.102-2.732-.183-4.092-5.907 2.102-11.324 3.448-15.871 4.307z"/><path d="m177.919 145.208c-3.603 0-7.127-.491-10.461-1.47l-3.67-1.078c-1.525-.448-2.517-1.868-2.413-3.452.104-1.586 1.274-2.866 2.845-3.112 4.547-.711 11.699-2.225 19.953-5.401.671-.259 1.42-.215 2.058.118.637.333 1.099.925 1.269 1.623.735 3.015 1.351 5.877 1.882 8.75.242 1.311-.586 2.582-1.884 2.888-3.202.757-6.42 1.134-9.579 1.134zm-5.966-5.534c3.853.708 7.938.713 12.045.013-.223-1.102-.46-2.21-.714-3.333-4.162 1.474-8.004 2.544-11.331 3.32z"/><path d="m178.057 194.53c-3.608 0-7.138-.493-10.482-1.477l-3.669-1.081c-1.523-.448-2.515-1.868-2.411-3.453.104-1.586 1.275-2.866 2.847-3.11 5.4-.841 13.854-2.705 23.455-6.806.813-.347 1.746-.24 2.458.281s1.097 1.379 1.012 2.257c-.333 3.451-.797 6.873-1.38 10.17-.173.975-.904 1.756-1.865 1.992-3.331.818-6.68 1.227-9.965 1.227zm-5.981-5.538c4.204.774 8.679.712 13.165-.19.215-1.322.41-2.662.584-4.013-5.075 1.934-9.753 3.274-13.749 4.203zm-7.348-1.114h.01z"/><path d="m178.931 216.971c-5.115 0-9.967-.931-14.45-2.776l-3.537-1.456c-1.469-.605-2.308-2.121-2.04-3.686.269-1.567 1.566-2.717 3.155-2.797 4.796-.242 12.383-1.052 21.295-3.533.877-.246 1.82.008 2.458.66.637.652.87 1.599.606 2.471-.944 3.126-2.052 6.318-3.292 9.485-.36.919-1.227 1.54-2.212 1.586-.664.03-1.326.046-1.983.046zm-9.563-6.348c3.063.908 6.312 1.379 9.697 1.347.414-1.099.811-2.198 1.188-3.295-4.008.934-7.685 1.548-10.885 1.948zm-7.181-1.87h.01z"/><path d="m211.896 203.722c-.534 0-1.066-.17-1.511-.508-.829-.628-1.182-1.705-.886-2.702 2.868-9.677 3.913-17.808 3.106-24.165-.074-.584.06-1.176.379-1.67.784-1.215 1.421-2.394 1.948-3.603 5.039-11.566-.851-17.034-7.086-22.823-.87-.807-1.725-1.601-2.53-2.395-10.452-10.306-14.652-22.165-11.825-33.392 3.376-13.411 16.049-24.247 34.767-29.731 3.686-1.082 7.296-.271 9.906 2.221 2.855 2.726 4.137 7.178 3.188 11.079-.884 3.634-3.542 6.349-7.292 7.447-7.335 2.149-16.835 6.79-19.467 12.792-1.077 2.457-.941 4.984.416 7.728 1.471 2.974 4.236 5.563 7.437 8.562 4.965 4.651 10.593 9.923 13.804 18.728 5.459 14.968-.901 30.355-8.674 39.764-3.776 4.572-8.471 8.591-14.351 12.286-.407.255-.869.382-1.329.382zm5.771-27.103c.535 5.298-.011 11.55-1.625 18.658 2.956-2.312 5.495-4.763 7.68-7.408 8.659-10.482 11.733-24.168 7.831-34.866-2.802-7.684-7.968-12.523-12.525-16.792-3.408-3.192-6.627-6.208-8.5-9.994-2.024-4.091-2.197-8.113-.514-11.952 4.177-9.528 18.386-14.336 22.641-15.583 2.586-.758 3.515-2.501 3.838-3.831.532-2.188-.201-4.771-1.782-6.28-1.32-1.261-3.067-1.619-5.047-1.04-16.725 4.9-28.435 14.678-31.324 26.154-2.411 9.576 1.215 19.469 10.487 28.611.771.76 1.588 1.519 2.421 2.292 6.213 5.769 14.723 13.668 8.269 28.484-.523 1.199-1.132 2.366-1.85 3.547z"/><path d="m211.653 119.724c-.105 0-.212-.006-.319-.02-5.613-.716-11.112-2.536-16.344-5.409-1.028-.564-1.526-1.768-1.196-2.894 1.006-3.436 2.672-6.76 4.954-9.882.394-.54.988-.898 1.648-.998.659-.098 1.333.07 1.868.471 4.276 3.201 8.788 6.123 13.408 8.684.651.361 1.108.995 1.245 1.727s-.06 1.488-.537 2.06c-1.185 1.422-1.957 2.877-2.295 4.327-.266 1.145-1.285 1.934-2.432 1.934zm-12.405-8.85c3.474 1.703 7.058 2.895 10.698 3.557.252-.592.548-1.178.888-1.756-3.223-1.886-6.383-3.936-9.442-6.125-.861 1.41-1.577 2.855-2.144 4.324z"/><path d="m206.603 146.089c-.654 0-1.297-.257-1.777-.741-2.745-2.773-5.054-5.647-6.862-8.542-.382-.611-.481-1.356-.274-2.045.208-.689.703-1.256 1.358-1.554 4.943-2.252 9.839-4.668 14.552-7.182 1.072-.572 2.399-.29 3.146.667 1.539 1.97 3.601 3.904 5.784 5.951l.97.912c.557.525.842 1.275.776 2.037-.067.762-.478 1.451-1.117 1.872-4.797 3.155-10.029 5.986-15.55 8.415-.323.141-.666.21-1.006.21zm-2.797-9.574c1.003 1.366 2.133 2.727 3.38 4.071 3.677-1.689 7.206-3.565 10.54-5.599-1.264-1.199-2.469-2.38-3.565-3.604-3.385 1.771-6.853 3.489-10.355 5.132z"/><path d="m217.952 172.729c-.749 0-1.466-.337-1.944-.929-.55-.68-.704-1.599-.406-2.421 1.454-4.02 1.614-7.519.49-10.695-.264-.747-.159-1.575.284-2.231s1.17-1.065 1.962-1.1c5.469-.243 10.952-.803 16.297-1.666 1.314-.208 2.563.642 2.843 1.943.64 2.979.885 6.057.729 9.146-.044.884-.553 1.678-1.336 2.088-5.672 2.973-11.924 4.938-18.581 5.842-.114.015-.227.023-.338.023zm3.66-12.549c.353 2.208.291 4.504-.186 6.917 4.167-.868 8.127-2.209 11.825-4.007.005-1.376-.082-2.745-.261-4.096-3.755.541-7.564.937-11.378 1.186z"/><path d="m223.133 194.754c-.232 0-.466-.032-.695-.099-3.014-.873-5.982-1.987-8.823-3.312-1.006-.469-1.582-1.545-1.415-2.643.714-4.683.85-8.839.404-12.354-.075-.587.062-1.182.385-1.679-.01.011.017-.035.057-.095.65-.999 1.917-1.399 3.022-.958 5.057 2.02 10.323 3.769 15.654 5.2.73.196 1.333.712 1.638 1.404.306.691.282 1.484-.064 2.156-1.595 3.094-3.52 6.014-5.72 8.677-.772.935-1.638 1.897-2.646 2.94-.478.495-1.129.763-1.797.763zm-5.727-7.193c1.625.693 3.288 1.312 4.971 1.85.487-.533.932-1.043 1.344-1.542 1.322-1.6 2.533-3.304 3.619-5.089-3.206-.937-6.379-1.982-9.491-3.127.056 2.452-.093 5.096-.443 7.908z"/><path d="m226.253 106.201c-.88 0-1.728-.466-2.183-1.279l-8.092-14.45c-.337-.602-.411-1.316-.203-1.975.208-.658.678-1.2 1.299-1.5 3.485-1.678 7.248-3.113 11.182-4.266 3.686-1.082 7.296-.271 9.906 2.221 2.855 2.726 4.137 7.178 3.188 11.079-.884 3.634-3.542 6.349-7.292 7.447-1.577.462-4.034 1.271-6.787 2.503-.329.149-.676.22-1.018.22zm-4.585-15.802 5.671 10.126c2.14-.857 4.005-1.46 5.315-1.844 2.587-.758 3.516-2.501 3.839-3.831.532-2.188-.201-4.771-1.782-6.28-1.32-1.26-3.067-1.619-5.047-1.04-2.775.813-5.454 1.775-7.996 2.869zm7.292-5.268h.01z"/><path d="m109.366 129.312c-5.428 0-10.624-2.61-13.908-7.276-4.209-5.98-4.017-14.096.478-20.195 4.73-6.42 13.244-8.942 20.703-6.135.873.329 1.49 1.116 1.602 2.042.111.926-.303 1.837-1.074 2.363-.439.3-.439.47-.439.651 0 2.408 5.45 7.708 11.272 7.708s11.272-5.3 11.272-7.708c0-.181 0-.352-.439-.651-.771-.526-1.184-1.437-1.073-2.363s.729-1.713 1.602-2.042c7.459-2.807 15.973-.285 20.703 6.135 4.494 6.1 4.686 14.216.478 20.196-4.377 6.217-12.149 8.785-19.342 6.388l-13.2-4.4-13.2 4.4c-1.797.598-3.629.887-5.435.887zm1.005-29.745c-4.018 0-7.933 1.878-10.409 5.24-3.217 4.366-3.384 10.133-.415 14.352 3.096 4.399 8.591 6.215 13.672 4.523l13.99-4.664c.513-.171 1.068-.171 1.581 0l13.99 4.664c5.082 1.693 10.576-.124 13.672-4.522 2.969-4.218 2.803-9.986-.414-14.352-2.777-3.768-7.364-5.671-11.872-5.157.076.396.104.772.104 1.112 0 5.938-8.668 12.708-16.272 12.708s-16.272-6.77-16.272-12.708c0-.34.028-.716.104-1.112-.485-.057-.973-.084-1.459-.084z"/><path d="m128.013 142.785c-10.233 0-19.627-6.006-23.933-15.3-.4-.865-.274-1.881.324-2.623.6-.741 1.568-1.078 2.496-.867 2.15.486 4.383.378 6.462-.314l13.99-4.664c.513-.171 1.068-.171 1.581 0l13.991 4.664c1.99.663 4.144.787 6.223.361.925-.193 1.879.158 2.465.899.585.741.703 1.75.304 2.606-4.316 9.257-13.699 15.238-23.903 15.238zm-17.084-13.544c3.99 5.295 10.311 8.544 17.084 8.544 6.78 0 13.112-3.259 17.102-8.568-1.281-.12-2.547-.384-3.771-.792l-13.2-4.4-13.2 4.4c-1.305.434-2.654.707-4.015.816z"/><path d="m128 221c-15.938 0-28.422-22.402-28.422-51 0-14.575 3.425-28.452 9.396-38.073.403-.649 1.081-1.079 1.841-1.166.763-.089 1.518.179 2.056.721 4.04 4.064 9.418 6.302 15.143 6.302 5.718 0 11.09-2.232 15.129-6.286.54-.542 1.295-.805 2.056-.72.759.087 1.437.517 1.839 1.167 5.964 9.619 9.385 23.489 9.385 38.055-.001 28.598-12.485 51-28.423 51zm-16.262-83.84c-4.573 8.686-7.16 20.454-7.16 32.84 0 24.935 10.726 46 23.422 46s23.422-21.065 23.422-46c0-12.378-2.584-24.141-7.152-32.824-4.621 3.637-10.287 5.609-16.257 5.609-5.979 0-11.651-1.978-16.275-5.625z"/><path d="m214.766 256h-37.318c-.667 0-1.305-.266-1.775-.739l-.187-.188c-.632-.637-.874-1.565-.634-2.43s.926-1.535 1.797-1.754c1.006-.254 1.832-.992 2.153-1.927.197-.572.286-1.442-.408-2.336-1.257-1.62-2.911-3.235-4.914-4.8-1.75-1.367-2.966-3.202-3.516-5.307-.309-1.183.283-2.417 1.399-2.915 2.132-.952 6.423-1.962 11.219 1.962 4.643 3.799 6.39 2.942 10.218 1.062 1.425-.7 3.041-1.494 4.989-2.102.946-.293 1.962-.004 2.609.721 4.045.167 11.094 1.207 14.876 6.143 2.489 3.249 3.136 7.515 1.925 12.682-.264 1.129-1.273 1.928-2.433 1.928zm-31.39-5h29.305c.336-2.732-.124-4.937-1.375-6.57-2.614-3.412-8.225-4.094-11.337-4.197-.681-.022-1.332-.198-1.915-.505-1.083.421-2.078.91-3.048 1.387-4.157 2.043-8.458 4.154-15.588-1.68-.982-.804-1.935-1.322-2.869-1.558.003.002.007.005.01.008 2.329 1.819 4.275 3.729 5.786 5.674 1.588 2.046 2.021 4.609 1.186 7.031-.049.139-.1.275-.155.41z"/><path d="m78.553 256h-37.319c-1.161 0-2.169-.799-2.434-1.929-1.211-5.167-.564-9.434 1.925-12.682 3.782-4.937 10.831-5.977 14.876-6.143.647-.725 1.665-1.016 2.609-.721 1.948.608 3.563 1.402 4.989 2.102 3.828 1.881 5.574 2.738 10.218-1.062 4.796-3.924 9.087-2.914 11.219-1.962 1.116.499 1.708 1.732 1.399 2.915-.55 2.105-1.766 3.94-3.517 5.307-2.002 1.565-3.656 3.18-4.913 4.799-.695.895-.606 1.765-.409 2.337.322.935 1.147 1.673 2.153 1.927.871.22 1.557.889 1.797 1.754s-.001 1.793-.634 2.43l-.187.188c-.467.474-1.106.74-1.772.74zm-35.234-5h29.305c-.055-.135-.106-.271-.154-.41-.834-2.422-.402-4.985 1.187-7.032 1.51-1.945 3.456-3.854 5.785-5.674.003-.002.007-.005.01-.008-.934.236-1.887.754-2.869 1.558-7.131 5.834-11.431 3.722-15.588 1.68-.971-.477-1.965-.965-3.048-1.387-.583.307-1.233.482-1.915.505-3.113.103-8.724.785-11.337 4.197-1.252 1.634-1.713 3.839-1.376 6.571z"/><path d="m106.65 256h-26.44c-3.183 0-6.008-1.73-7.372-4.515-1.292-2.639-.986-5.602.818-7.926 1.509-1.944 3.455-3.853 5.784-5.673 1.072-.838 1.74-2.003 1.881-3.282.137-1.246 1.175-2.198 2.428-2.226 3.96-.094 7.521 1 10.285 3.15 3.388 2.635 5.28 2.074 8.412 1.146 1.972-.584 4.207-1.248 6.995-1.084 1.079.062 1.995.811 2.272 1.855.18.678.561 1.672.964 2.724 1.043 2.722 2.227 5.806 2.073 8.445-.239 4.141-3.798 7.386-8.1 7.386zm-20.902-18.547c-.629 1.697-1.733 3.204-3.228 4.372-2.004 1.567-3.658 3.182-4.914 4.8-.843 1.086-.536 2.134-.277 2.662.406.829 1.375 1.714 2.881 1.714h26.44c1.657 0 3.023-1.176 3.11-2.678.091-1.563-.973-4.338-1.75-6.364-.175-.457-.346-.903-.505-1.333-1.252.136-2.421.482-3.638.843-3.51 1.04-7.488 2.218-12.902-1.994-1.442-1.123-3.192-1.8-5.217-2.022z"/><path d="m175.79 256h-26.44c-4.311 0-7.87-3.252-8.102-7.404l.049-.003c-.262-2.913 1.815-7.881 1.842-7.94.457-1.004.834-2.054 1.123-3.119.261-.964 1.071-1.681 2.06-1.822 3.366-.48 6.064.318 8.231.961 3.134.928 5.024 1.488 8.412-1.146 2.52-1.96 5.595-3.017 9.14-3.143 1.284-.046 2.429.922 2.573 2.223.142 1.277.81 2.441 1.88 3.278 2.33 1.821 4.276 3.729 5.785 5.674 1.805 2.325 2.11 5.288.818 7.926-1.363 2.785-4.188 4.515-7.371 4.515zm-29.555-7.759c.002.025.004.05.005.075.084 1.505 1.45 2.684 3.11 2.684h26.44c1.505 0 2.475-.885 2.881-1.714.258-.528.566-1.575-.277-2.661-1.256-1.618-2.909-3.233-4.914-4.8-1.452-1.135-2.536-2.59-3.173-4.228-1.633.31-3.064.938-4.272 1.877-5.415 4.211-9.393 3.033-12.902 1.994-1.508-.447-2.952-.875-4.578-.901-.255.733-.544 1.454-.865 2.158-1.066 2.343-1.399 4.733-1.455 5.516z"/></svg>