<svg width="24" height="24" viewBox="0 0 24 24" fill="none" xmlns="http://www.w3.org/2000/svg">
<path d="M8 13C8.55228 13 9 12.5523 9 12C9 11.4477 8.55228 11 8 11C7.44772 11 7 11.4477 7 12C7 12.5523 7.44772 13 8 13Z" stroke="#989EAB" stroke-width="2" stroke-linecap="round" stroke-linejoin="round"/>
<path d="M8 4C8.55228 4 9 3.55228 9 3C9 2.44772 8.55228 2 8 2C7.44772 2 7 2.44772 7 3C7 3.55228 7.44772 4 8 4Z" stroke="#989EAB" stroke-width="2" stroke-linecap="round" stroke-linejoin="round"/>
<path d="M8 22C8.55228 22 9 21.5523 9 21C9 20.4477 8.55228 20 8 20C7.44772 20 7 20.4477 7 21C7 21.5523 7.44772 22 8 22Z" stroke="#989EAB" stroke-width="2" stroke-linecap="round" stroke-linejoin="round"/>
<path d="M16 13C16.5523 13 17 12.5523 17 12C17 11.4477 16.5523 11 16 11C15.4477 11 15 11.4477 15 12C15 12.5523 15.4477 13 16 13Z" stroke="#989EAB" stroke-width="2" stroke-linecap="round" stroke-linejoin="round"/>
<path d="M16 4C16.5523 4 17 3.55228 17 3C17 2.44772 16.5523 2 16 2C15.4477 2 15 2.44772 15 3C15 3.55228 15.4477 4 16 4Z" stroke="#989EAB" stroke-width="2" stroke-linecap="round" stroke-linejoin="round"/>
<path d="M16 22C16.5523 22 17 21.5523 17 21C17 20.4477 16.5523 20 16 20C15.4477 20 15 20.4477 15 21C15 21.5523 15.4477 22 16 22Z" stroke="#989EAB" stroke-width="2" stroke-linecap="round" stroke-linejoin="round"/>
</svg>
