<svg width="17" height="17" viewBox="0 0 17 17" fill="none" xmlns="http://www.w3.org/2000/svg">
<g clip-path="url(#clip0_14_506)">
<path d="M12.7427 14.9324C13.8472 14.9324 14.7427 14.037 14.7427 12.9324C14.7427 11.8278 13.8472 10.9324 12.7427 10.9324C11.6381 10.9324 10.7427 11.8278 10.7427 12.9324C10.7427 14.037 11.6381 14.9324 12.7427 14.9324Z" stroke="#6B7280" stroke-width="1.5" stroke-linecap="round" stroke-linejoin="round"/>
<path d="M4.74268 10.2657C5.84725 10.2657 6.74268 9.37032 6.74268 8.26575C6.74268 7.16118 5.84725 6.26575 4.74268 6.26575C3.63811 6.26575 2.74268 7.16118 2.74268 8.26575C2.74268 9.37032 3.63811 10.2657 4.74268 10.2657Z" stroke="#6B7280" stroke-width="1.5" stroke-linecap="round" stroke-linejoin="round"/>
<path d="M6.46924 9.2724L11.0226 11.9257" stroke="#6B7280" stroke-width="1.5" stroke-linecap="round" stroke-linejoin="round"/>
<path d="M12.7427 5.59909C13.8472 5.59909 14.7427 4.70366 14.7427 3.59909C14.7427 2.49452 13.8472 1.59909 12.7427 1.59909C11.6381 1.59909 10.7427 2.49452 10.7427 3.59909C10.7427 4.70366 11.6381 5.59909 12.7427 5.59909Z" stroke="#6B7280" stroke-width="1.5" stroke-linecap="round" stroke-linejoin="round"/>
<path d="M11.0159 4.60574L6.46924 7.25908" stroke="#6B7280" stroke-width="1.5" stroke-linecap="round" stroke-linejoin="round"/>
</g>
<defs>
<clipPath id="clip0_14_506">
<rect x="0.742676" y="0.265747" width="16" height="16" rx="1.5" fill="white"/>
</clipPath>
</defs>
</svg>
