<svg width="21" height="14" viewBox="0 0 21 14" fill="none" xmlns="http://www.w3.org/2000/svg">
<path d="M6.69389 1.73877C5.07021 1.34554 3.45263 2.27094 3.08093 3.80571C3.08093 3.80571 2.69951 5.69429 2.31367 6.9738C1.92782 8.25331 1.1049 10.3585 1.1049 10.3585C0.826125 11.5096 1.58732 12.6818 2.80509 12.9767C4.49571 13.3861 7.11904 11.3417 8.1315 9.83111C8.25653 9.64456 8.42544 9.48764 8.6426 9.43041C8.95616 9.34779 9.4841 9.24706 10.1875 9.25002C10.8722 9.25291 11.4802 9.35589 11.8556 9.43735C12.1106 9.49268 12.3168 9.66484 12.4627 9.88115C13.4445 11.337 15.8186 13.3692 17.4393 12.9767C18.657 12.6818 19.4182 11.5096 19.1395 10.3585C19.1395 10.3585 18.3165 8.25331 17.9307 6.9738C17.5449 5.69429 17.1634 3.80571 17.1634 3.80571C16.7917 2.27094 15.1742 1.34554 13.5505 1.73877C13.5505 1.73877 11.5471 2.10422 10.1875 2.12502C8.75562 2.14694 6.69389 1.73877 6.69389 1.73877Z" stroke="#0BA0A0" stroke-width="1.7"/>
<rect x="13.2891" y="6.5813" width="1.1875" height="1.1875" rx="0.59375" fill="#0BA0A0"/>
<rect x="13.2891" y="4.2063" width="1.1875" height="1.1875" rx="0.59375" fill="#0BA0A0"/>
<path d="M6.16602 4.79159C6.16602 4.46834 6.42806 4.2063 6.7513 4.2063C7.07455 4.2063 7.33659 4.46834 7.33659 4.79159V7.13273C7.33659 7.45598 7.07455 7.71802 6.7513 7.71802C6.42806 7.71802 6.16602 7.45598 6.16602 7.13273V4.79159Z" fill="#0BA0A0"/>
<path d="M7.92204 5.37689C8.24528 5.37689 8.50732 5.63893 8.50732 5.96218C8.50732 6.28542 8.24528 6.54747 7.92204 6.54747L5.58089 6.54746C5.25765 6.54746 4.99561 6.28542 4.99561 5.96218C4.99561 5.63893 5.25765 5.37689 5.58089 5.37689L7.92204 5.37689Z" fill="#0BA0A0"/>
<rect x="13.2891" y="5.3938" width="1.1875" height="1.1875" rx="0.59375" transform="rotate(90 13.2891 5.3938)" fill="#0BA0A0"/>
<rect x="15.6641" y="5.3938" width="1.1875" height="1.1875" rx="0.59375" transform="rotate(90 15.6641 5.3938)" fill="#0BA0A0"/>
</svg>
