<svg width="25" height="25" viewBox="0 0 25 25" fill="none" xmlns="http://www.w3.org/2000/svg">
<g clip-path="url(#clip0_14_355)">
<rect x="1.48535" y="1.3775" width="22.2573" height="22.2573" rx="4" stroke="#6B7280" stroke-width="2"/>
<path d="M20.7427 22.5981V21.5981C20.7427 20.5372 20.3212 19.5198 19.5711 18.7697C18.821 18.0195 17.8035 17.5981 16.7427 17.5981H8.74268C7.68181 17.5981 6.66439 18.0195 5.91425 18.7697C5.1641 19.5198 4.74268 20.5372 4.74268 21.5981V22.5981" stroke="#6B7280" stroke-width="2" stroke-linecap="round" stroke-linejoin="round"/>
<path d="M12.7427 13.5981C14.9518 13.5981 16.7427 11.8072 16.7427 9.59808C16.7427 7.38894 14.9518 5.59808 12.7427 5.59808C10.5335 5.59808 8.74268 7.38894 8.74268 9.59808C8.74268 11.8072 10.5335 13.5981 12.7427 13.5981Z" stroke="#6B7280" stroke-width="2" stroke-linecap="round" stroke-linejoin="round"/>
</g>
<defs>
<clipPath id="clip0_14_355">
<rect width="24" height="24" fill="white" transform="translate(0.742676 0.598083)"/>
</clipPath>
</defs>
</svg>
