<svg width="25" height="24" viewBox="0 0 25 24" fill="none" xmlns="http://www.w3.org/2000/svg">
<path d="M12.0146 23C5.93952 23 1.01465 18.0751 1.01465 12C1.01465 5.92487 5.93951 1 12.0146 1C18.0898 1 23.0146 5.92487 23.0146 12C23.0146 18.0751 18.0898 23 12.0146 23ZM12.0146 9C12.5669 9 13.0146 8.55228 13.0146 8C13.0146 7.44772 12.5669 7 12.0146 7L12.0049 7C11.4526 7 11.0049 7.44772 11.0049 8C11.0049 8.55228 11.4526 9 12.0049 9L12.0146 9ZM12.0146 17C12.5669 17 13.0146 16.5523 13.0146 16L13.0146 12C13.0146 11.4477 12.5669 11 12.0146 11C11.4624 11 11.0146 11.4477 11.0146 12L11.0146 16C11.0146 16.5523 11.4624 17 12.0146 17Z" fill="#0BA1A1"/>
</svg>
