<svg width="22" height="22" viewBox="0 0 22 22" fill="none" xmlns="http://www.w3.org/2000/svg">
    <path d="M21.0833 19.25V17.4166C21.0826 16.6042 20.8122 15.815 20.3145 15.1729C19.8168 14.5308 19.1199 14.0722 18.3333 13.8691" stroke="#6B7280" stroke-width="1.8" stroke-linecap="round" stroke-linejoin="round"/>
    <path d="M15.5834 19.25V17.4167C15.5834 16.4442 15.1971 15.5116 14.5095 14.8239C13.8218 14.1363 12.8892 13.75 11.9167 13.75H4.58341C3.61095 13.75 2.67832 14.1363 1.99069 14.8239C1.30306 15.5116 0.916748 16.4442 0.916748 17.4167V19.25" stroke="#6B7280" stroke-width="1.8" stroke-linecap="round" stroke-linejoin="round"/>
    <path d="M14.6667 2.86914C15.4555 3.07108 16.1545 3.52978 16.6538 4.17293C17.153 4.81607 17.4239 5.60707 17.4239 6.42122C17.4239 7.23538 17.153 8.02638 16.6538 8.66952C16.1545 9.31266 15.4555 9.77136 14.6667 9.97331" stroke="#6B7280" stroke-width="1.8" stroke-linecap="round" stroke-linejoin="round"/>
    <path d="M8.24992 10.0833C10.275 10.0833 11.9166 8.44171 11.9166 6.41667C11.9166 4.39162 10.275 2.75 8.24992 2.75C6.22487 2.75 4.58325 4.39162 4.58325 6.41667C4.58325 8.44171 6.22487 10.0833 8.24992 10.0833Z" stroke="#6B7280" stroke-width="1.8" stroke-linecap="round" stroke-linejoin="round"/>
</svg>
