<svg width="24" height="25" viewBox="0 0 24 25" fill="none" xmlns="http://www.w3.org/2000/svg">
<path d="M12 20.5687C12.5523 20.5687 13 20.121 13 19.5687C13 19.0164 12.5523 18.5687 12 18.5687C11.4477 18.5687 11 19.0164 11 19.5687C11 20.121 11.4477 20.5687 12 20.5687Z" stroke="#6B7280" stroke-width="2" stroke-linecap="round" stroke-linejoin="round"/>
<path d="M12 13.5687C12.5523 13.5687 13 13.121 13 12.5687C13 12.0164 12.5523 11.5687 12 11.5687C11.4477 11.5687 11 12.0164 11 12.5687C11 13.121 11.4477 13.5687 12 13.5687Z" stroke="#6B7280" stroke-width="2" stroke-linecap="round" stroke-linejoin="round"/>
<path d="M12 6.56873C12.5523 6.56873 13 6.12101 13 5.56873C13 5.01644 12.5523 4.56873 12 4.56873C11.4477 4.56873 11 5.01644 11 5.56873C11 6.12101 11.4477 6.56873 12 6.56873Z" stroke="#6B7280" stroke-width="2" stroke-linecap="round" stroke-linejoin="round"/>
</svg>
