<svg width="24" height="25" viewBox="0 0 24 25" fill="none" xmlns="http://www.w3.org/2000/svg">
<path d="M20 9.56873H11C9.89543 9.56873 9 10.4642 9 11.5687V20.5687C9 21.6733 9.89543 22.5687 11 22.5687H20C21.1046 22.5687 22 21.6733 22 20.5687V11.5687C22 10.4642 21.1046 9.56873 20 9.56873Z" stroke="#6B7280" stroke-width="2" stroke-linecap="round" stroke-linejoin="round"/>
<path d="M5 15.5687H4C3.46957 15.5687 2.96086 15.358 2.58579 14.9829C2.21071 14.6079 2 14.0992 2 13.5687V4.56873C2 4.03829 2.21071 3.52958 2.58579 3.15451C2.96086 2.77944 3.46957 2.56873 4 2.56873H13C13.5304 2.56873 14.0391 2.77944 14.4142 3.15451C14.7893 3.52958 15 4.03829 15 4.56873V5.56873" stroke="#6B7280" stroke-width="2" stroke-linecap="round" stroke-linejoin="round"/>
</svg>
